{
.appVersion = "1075";
copyright = "Copyright 2018 Google Inc. All Rights Reserved.";
customParameters = (
{
name = glyphOrder;
value = (
.notdef,
NULL,
CR,
space,
u10AC0,
u10AC1,
u10AC2,
u10AC3,
u10AC4,
u10AC5,
u10AC6,
u10AC7,
u10AC8,
u10AC9,
u10ACA,
u10ACB,
u10ACC,
u10ACD,
u10ACE,
u10ACF,
u10AD0,
u10AD1,
u10AD2,
u10AD3,
u10AD4,
u10AD5,
u10AD6,
u10AD7,
u10AD8,
u10AD9,
u10ADA,
u10ADB,
u10ADC,
u10ADD,
u10ADE,
u10ADF,
u10AE0,
u10AE1,
u10AE2,
u10AE3,
u10AE4,
u10AE5,
u10AE6,
u10AEB,
u10AEC,
u10AED,
u10AEE,
u10AEF,
u10AF0,
u10AF1,
u10AF2,
u10AF3,
u10AF4,
u10AF5,
u10AF6,
uni0640,
uni200C,
uni200D,
uniFE00,
u10ADD10ACF,
u10ADD10ACF.fina,
u10ADD10AD7,
u10ADD10AD7.fina,
u10AC0.fina,
u10AC0.medi,
u10AC0.init,
u10AC1.fina,
u10AC1.medi,
u10AC1.init,
u10AC2.fina,
u10AC2.medi,
u10AC2.init,
u10AC3.fina,
u10AC3.medi,
u10AC3.init,
u10AC4.fina,
u10AC4.medi,
u10AC4.init,
u10AC5.fina,
u10AC7.fina,
u10AC9.fina,
u10ACA.fina,
u10ACD.init,
u10ACE.fina,
u10ACF.fina,
u10AD0.fina,
u10AD1.fina,
u10AD2.fina,
u10AD3.fina,
u10AD3.medi,
u10AD3.init,
u10AD4.fina,
u10AD4.medi,
u10AD4.init,
u10AD5.fina,
u10AD5.medi,
u10AD5.init,
u10AD6.fina,
u10AD6.medi,
u10AD6.init,
u10AD7.init,
u10AD8.fina,
u10AD8.medi,
u10AD8.init,
u10AD9.fina,
u10AD9.medi,
u10AD9.init,
u10ADA.fina,
u10ADA.medi,
u10ADA.init,
u10ADB.fina,
u10ADB.medi,
u10ADB.init,
u10ADC.fina,
u10ADC.medi,
u10ADC.init,
u10ADD.fina,
u10ADE.fina,
u10ADE.medi,
u10ADE.init,
u10ADF.fina,
u10ADF.medi,
u10ADF.init,
u10AE0.fina,
u10AE0.medi,
u10AE0.init,
u10AE1.fina,
u10AE4.fina,
u10AC5.alt,
u10AC6.alt,
u10AD6.alt,
u10AD6.alt.fina,
u10AD7.alt,
u10AE1.alt,
u10AEB.fina,
u10AEB.medi,
u10AEB.init,
u10AEC.fina,
u10AEC.medi,
u10AEC.init,
u10AED.fina,
u10AED.medi,
u10AED.init,
u10AEE.fina,
u10AEE.medi,
u10AEE.init,
u10AEF.fina,
uni25CC,
bar.left,
bar.right,
barlong.right,
dots,
dot1,
u10AEB.fina.high,
u10AEB.medi.high,
u10AEC.fina.high,
u10AEC.medi.high,
uni00A0
);
},
{
name = description;
value = "Designed by Monotype design team.";
},
{
name = license;

glyphs = (
{
glyphname = .notdef;
lastChange = "2018-03-14 14:29:06 +0000";
layers = (
{
layerId = UUID0;
paths = (
{
closed = 1;
nodes = (
"505 0 LINE",
"505 714 LINE",
"94 714 LINE",
"94 0 LINE"
);
},
{
closed = 1;
nodes = (
"145 663 LINE",
"454 663 LINE",
"454 51 LINE",
"145 51 LINE"
);
}
);
width = 600;
}
);
},
{
glyphname = u10AC0;
lastChange = "2018-03-14 14:29:15 +0000";
layers = (
{
layerId = UUID0;
paths = (
{
closed = 1;
nodes = (
"129 -10 OFFCURVE",
"138 10 OFFCURVE",
"138 48 CURVE SMOOTH",
"138 62 OFFCURVE",
"137 83 OFFCURVE",
"136 96 CURVE SMOOTH",
"135 108 OFFCURVE",
"134 125 OFFCURVE",
"134 133 CURVE SMOOTH",
"134 201 OFFCURVE",
"139 247 OFFCURVE",
"207 247 CURVE SMOOTH",
"275 247 OFFCURVE",
"398 198 OFFCURVE",
"457 144 CURVE",
"457 128 OFFCURVE",
"455 108 OFFCURVE",
"452 88 CURVE SMOOTH",
"449 67 OFFCURVE",
"447 53 OFFCURVE",
"447 40 CURVE SMOOTH",
"447 4 OFFCURVE",
"473 -10 OFFCURVE",
"513 -10 CURVE SMOOTH",
"559 -10 OFFCURVE",
"575 12 OFFCURVE",
"575 49 CURVE SMOOTH",
"575 104 OFFCURVE",
"562 146 OFFCURVE",
"547 185 CURVE SMOOTH",
"533 222 OFFCURVE",
"521 261 OFFCURVE",
"521 292 CURVE SMOOTH",
"521 314 OFFCURVE",
"524 339 OFFCURVE",
"528 359 CURVE SMOOTH",
"530 371 OFFCURVE",
"531 386 OFFCURVE",
"531 393 CURVE SMOOTH",
"531 437 OFFCURVE",
"504 449 OFFCURVE",
"467 449 CURVE SMOOTH",
"428 449 OFFCURVE",
"402 436 OFFCURVE",
"402 394 CURVE SMOOTH",
"402 347 OFFCURVE",
"417 301 OFFCURVE",
"431 258 CURVE",
"365 296 OFFCURVE",
"269 331 OFFCURVE",
"205 331 CURVE SMOOTH",
"70 331 OFFCURVE",
"47 242 OFFCURVE",
"47 133 CURVE SMOOTH",
"47 114 OFFCURVE",
"47 96 OFFCURVE",
"45 80 CURVE SMOOTH",
"44 68 OFFCURVE",
"44 56 OFFCURVE",
"44 45 CURVE SMOOTH",
"44 10 OFFCURVE",
"51 -10 OFFCURVE",
"91 -10 CURVE SMOOTH"
);
}
);
width = 633;
}
);
unicode = 10AC0;
},
{
glyphname = u10AC1;
lastChange = "2018-03-14 14:29:06 +0000";
layers = (
{
layerId = UUID0;
paths = (
{
closed = 1;
nodes = (
"895 0 LINE SMOOTH",
"937 0 OFFCURVE",
"955 26 OFFCURVE",
"955 59 CURVE SMOOTH",
"955 112 OFFCURVE",
"891 322 OFFCURVE",
"871 385 CURVE SMOOTH",
"860 421 OFFCURVE",
"851 439 OFFCURVE",
"821 439 CURVE SMOOTH",
"796 439 OFFCURVE",
"786 422 OFFCURVE",
"774 399 CURVE SMOOTH",
"752 358 OFFCURVE",
"719 300 OFFCURVE",
"594 300 CURVE SMOOTH",
"489 300 OFFCURVE",
"461 341 OFFCURVE",
"438 376 CURVE SMOOTH",
"421 402 OFFCURVE",
"401 425 OFFCURVE",
"364 425 CURVE SMOOTH",
"327 425 OFFCURVE",
"312 402 OFFCURVE",
"312 377 CURVE SMOOTH",
"312 356 OFFCURVE",
"319 341 OFFCURVE",
"331 325 CURVE SMOOTH",
"376 263 OFFCURVE",
"464 218 OFFCURVE",
"587 218 CURVE SMOOTH",
"704 218 OFFCURVE",
"761 247 OFFCURVE",
"804 290 CURVE",
"823 238 OFFCURVE",
"850 144 OFFCURVE",
"850 116 CURVE SMOOTH",
"850 96 OFFCURVE",
"841 81 OFFCURVE",
"811 81 CURVE SMOOTH",
"244 81 LINE SMOOTH",
"196 81 OFFCURVE",
"174 92 OFFCURVE",
"157 105 CURVE SMOOTH",
"140 118 OFFCURVE",
"124 129 OFFCURVE",
"98 129 CURVE SMOOTH",
"64 129 OFFCURVE",
"44 107 OFFCURVE",
"44 72 CURVE SMOOTH",
"44 26 OFFCURVE",
"80 0 OFFCURVE",
"146 0 CURVE SMOOTH"
);
}
);
width = 999;
}
);
unicode = 10AC1;
},
{
glyphname = u10AC3;
lastChange = "2018-03-14 14:29:06 +0000";
layers = (
{
layerId = UUID0;
paths = (
{
closed = 1;
nodes = (
"378 -303 OFFCURVE",
"451 -251 OFFCURVE",
"451 -179 CURVE SMOOTH",
"451 -135 OFFCURVE",
"423 -54 OFFCURVE",
"396 16 CURVE SMOOTH",
"240 413 LINE SMOOTH",
"222 460 OFFCURVE",
"210 499 OFFCURVE",
"210 513 CURVE SMOOTH",
"210 523 OFFCURVE",
"217 535 OFFCURVE",
"224 545 CURVE SMOOTH",
"231 556 OFFCURVE",
"237 566 OFFCURVE",
"237 576 CURVE SMOOTH",
"237 597 OFFCURVE",
"219 625 OFFCURVE",
"130 625 CURVE SMOOTH",
"95 625 OFFCURVE",
"84 609 OFFCURVE",
"84 587 CURVE SMOOTH",
"84 553 OFFCURVE",
"118 468 OFFCURVE",
"158 368 CURVE SMOOTH",
"296 26 LINE SMOOTH",
"324 -44 OFFCURVE",
"362 -150 OFFCURVE",
"362 -189 CURVE SMOOTH",
"362 -212 OFFCURVE",
"349 -232 OFFCURVE",
"335 -247 CURVE SMOOTH",
"324 -259 OFFCURVE",
"315 -270 OFFCURVE",
"315 -282 CURVE SMOOTH",
"315 -297 OFFCURVE",
"327 -303 OFFCURVE",
"338 -303 CURVE SMOOTH"
);
},
{
closed = 1;
nodes = (
"360 0 LINE",
"334 81 LINE",
"201 81 LINE SMOOTH",
"181 81 OFFCURVE",
"162 84 OFFCURVE",
"146 89 CURVE SMOOTH",
"134 93 OFFCURVE",
"121 96 OFFCURVE",
"111 96 CURVE SMOOTH",
"91 96 OFFCURVE",
"78 84 OFFCURVE",
"78 48 CURVE SMOOTH",
"78 2 OFFCURVE",
"102 0 OFFCURVE",
"162 0 CURVE SMOOTH"
);
}
);
width = 529;
}
);
unicode = 10AC3;
},
{
glyphname = u10AC4;
lastChange = "2018-03-14 14:29:06 +0000";
layers = (
{
layerId = UUID0;
paths = (
{
closed = 1;
nodes = (
"361 -337 OFFCURVE",
"433 -268 OFFCURVE",
"433 -173 CURVE SMOOTH",
"433 -128 OFFCURVE",
"397 -37 OFFCURVE",
"364 46 CURVE SMOOTH",
"217 413 LINE SMOOTH",
"198 460 OFFCURVE",
"188 499 OFFCURVE",
"188 513 CURVE SMOOTH",
"188 523 OFFCURVE",
"194 535 OFFCURVE",
"201 545 CURVE SMOOTH",
"208 556 OFFCURVE",
"214 566 OFFCURVE",
"214 576 CURVE SMOOTH",
"214 597 OFFCURVE",
"196 625 OFFCURVE",
"107 625 CURVE SMOOTH",
"72 625 OFFCURVE",
"62 609 OFFCURVE",
"62 587 CURVE SMOOTH",
"62 553 OFFCURVE",
"94 469 OFFCURVE",
"135 368 CURVE SMOOTH",
"308 -63 LINE SMOOTH",
"332 -122 OFFCURVE",
"343 -162 OFFCURVE",
"343 -185 CURVE SMOOTH",
"343 -225 OFFCURVE",
"314 -255 OFFCURVE",
"262 -255 CURVE SMOOTH",
"229 -255 OFFCURVE",
"206 -241 OFFCURVE",
"206 -211 CURVE SMOOTH",
"206 -169 OFFCURVE",
"252 -134 OFFCURVE",
"373 -134 CURVE",
"349 -67 LINE",
"191 -67 OFFCURVE",
"115 -128 OFFCURVE",
"115 -218 CURVE SMOOTH",
"115 -282 OFFCURVE",
"161 -337 OFFCURVE",
"253 -337 CURVE SMOOTH"
);
},
{
closed = 1;
nodes = (
"340 0 LINE",
"314 81 LINE",
"181 81 LINE SMOOTH",
"161 81 OFFCURVE",
"142 84 OFFCURVE",
"126 89 CURVE SMOOTH",
"114 93 OFFCURVE",
"100 96 OFFCURVE",
"91 96 CURVE SMOOTH",
"71 96 OFFCURVE",
"58 84 OFFCURVE",
"58 48 CURVE SMOOTH",
"58 2 OFFCURVE",
"82 0 OFFCURVE",
"142 0 CURVE SMOOTH"
);
}
);
width = 492;
}
);
unicode = 10AC4;
},
{
glyphname = u10AC5;
lastChange = "2018-03-14 14:29:06 +0000";
layers = (
{
layerId = UUID0;
paths = (
{
closed = 1;
nodes = (
"306 -89 OFFCURVE",
"314 -78 OFFCURVE",
"314 -63 CURVE SMOOTH",
"314 -42 OFFCURVE",
"300 -25 OFFCURVE",
"280 -3 CURVE SMOOTH",
"258 22 OFFCURVE",
"241 48 OFFCURVE",
"241 70 CURVE SMOOTH",
"241 89 OFFCURVE",
"253 100 OFFCURVE",
"268 109 CURVE SMOOTH",
"279 115 OFFCURVE",
"301 130 OFFCURVE",
"301 156 CURVE SMOOTH",
"301 211 OFFCURVE",
"198 236 OFFCURVE",
"134 236 CURVE SMOOTH",
"67 236 OFFCURVE",
"44 208 OFFCURVE",
"44 171 CURVE SMOOTH",
"44 74 OFFCURVE",
"208 -89 OFFCURVE",
"286 -89 CURVE SMOOTH"
);
}
);
width = 419;
}
);
unicode = 10AC5;
},
{
glyphname = u10AC6;
lastChange = "2018-03-14 14:29:06 +0000";
layers = (
{
layerId = UUID0;
paths = (
{
closed = 1;
nodes = (
"369 -10 OFFCURVE",
"538 159 OFFCURVE",
"634 263 CURVE SMOOTH",
"674 306 OFFCURVE",
"704 338 OFFCURVE",
"724 343 CURVE",
"730 312 OFFCURVE",
"740 281 OFFCURVE",
"750 252 CURVE SMOOTH",
"763 215 OFFCURVE",
"773 175 OFFCURVE",
"773 151 CURVE SMOOTH",
"773 134 OFFCURVE",
"772 110 OFFCURVE",
"768 87 CURVE SMOOTH",
"765 68 OFFCURVE",
"764 56 OFFCURVE",
"764 41 CURVE SMOOTH",
"764 6 OFFCURVE",
"790 -10 OFFCURVE",
"825 -10 CURVE SMOOTH",
"867 -10 OFFCURVE",
"885 13 OFFCURVE",
"885 69 CURVE SMOOTH",
"885 107 OFFCURVE",
"872 147 OFFCURVE",
"857 186 CURVE SMOOTH",
"843 222 OFFCURVE",
"832 259 OFFCURVE",
"832 292 CURVE SMOOTH",
"832 313 OFFCURVE",
"834 335 OFFCURVE",
"838 354 CURVE SMOOTH",
"841 369 OFFCURVE",
"842 381 OFFCURVE",
"842 388 CURVE SMOOTH",
"842 432 OFFCURVE",
"818 444 OFFCURVE",
"781 444 CURVE SMOOTH",
"760 444 OFFCURVE",
"740 437 OFFCURVE",
"729 424 CURVE",
"267 424 LINE SMOOTH",
"209 424 OFFCURVE",
"177 440 OFFCURVE",
"155 453 CURVE SMOOTH",
"142 461 OFFCURVE",
"129 468 OFFCURVE",
"107 468 CURVE SMOOTH",
"74 468 OFFCURVE",
"55 449 OFFCURVE",
"55 413 CURVE SMOOTH",
"55 372 OFFCURVE",
"90 344 OFFCURVE",
"157 344 CURVE SMOOTH",
"589 344 LINE",
"510 247 OFFCURVE",
"326 80 OFFCURVE",
"199 80 CURVE SMOOTH",
"171 80 OFFCURVE",
"156 89 OFFCURVE",
"143 98 CURVE SMOOTH",
"129 107 OFFCURVE",
"112 114 OFFCURVE",
"95 114 CURVE SMOOTH",
"66 114 OFFCURVE",
"44 97 OFFCURVE",
"44 62 CURVE SMOOTH",
"44 21 OFFCURVE",
"82 -10 OFFCURVE",
"163 -10 CURVE SMOOTH"
);
}
);
width = 950;
}
);
unicode = 10AC6;
},
{
glyphname = u10AC7;
lastChange = "2018-03-14 14:29:06 +0000";
layers = (
{
layerId = UUID0;
paths = (
{
closed = 1;
nodes = (
"389 -45 OFFCURVE",
"392 -35 OFFCURVE",
"392 -20 CURVE SMOOTH",
"392 0 OFFCURVE",
"384 27 OFFCURVE",
"377 48 CURVE SMOOTH",
"362 96 OFFCURVE",
"288 284 OFFCURVE",
"176 284 CURVE SMOOTH",
"117 284 OFFCURVE",
"59 208 OFFCURVE",
"59 138 CURVE SMOOTH",
"59 92 OFFCURVE",
"115 3 OFFCURVE",
"163 3 CURVE SMOOTH",
"181 3 OFFCURVE",
"184 15 OFFCURVE",
"192 46 CURVE SMOOTH",
"199 74 OFFCURVE",
"208 105 OFFCURVE",
"238 105 CURVE SMOOTH",
"275 105 OFFCURVE",
"308 53 OFFCURVE",
"329 15 CURVE SMOOTH",
"350 -24 OFFCURVE",
"362 -45 OFFCURVE",
"377 -45 CURVE SMOOTH"
);
}
);
width = 451;
}
);
unicode = 10AC7;
},
{
glyphname = u10AC8;
lastChange = "2018-03-14 14:29:06 +0000";
layers = (
{
components = (
{
name = u10AC7;
}
);
layerId = UUID0;
paths = (
{
closed = 1;
nodes = (
"229 367 OFFCURVE",
"254 403 OFFCURVE",
"254 447 CURVE SMOOTH",
"254 491 OFFCURVE",
"208 527 OFFCURVE",
"164 527 CURVE SMOOTH",
"120 527 OFFCURVE",
"94 491 OFFCURVE",
"94 447 CURVE SMOOTH",
"94 403 OFFCURVE",
"141 367 OFFCURVE",
"185 367 CURVE SMOOTH"
);
},
{
closed = 1;
nodes = (
"297 -233 OFFCURVE",
"323 -197 OFFCURVE",
"323 -154 CURVE SMOOTH",
"323 -109 OFFCURVE",
"276 -73 OFFCURVE",
"232 -73 CURVE SMOOTH",
"188 -73 OFFCURVE",
"163 -109 OFFCURVE",
"163 -154 CURVE SMOOTH",
"163 -197 OFFCURVE",
"209 -233 OFFCURVE",
"253 -233 CURVE SMOOTH"
);
}
);
width = 451;
}
);
unicode = 10AC8;
},
{
glyphname = u10AC9;
lastChange = "2018-03-14 14:29:06 +0000";
layers = (
{
layerId = UUID0;
paths = (
{
closed = 1;
nodes = (
"383 -171 OFFCURVE",
"412 -149 OFFCURVE",
"412 -99 CURVE SMOOTH",
"412 -61 OFFCURVE",
"385 -2 OFFCURVE",
"316 48 CURVE SMOOTH",
"234 108 OFFCURVE",
"201 170 OFFCURVE",
"201 212 CURVE SMOOTH",
"201 239 OFFCURVE",
"229 262 OFFCURVE",
"253 277 CURVE SMOOTH",
"270 288 OFFCURVE",
"284 298 OFFCURVE",
"284 313 CURVE SMOOTH",
"284 337 OFFCURVE",
"243 384 OFFCURVE",
"158 384 CURVE SMOOTH",
"112 384 OFFCURVE",
"59 365 OFFCURVE",
"59 293 CURVE SMOOTH",
"59 191 OFFCURVE",
"171 80 OFFCURVE",
"234 19 CURVE SMOOTH",
"283 -29 OFFCURVE",
"284 -72 OFFCURVE",
"284 -115 CURVE SMOOTH",
"284 -149 OFFCURVE",
"303 -171 OFFCURVE",
"344 -171 CURVE SMOOTH"
);
}
);
width = 493;
}
);
unicode = 10AC9;
},
{
glyphname = u10ACB;
lastChange = "2018-03-14 14:29:06 +0000";
layers = (
{
layerId = UUID0;
paths = (
{
closed = 1;
nodes = (
"457 -10 OFFCURVE",
"479 89 OFFCURVE",
"479 138 CURVE SMOOTH",
"479 183 OFFCURVE",
"437 281 OFFCURVE",
"417 325 CURVE SMOOTH",
"377 413 OFFCURVE",
"347 494 OFFCURVE",
"347 515 CURVE SMOOTH",
"347 528 OFFCURVE",
"354 539 OFFCURVE",
"361 548 CURVE SMOOTH",
"368 556 OFFCURVE",
"374 563 OFFCURVE",
"374 573 CURVE SMOOTH",
"374 588 OFFCURVE",
"357 625 OFFCURVE",
"256 625 CURVE SMOOTH",
"227 625 OFFCURVE",
"217 615 OFFCURVE",
"217 597 CURVE SMOOTH",
"217 549 OFFCURVE",
"284 399 OFFCURVE",
"330 300 CURVE SMOOTH",
"351 255 OFFCURVE",
"386 171 OFFCURVE",
"386 143 CURVE SMOOTH",
"386 100 OFFCURVE",
"370 76 OFFCURVE",
"270 76 CURVE SMOOTH",
"182 76 OFFCURVE",
"149 113 OFFCURVE",
"149 164 CURVE SMOOTH",
"149 201 OFFCURVE",
"171 229 OFFCURVE",
"194 253 CURVE SMOOTH",
"209 269 OFFCURVE",
"221 282 OFFCURVE",
"221 298 CURVE SMOOTH",
"221 325 OFFCURVE",
"179 342 OFFCURVE",
"153 342 CURVE SMOOTH",
"115 342 OFFCURVE",
"59 245 OFFCURVE",
"59 153 CURVE SMOOTH",
"59 83 OFFCURVE",
"98 -10 OFFCURVE",
"266 -10 CURVE SMOOTH"
);
}
);
width = 538;
}
);
unicode = 10ACB;
},
{
glyphname = u10ACD;
lastChange = "2018-03-14 14:29:06 +0000";
layers = (
{
layerId = UUID0;
paths = (
{
closed = 1;
nodes = (
"266 -10 OFFCURVE",
"300 99 OFFCURVE",
"309 199 CURVE",
"364 158 OFFCURVE",
"416 109 OFFCURVE",
"454 70 CURVE SMOOTH",
"496 26 OFFCURVE",
"532 -10 OFFCURVE",
"576 -10 CURVE SMOOTH",
"617 -10 OFFCURVE",
"632 12 OFFCURVE",
"632 68 CURVE SMOOTH",
"632 106 OFFCURVE",
"624 145 OFFCURVE",
"610 184 CURVE SMOOTH",
"596 223 OFFCURVE",
"583 261 OFFCURVE",
"583 292 CURVE SMOOTH",
"583 314 OFFCURVE",
"584 337 OFFCURVE",
"589 359 CURVE SMOOTH",
"591 368 OFFCURVE",
"592 386 OFFCURVE",
"592 393 CURVE SMOOTH",
"592 437 OFFCURVE",
"567 449 OFFCURVE",
"529 449 CURVE SMOOTH",
"495 449 OFFCURVE",
"474 436 OFFCURVE",
"474 394 CURVE SMOOTH",
"474 358 OFFCURVE",
"490 298 OFFCURVE",
"505 253 CURVE SMOOTH",
"515 224 OFFCURVE",
"535 153 OFFCURVE",
"535 115 CURVE",
"496 136 OFFCURVE",
"446 176 OFFCURVE",
"404 217 CURVE SMOOTH",
"363 257 OFFCURVE",
"322 302 OFFCURVE",
"291 337 CURVE SMOOTH",
"232 404 OFFCURVE",
"192 449 OFFCURVE",
"143 449 CURVE SMOOTH",
"118 449 OFFCURVE",
"95 440 OFFCURVE",
"95 403 CURVE SMOOTH",
"95 357 OFFCURVE",
"143 321 OFFCURVE",
"227 261 CURVE",
"226 184 OFFCURVE",
"210 76 OFFCURVE",
"151 76 CURVE SMOOTH",
"132 76 OFFCURVE",
"116 84 OFFCURVE",
"105 92 CURVE SMOOTH",
"96 99 OFFCURVE",
"87 105 OFFCURVE",
"76 105 CURVE SMOOTH",
"52 105 OFFCURVE",
"44 84 OFFCURVE",
"44 60 CURVE SMOOTH",
"44 5 OFFCURVE",
"100 -10 OFFCURVE",
"148 -10 CURVE SMOOTH"
);
}
);
width = 686;
}
);
unicode = 10ACD;
},
{
glyphname = u10ACE;
lastChange = "2018-03-14 14:29:06 +0000";
layers = (
{
layerId = UUID0;
paths = (
{
closed = 1;
nodes = (
"414 -135 OFFCURVE",
"461 -78 OFFCURVE",
"461 2 CURVE SMOOTH",
"461 75 OFFCURVE",
"422 135 OFFCURVE",
"337 135 CURVE SMOOTH",
"280 135 OFFCURVE",
"219 108 OFFCURVE",
"166 64 CURVE",
"197 1 LINE",
"248 42 OFFCURVE",
"291 57 OFFCURVE",
"318 57 CURVE SMOOTH",
"357 57 OFFCURVE",
"372 27 OFFCURVE",
"372 -2 CURVE SMOOTH",
"372 -34 OFFCURVE",
"354 -54 OFFCURVE",
"323 -54 CURVE SMOOTH",
"217 -54 OFFCURVE",
"140 159 OFFCURVE",
"140 315 CURVE SMOOTH",
"140 386 OFFCURVE",
"156 450 OFFCURVE",
"215 450 CURVE SMOOTH",
"246 450 OFFCURVE",
"270 433 OFFCURVE",
"270 395 CURVE SMOOTH",
"270 357 OFFCURVE",
"241 321 OFFCURVE",
"92 321 CURVE",
"105 252 LINE",
"283 252 OFFCURVE",
"351 302 OFFCURVE",
"351 396 CURVE SMOOTH",
"351 475 OFFCURVE",
"302 530 OFFCURVE",
"222 530 CURVE SMOOTH",
"127 530 OFFCURVE",
"59 454 OFFCURVE",
"59 311 CURVE SMOOTH",
"59 124 OFFCURVE",
"150 -135 OFFCURVE",
"332 -135 CURVE SMOOTH"
);
}
);
width = 520;
}
);
unicode = 10ACE;
},
{
glyphname = u10ACF;
lastChange = "2018-03-14 14:29:06 +0000";
layers = (
{
layerId = UUID0;
paths = (
{
closed = 1;
nodes = (
"374 -10 OFFCURVE",
"448 29 OFFCURVE",
"448 118 CURVE SMOOTH",
"448 231 OFFCURVE",
"342 351 OFFCURVE",
"239 351 CURVE SMOOTH",
"176 351 OFFCURVE",
"142 322 OFFCURVE",
"114 280 CURVE SMOOTH",
"93 248 OFFCURVE",
"71 201 OFFCURVE",
"71 160 CURVE SMOOTH",
"71 137 OFFCURVE",
"80 117 OFFCURVE",
"109 117 CURVE SMOOTH",
"138 117 OFFCURVE",
"147 139 OFFCURVE",
"157 169 CURVE SMOOTH",
"176 229 OFFCURVE",
"188 265 OFFCURVE",
"235 265 CURVE SMOOTH",
"294 265 OFFCURVE",
"357 192 OFFCURVE",
"357 132 CURVE SMOOTH",
"357 93 OFFCURVE",
"314 71 OFFCURVE",
"262 71 CURVE SMOOTH",
"228 71 OFFCURVE",
"201 72 OFFCURVE",
"176 75 CURVE SMOOTH",
"149 78 OFFCURVE",
"134 79 OFFCURVE",
"113 79 CURVE SMOOTH",
"77 79 OFFCURVE",
"59 66 OFFCURVE",
"59 42 CURVE SMOOTH",
"59 -5 OFFCURVE",
"126 -10 OFFCURVE",
"247 -10 CURVE SMOOTH"
);
}
);
width = 507;
}
);
unicode = 10ACF;
},
{
glyphname = u10AD0;
lastChange = "2018-03-14 14:29:06 +0000";
layers = (
{
layerId = UUID0;
paths = (
{
closed = 1;
nodes = (
"931 -171 LINE SMOOTH",
"974 -171 OFFCURVE",
"1003 -160 OFFCURVE",
"1003 -126 CURVE SMOOTH",
"1003 -80 OFFCURVE",
"923 110 OFFCURVE",
"884 163 CURVE SMOOTH",
"832 234 OFFCURVE",
"796 254 OFFCURVE",
"744 254 CURVE SMOOTH",
"692 254 OFFCURVE",
"646 227 OFFCURVE",
"646 154 CURVE SMOOTH",
"646 85 OFFCURVE",
"696 55 OFFCURVE",
"753 55 CURVE SMOOTH",
"775 55 OFFCURVE",
"802 59 OFFCURVE",
"828 68 CURVE",
"851 45 OFFCURVE",
"893 -48 OFFCURVE",
"893 -71 CURVE SMOOTH",
"893 -84 OFFCURVE",
"883 -90 OFFCURVE",
"847 -90 CURVE SMOOTH",
"224 -90 LINE SMOOTH",
"194 -90 OFFCURVE",
"172 -78 OFFCURVE",
"154 -65 CURVE SMOOTH",
"137 -53 OFFCURVE",
"119 -42 OFFCURVE",
"99 -42 CURVE SMOOTH",
"57 -42 OFFCURVE",
"44 -70 OFFCURVE",
"44 -99 CURVE SMOOTH",
"44 -143 OFFCURVE",
"80 -171 OFFCURVE",
"146 -171 CURVE SMOOTH"
);
}
);
width = 1047;
}
);
unicode = 10AD0;
},
{
glyphname = u10AD3;
lastChange = "2018-03-14 14:29:06 +0000";
layers = (
{
layerId = UUID0;
paths = (
{
closed = 1;
nodes = (
"710 0 LINE SMOOTH",
"732 0 OFFCURVE",
"748 5 OFFCURVE",
"748 24 CURVE SMOOTH",
"748 34 OFFCURVE",
"728 58 OFFCURVE",
"709 81 CURVE SMOOTH",
"681 115 OFFCURVE",
"654 170 OFFCURVE",
"627 243 CURVE SMOOTH",
"578 377 OFFCURVE",
"509 535 OFFCURVE",
"360 535 CURVE SMOOTH",
"223 535 OFFCURVE",
"184 443 OFFCURVE",
"184 356 CURVE SMOOTH",
"184 235 OFFCURVE",
"267 139 OFFCURVE",
"387 81 CURVE",
"229 81 LINE SMOOTH",
"193 81 OFFCURVE",
"172 94 OFFCURVE",
"153 107 CURVE SMOOTH",
"136 119 OFFCURVE",
"119 129 OFFCURVE",
"96 129 CURVE SMOOTH",
"57 129 OFFCURVE",
"44 102 OFFCURVE",
"44 72 CURVE SMOOTH",
"44 28 OFFCURVE",
"80 0 OFFCURVE",
"146 0 CURVE SMOOTH"
);
},
{
closed = 1;
nodes = (
"436 105 OFFCURVE",
"274 244 OFFCURVE",
"274 361 CURVE SMOOTH",
"274 413 OFFCURVE",
"302 442 OFFCURVE",
"356 442 CURVE SMOOTH",
"449 442 OFFCURVE",
"495 333 OFFCURVE",
"537 216 CURVE SMOOTH",
"555 166 OFFCURVE",
"573 120 OFFCURVE",
"593 81 CURVE"
);
}
);
width = 792;
}
);
unicode = 10AD3;
},
{
glyphname = u10AD4;
lastChange = "2018-03-14 14:29:06 +0000";
layers = (
{
layerId = UUID0;
paths = (
{
closed = 1;
nodes = (
"659 0 LINE SMOOTH",
"733 0 OFFCURVE",
"779 2 OFFCURVE",
"779 53 CURVE SMOOTH",
"779 90 OFFCURVE",
"740 185 OFFCURVE",
"718 234 CURVE SMOOTH",
"690 296 OFFCURVE",
"649 392 OFFCURVE",
"649 412 CURVE SMOOTH",
"649 425 OFFCURVE",
"654 436 OFFCURVE",
"660 445 CURVE SMOOTH",
"666 453 OFFCURVE",
"668 463 OFFCURVE",
"668 473 CURVE SMOOTH",
"668 507 OFFCURVE",
"606 522 OFFCURVE",
"569 522 CURVE SMOOTH",
"540 522 OFFCURVE",
"524 514 OFFCURVE",
"524 495 CURVE SMOOTH",
"524 471 OFFCURVE",
"578 349 OFFCURVE",
"613 271 CURVE SMOOTH",
"651 185 OFFCURVE",
"676 125 OFFCURVE",
"676 104 CURVE SMOOTH",
"676 83 OFFCURVE",
"653 81 OFFCURVE",
"618 81 CURVE SMOOTH",
"212 81 LINE SMOOTH",
"163 81 OFFCURVE",
"130 97 OFFCURVE",
"107 109 CURVE SMOOTH",
"94 116 OFFCURVE",
"83 121 OFFCURVE",
"74 121 CURVE SMOOTH",
"54 121 OFFCURVE",
"44 103 OFFCURVE",
"44 79 CURVE SMOOTH",
"44 38 OFFCURVE",
"72 0 OFFCURVE",
"139 0 CURVE SMOOTH"
);
}
);
width = 828;
}
);
unicode = 10AD4;
},
{
glyphname = u10AD5;
lastChange = "2018-03-14 14:29:06 +0000";
layers = (
{
layerId = UUID0;
paths = (
{
closed = 1;
nodes = (
"659 0 LINE SMOOTH",
"733 0 OFFCURVE",
"779 0 OFFCURVE",
"779 48 CURVE SMOOTH",
"779 85 OFFCURVE",
"740 185 OFFCURVE",
"718 234 CURVE SMOOTH",
"690 296 OFFCURVE",
"649 392 OFFCURVE",
"649 412 CURVE SMOOTH",
"649 425 OFFCURVE",
"654 436 OFFCURVE",
"660 445 CURVE SMOOTH",
"666 454 OFFCURVE",
"668 463 OFFCURVE",
"668 473 CURVE SMOOTH",
"668 507 OFFCURVE",
"606 522 OFFCURVE",
"569 522 CURVE SMOOTH",
"540 522 OFFCURVE",
"524 514 OFFCURVE",
"524 495 CURVE SMOOTH",
"524 471 OFFCURVE",
"578 348 OFFCURVE",
"613 271 CURVE SMOOTH",
"650 189 OFFCURVE",
"676 125 OFFCURVE",
"676 104 CURVE SMOOTH",
"676 83 OFFCURVE",
"653 81 OFFCURVE",
"618 81 CURVE SMOOTH",
"212 81 LINE SMOOTH",
"163 81 OFFCURVE",
"130 97 OFFCURVE",
"107 109 CURVE SMOOTH",
"94 116 OFFCURVE",
"83 121 OFFCURVE",
"74 121 CURVE SMOOTH",
"54 121 OFFCURVE",
"44 103 OFFCURVE",
"44 79 CURVE SMOOTH",
"44 38 OFFCURVE",
"72 0 OFFCURVE",
"139 0 CURVE SMOOTH"
);
},
{
closed = 1;
nodes = (
"582 68 LINE",
"513 224 LINE SMOOTH",
"486 285 OFFCURVE",
"444 382 OFFCURVE",
"444 402 CURVE SMOOTH",
"444 415 OFFCURVE",
"449 426 OFFCURVE",
"455 436 CURVE SMOOTH",
"460 444 OFFCURVE",
"463 453 OFFCURVE",
"463 463 CURVE SMOOTH",
"463 497 OFFCURVE",
"401 513 OFFCURVE",
"364 513 CURVE SMOOTH",
"335 513 OFFCURVE",
"319 504 OFFCURVE",
"319 485 CURVE SMOOTH",
"319 461 OFFCURVE",
"372 336 OFFCURVE",
"406 257 CURVE SMOOTH",
"487 68 LINE"
);
}
);
width = 828;
}
);
unicode = 10AD5;
},
{
glyphname = u10AD6;
lastChange = "2018-03-14 14:29:06 +0000";
layers = (
{
layerId = UUID0;
paths = (
{
closed = 1;
nodes = (
"402 -10 OFFCURVE",
"468 47 OFFCURVE",
"497 102 CURVE",
"548 32 OFFCURVE",
"621 -10 OFFCURVE",
"736 -10 CURVE SMOOTH",
"927 -10 OFFCURVE",
"950 85 OFFCURVE",
"950 148 CURVE SMOOTH",
"950 188 OFFCURVE",
"934 247 OFFCURVE",
"900 291 CURVE",
"906 296 LINE SMOOTH",
"915 304 OFFCURVE",
"934 322 OFFCURVE",
"934 348 CURVE SMOOTH",
"934 369 OFFCURVE",
"920 391 OFFCURVE",
"887 391 CURVE SMOOTH",
"861 391 OFFCURVE",
"843 376 OFFCURVE",
"821 359 CURVE SMOOTH",
"786 332 OFFCURVE",
"740 298 OFFCURVE",
"646 298 CURVE SMOOTH",
"556 298 OFFCURVE",
"510 335 OFFCURVE",
"478 365 CURVE SMOOTH",
"457 384 OFFCURVE",
"439 400 OFFCURVE",
"413 400 CURVE SMOOTH",
"379 400 OFFCURVE",
"366 378 OFFCURVE",
"366 358 CURVE SMOOTH",
"366 336 OFFCURVE",
"379 315 OFFCURVE",
"406 287 CURVE",
"419 265 OFFCURVE",
"428 229 OFFCURVE",
"428 199 CURVE SMOOTH",
"428 127 OFFCURVE",
"376 78 OFFCURVE",
"276 78 CURVE SMOOTH",
"187 78 OFFCURVE",
"134 117 OFFCURVE",
"134 199 CURVE SMOOTH",
"134 255 OFFCURVE",
"161 294 OFFCURVE",
"174 312 CURVE SMOOTH",
"184 326 OFFCURVE",
"192 338 OFFCURVE",
"192 350 CURVE SMOOTH",
"192 380 OFFCURVE",
"147 396 OFFCURVE",
"125 396 CURVE SMOOTH",
"86 396 OFFCURVE",
"44 302 OFFCURVE",
"44 208 CURVE SMOOTH",
"44 98 OFFCURVE",
"103 -10 OFFCURVE",
"275 -10 CURVE SMOOTH"
);
},
{
closed = 1;
nodes = (
"648 78 OFFCURVE",
"563 114 OFFCURVE",
"502 264 CURVE",
"497 240 LINE",
"535 227 OFFCURVE",
"590 215 OFFCURVE",
"659 215 CURVE SMOOTH",
"729 215 OFFCURVE",
"788 229 OFFCURVE",
"846 256 CURVE",
"810 265 LINE",
"839 239 OFFCURVE",
"860 187 OFFCURVE",
"860 157 CURVE SMOOTH",
"860 118 OFFCURVE",
"850 78 OFFCURVE",
"740 78 CURVE SMOOTH"
);
}
);
width = 994;
}
);
unicode = 10AD6;
},
{
glyphname = u10AD7;
lastChange = "2018-03-14 14:29:06 +0000";
layers = (
{
layerId = UUID0;
paths = (
{
closed = 1;
nodes = (
"281 -166 OFFCURVE",
"312 -129 OFFCURVE",
"312 -71 CURVE SMOOTH",
"312 -12 OFFCURVE",
"281 22 OFFCURVE",
"244 61 CURVE SMOOTH",
"214 92 OFFCURVE",
"201 110 OFFCURVE",
"201 136 CURVE SMOOTH",
"201 176 OFFCURVE",
"227 194 OFFCURVE",
"253 211 CURVE SMOOTH",
"270 222 OFFCURVE",
"284 231 OFFCURVE",
"284 247 CURVE SMOOTH",
"284 274 OFFCURVE",
"235 318 OFFCURVE",
"169 318 CURVE SMOOTH",
"104 318 OFFCURVE",
"68 275 OFFCURVE",
"68 203 CURVE SMOOTH",
"68 135 OFFCURVE",
"96 103 OFFCURVE",
"140 65 CURVE SMOOTH",
"172 37 OFFCURVE",
"196 16 OFFCURVE",
"196 -19 CURVE SMOOTH",
"196 -46 OFFCURVE",
"180 -62 OFFCURVE",
"168 -72 CURVE SMOOTH",
"153 -85 OFFCURVE",
"148 -92 OFFCURVE",
"148 -106 CURVE SMOOTH",
"148 -147 OFFCURVE",
"198 -166 OFFCURVE",
"232 -166 CURVE SMOOTH"
);
}
);
width = 380;
}
);
unicode = 10AD7;
},
{
glyphname = u10AD8;
lastChange = "2018-03-14 14:29:06 +0000";
layers = (
{
layerId = UUID0;
paths = (
{
closed = 1;
nodes = (
"1118 0 LINE SMOOTH",
"1144 0 OFFCURVE",
"1157 9 OFFCURVE",
"1157 29 CURVE SMOOTH",
"1157 39 OFFCURVE",
"1153 52 OFFCURVE",
"1146 69 CURVE SMOOTH",
"1098 189 OFFCURVE",
"1040 283 OFFCURVE",
"922 283 CURVE SMOOTH",
"866 283 OFFCURVE",
"818 262 OFFCURVE",
"792 232 CURVE",
"749 295 OFFCURVE",
"691 340 OFFCURVE",
"615 340 CURVE SMOOTH",
"527 340 OFFCURVE",
"482 279 OFFCURVE",
"482 216 CURVE SMOOTH",
"482 164 OFFCURVE",
"508 114 OFFCURVE",
"553 81 CURVE",
"219 81 LINE SMOOTH",
"191 81 OFFCURVE",
"174 93 OFFCURVE",
"158 105 CURVE SMOOTH",
"141 118 OFFCURVE",
"124 129 OFFCURVE",
"98 129 CURVE SMOOTH",
"64 129 OFFCURVE",
"44 107 OFFCURVE",
"44 72 CURVE SMOOTH",
"44 29 OFFCURVE",
"80 0 OFFCURVE",
"146 0 CURVE SMOOTH"
);
},
{
closed = 1;
nodes = (
"670 81 OFFCURVE",
"573 143 OFFCURVE",
"573 210 CURVE SMOOTH",
"573 238 OFFCURVE",
"588 253 OFFCURVE",
"616 253 CURVE SMOOTH",
"678 253 OFFCURVE",
"758 144 OFFCURVE",
"763 81 CURVE"
);
},
{
closed = 1;
nodes = (
"933 82 OFFCURVE",
"849 93 OFFCURVE",
"849 146 CURVE SMOOTH",
"849 176 OFFCURVE",
"875 196 OFFCURVE",
"918 196 CURVE SMOOTH",
"990 196 OFFCURVE",
"1027 121 OFFCURVE",
"1035 82 CURVE"
);
}
);
width = 1201;
}
);
unicode = 10AD8;
},
{
glyphname = u10AD9;
lastChange = "2018-03-14 14:29:06 +0000";
layers = (
{
layerId = UUID0;
paths = (
{
closed = 1;
nodes = (
"907 -24 OFFCURVE",
"920 -10 OFFCURVE",
"920 16 CURVE SMOOTH",
"920 56 OFFCURVE",
"868 87 OFFCURVE",
"791 126 CURVE SMOOTH",
"649 199 LINE SMOOTH",
"583 233 OFFCURVE",
"542 256 OFFCURVE",
"542 280 CURVE SMOOTH",
"542 290 OFFCURVE",
"549 296 OFFCURVE",
"557 302 CURVE SMOOTH",
"568 310 OFFCURVE",
"573 315 OFFCURVE",
"573 327 CURVE SMOOTH",
"573 356 OFFCURVE",
"501 396 OFFCURVE",
"457 396 CURVE SMOOTH",
"392 396 OFFCURVE",
"387 347 OFFCURVE",
"387 331 CURVE SMOOTH",
"387 256 OFFCURVE",
"489 177 OFFCURVE",
"713 81 CURVE",
"219 81 LINE SMOOTH",
"191 81 OFFCURVE",
"173 93 OFFCURVE",
"156 106 CURVE SMOOTH",
"140 119 OFFCURVE",
"124 129 OFFCURVE",
"98 129 CURVE SMOOTH",
"64 129 OFFCURVE",
"44 107 OFFCURVE",
"44 72 CURVE SMOOTH",
"44 29 OFFCURVE",
"80 0 OFFCURVE",
"146 0 CURVE SMOOTH",
"828 0 LINE",
"845 -15 OFFCURVE",
"858 -24 OFFCURVE",
"882 -24 CURVE SMOOTH"
);
}
);
width = 964;
}
);
unicode = 10AD9;
},
{
glyphname = u10ADB;
lastChange = "2018-03-14 14:29:06 +0000";
layers = (
{
layerId = UUID0;
paths = (
{
closed = 1;
nodes = (
"839 0 LINE SMOOTH",
"864 0 OFFCURVE",
"878 9 OFFCURVE",
"878 29 CURVE SMOOTH",
"878 41 OFFCURVE",
"873 54 OFFCURVE",
"864 76 CURVE SMOOTH",
"812 205 OFFCURVE",
"745 340 OFFCURVE",
"615 340 CURVE SMOOTH",
"527 340 OFFCURVE",
"482 279 OFFCURVE",
"482 216 CURVE SMOOTH",
"482 161 OFFCURVE",
"508 114 OFFCURVE",
"553 81 CURVE",
"219 81 LINE SMOOTH",
"191 81 OFFCURVE",
"174 93 OFFCURVE",
"158 105 CURVE SMOOTH",
"141 118 OFFCURVE",
"124 129 OFFCURVE",
"98 129 CURVE SMOOTH",
"64 129 OFFCURVE",
"44 107 OFFCURVE",
"44 72 CURVE SMOOTH",
"44 29 OFFCURVE",
"80 0 OFFCURVE",
"146 0 CURVE SMOOTH"
);
},
{
closed = 1;
nodes = (
"670 81 OFFCURVE",
"573 141 OFFCURVE",
"573 206 CURVE SMOOTH",
"573 238 OFFCURVE",
"589 253 OFFCURVE",
"619 253 CURVE SMOOTH",
"683 253 OFFCURVE",
"763 141 OFFCURVE",
"763 81 CURVE"
);
}
);
width = 922;
}
);
unicode = 10ADB;
},
{
glyphname = u10ADD;
lastChange = "2018-03-14 14:29:06 +0000";
layers = (
{
layerId = UUID0;
paths = (
{
closed = 1;
nodes = (
"455 -225 OFFCURVE",
"514 -95 OFFCURVE",
"514 10 CURVE SMOOTH",
"514 72 OFFCURVE",
"495 159 OFFCURVE",
"446 224 CURVE",
"436 210 LINE",
"507 194 OFFCURVE",
"571 191 OFFCURVE",
"645 189 CURVE",
"681 67 OFFCURVE",
"737 -10 OFFCURVE",
"798 -10 CURVE SMOOTH",
"817 -10 OFFCURVE",
"857 -2 OFFCURVE",
"857 42 CURVE SMOOTH",
"857 78 OFFCURVE",
"831 99 OFFCURVE",
"801 121 CURVE SMOOTH",
"764 149 OFFCURVE",
"718 185 OFFCURVE",
"718 264 CURVE SMOOTH",
"718 298 OFFCURVE",
"727 322 OFFCURVE",
"735 342 CURVE SMOOTH",
"741 357 OFFCURVE",
"745 372 OFFCURVE",
"745 386 CURVE SMOOTH",
"745 423 OFFCURVE",
"715 439 OFFCURVE",
"686 439 CURVE SMOOTH",
"642 439 OFFCURVE",
"621 402 OFFCURVE",
"621 343 CURVE SMOOTH",
"621 325 OFFCURVE",
"623 295 OFFCURVE",
"626 276 CURVE",
"398 286 OFFCURVE",
"337 350 OFFCURVE",
"295 395 CURVE SMOOTH",
"272 420 OFFCURVE",
"253 438 OFFCURVE",
"218 438 CURVE SMOOTH",
"184 438 OFFCURVE",
"155 420 OFFCURVE",
"155 380 CURVE SMOOTH",
"155 325 OFFCURVE",
"212 285 OFFCURVE",
"296 252 CURVE",
"371 210 OFFCURVE",
"423 85 OFFCURVE",
"423 4 CURVE SMOOTH",
"423 -66 OFFCURVE",
"386 -140 OFFCURVE",
"275 -140 CURVE SMOOTH",
"185 -140 OFFCURVE",
"134 -90 OFFCURVE",
"134 -34 CURVE SMOOTH",
"134 -9 OFFCURVE",
"145 1 OFFCURVE",
"152 7 CURVE SMOOTH",
"160 13 OFFCURVE",
"166 20 OFFCURVE",
"166 33 CURVE SMOOTH",
"166 56 OFFCURVE",
"145 96 OFFCURVE",
"104 96 CURVE SMOOTH",
"64 96 OFFCURVE",
"44 59 OFFCURVE",
"44 -4 CURVE SMOOTH",
"44 -106 OFFCURVE",
"98 -225 OFFCURVE",
"271 -225 CURVE SMOOTH"
);
}
);
width = 901;
}
);
unicode = 10ADD;
},
{
glyphname = u10ADE;
lastChange = "2018-03-14 14:29:06 +0000";
layers = (
{
layerId = UUID0;
paths = (
{
closed = 1;
nodes = (
"460 -10 OFFCURVE",
"521 108 OFFCURVE",
"521 193 CURVE SMOOTH",
"521 218 OFFCURVE",
"515 256 OFFCURVE",
"497 288 CURVE",
"485 273 LINE",
"551 244 OFFCURVE",
"632 235 OFFCURVE",
"701 235 CURVE SMOOTH",
"768 235 OFFCURVE",
"880 244 OFFCURVE",
"961 271 CURVE",
"988 219 OFFCURVE",
"1023 130 OFFCURVE",
"1023 108 CURVE SMOOTH",
"1023 86 OFFCURVE",
"1000 81 OFFCURVE",
"965 81 CURVE SMOOTH",
"751 81 LINE SMOOTH",
"722 81 OFFCURVE",
"691 86 OFFCURVE",
"659 104 CURVE SMOOTH",
"638 116 OFFCURVE",
"626 121 OFFCURVE",
"615 121 CURVE SMOOTH",
"593 121 OFFCURVE",
"583 103 OFFCURVE",
"583 79 CURVE SMOOTH",
"583 38 OFFCURVE",
"611 0 OFFCURVE",
"678 0 CURVE SMOOTH",
"987 0 LINE SMOOTH",
"1073 0 OFFCURVE",
"1125 7 OFFCURVE",
"1125 61 CURVE SMOOTH",
"1125 94 OFFCURVE",
"1101 156 OFFCURVE",
"1077 210 CURVE SMOOTH",
"1063 242 OFFCURVE",
"1048 278 OFFCURVE",
"1040 308 CURVE",
"1051 320 OFFCURVE",
"1058 333 OFFCURVE",
"1058 348 CURVE SMOOTH",
"1058 370 OFFCURVE",
"1044 391 OFFCURVE",
"1010 391 CURVE SMOOTH",
"991 391 OFFCURVE",
"974 381 OFFCURVE",
"956 370 CURVE SMOOTH",
"925 351 OFFCURVE",
"860 316 OFFCURVE",
"711 316 CURVE SMOOTH",
"585 316 OFFCURVE",
"539 338 OFFCURVE",
"485 375 CURVE SMOOTH",
"460 392 OFFCURVE",
"437 405 OFFCURVE",
"411 405 CURVE SMOOTH",
"384 405 OFFCURVE",
"368 389 OFFCURVE",
"368 366 CURVE SMOOTH",
"368 344 OFFCURVE",
"382 323 OFFCURVE",
"401 301 CURVE",
"420 263 OFFCURVE",
"430 224 OFFCURVE",
"430 193 CURVE SMOOTH",
"430 126 OFFCURVE",
"384 78 OFFCURVE",
"281 78 CURVE SMOOTH",
"186 78 OFFCURVE",
"136 119 OFFCURVE",
"136 197 CURVE SMOOTH",
"136 251 OFFCURVE",
"158 288 OFFCURVE",
"176 311 CURVE SMOOTH",
"184 321 OFFCURVE",
"194 336 OFFCURVE",
"194 350 CURVE SMOOTH",
"194 380 OFFCURVE",
"144 396 OFFCURVE",
"127 396 CURVE SMOOTH",
"88 396 OFFCURVE",
"44 303 OFFCURVE",
"44 207 CURVE SMOOTH",
"44 92 OFFCURVE",
"107 -10 OFFCURVE",
"278 -10 CURVE SMOOTH"
);
}
);
width = 1169;
}
);
unicode = 10ADE;
},
{
glyphname = u10AE2;
lastChange = "2018-03-14 14:29:06 +0000";
layers = (
{
layerId = UUID0;
paths = (
{
closed = 1;
nodes = (
"395 -10 OFFCURVE",
"461 43 OFFCURVE",
"489 88 CURVE",
"521 39 OFFCURVE",
"586 -10 OFFCURVE",
"700 -10 CURVE SMOOTH",
"871 -10 OFFCURVE",
"929 103 OFFCURVE",
"929 202 CURVE SMOOTH",
"929 303 OFFCURVE",
"869 439 OFFCURVE",
"760 439 CURVE SMOOTH",
"716 439 OFFCURVE",
"695 412 OFFCURVE",
"695 376 CURVE SMOOTH",
"695 334 OFFCURVE",
"724 324 OFFCURVE",
"757 313 CURVE SMOOTH",
"793 301 OFFCURVE",
"838 279 OFFCURVE",
"838 198 CURVE SMOOTH",
"838 117 OFFCURVE",
"786 78 OFFCURVE",
"703 78 CURVE SMOOTH",
"577 78 OFFCURVE",
"552 169 OFFCURVE",
"511 313 CURVE SMOOTH",
"504 336 OFFCURVE",
"494 365 OFFCURVE",
"463 365 CURVE SMOOTH",
"432 365 OFFCURVE",
"402 334 OFFCURVE",
"402 302 CURVE SMOOTH",
"402 291 OFFCURVE",
"406 280 OFFCURVE",
"411 268 CURVE SMOOTH",
"417 254 OFFCURVE",
"428 227 OFFCURVE",
"428 196 CURVE SMOOTH",
"428 126 OFFCURVE",
"372 78 OFFCURVE",
"279 78 CURVE SMOOTH",
"184 78 OFFCURVE",
"134 130 OFFCURVE",
"134 218 CURVE SMOOTH",
"134 297 OFFCURVE",
"165 326 OFFCURVE",
"192 342 CURVE SMOOTH",
"211 353 OFFCURVE",
"225 362 OFFCURVE",
"225 379 CURVE SMOOTH",
"225 403 OFFCURVE",
"195 439 OFFCURVE",
"167 439 CURVE SMOOTH",
"114 439 OFFCURVE",
"44 332 OFFCURVE",
"44 213 CURVE SMOOTH",
"44 105 OFFCURVE",
"102 -10 OFFCURVE",
"276 -10 CURVE SMOOTH"
);
}
);
width = 973;
}
);
unicode = 10AE2;
},
{
glyphname = u10AE4;
lastChange = "2018-03-14 14:29:06 +0000";
layers = (
{
layerId = UUID0;
paths = (
{
closed = 1;
nodes = (
"328 -10 OFFCURVE",
"329 23 OFFCURVE",
"329 35 CURVE SMOOTH",
"329 67 OFFCURVE",
"325 83 OFFCURVE",
"312 119 CURVE",
"340 149 OFFCURVE",
"366 174 OFFCURVE",
"391 174 CURVE SMOOTH",
"416 174 OFFCURVE",
"427 152 OFFCURVE",
"458 87 CURVE SMOOTH",
"488 23 OFFCURVE",
"517 -10 OFFCURVE",
"577 -10 CURVE SMOOTH",
"611 -10 OFFCURVE",
"633 1 OFFCURVE",
"633 23 CURVE SMOOTH",
"633 37 OFFCURVE",
"625 40 OFFCURVE",
"614 45 CURVE SMOOTH",
"575 63 OFFCURVE",
"551 80 OFFCURVE",
"510 173 CURVE SMOOTH",
"487 225 OFFCURVE",
"460 285 OFFCURVE",
"410 285 CURVE SMOOTH",
"370 285 OFFCURVE",
"336 251 OFFCURVE",
"278 189 CURVE",
"259 234 LINE SMOOTH",
"234 292 OFFCURVE",
"188 399 OFFCURVE",
"188 418 CURVE SMOOTH",
"188 425 OFFCURVE",
"195 438 OFFCURVE",
"198 442 CURVE SMOOTH",
"203 452 OFFCURVE",
"208 463 OFFCURVE",
"208 473 CURVE SMOOTH",
"208 507 OFFCURVE",
"146 522 OFFCURVE",
"107 522 CURVE SMOOTH",
"79 522 OFFCURVE",
"63 514 OFFCURVE",
"63 500 CURVE SMOOTH",
"63 488 OFFCURVE",
"72 467 OFFCURVE",
"93 418 CURVE SMOOTH",
"185 206 LINE SMOOTH",
"198 176 OFFCURVE",
"214 139 OFFCURVE",
"214 119 CURVE SMOOTH",
"214 101 OFFCURVE",
"202 85 OFFCURVE",
"194 77 CURVE SMOOTH",
"182 64 OFFCURVE",
"175 53 OFFCURVE",
"175 42 CURVE SMOOTH",
"175 4 OFFCURVE",
"255 -10 OFFCURVE",
"283 -10 CURVE SMOOTH"
);
}
);
width = 677;
}
);
unicode = 10AE4;
},
{
glyphname = u10AE5;
lastChange = "2018-03-14 14:29:06 +0000";
layers = (
{
layerId = UUID0;
paths = (
{
closed = 1;
nodes = (
"-25 625 OFFCURVE",
"0 661 OFFCURVE",
"0 705 CURVE SMOOTH",
"0 749 OFFCURVE",
"-47 785 OFFCURVE",
"-91 785 CURVE SMOOTH",
"-135 785 OFFCURVE",
"-160 749 OFFCURVE",
"-160 705 CURVE SMOOTH",
"-160 661 OFFCURVE",
"-113 625 OFFCURVE",
"-69 625 CURVE SMOOTH"
);
},
{
closed = 1;
nodes = (
"-270 625 OFFCURVE",
"-244 661 OFFCURVE",
"-244 705 CURVE SMOOTH",
"-244 749 OFFCURVE",
"-291 785 OFFCURVE",
"-335 785 CURVE SMOOTH",
"-379 785 OFFCURVE",
"-404 749 OFFCURVE",
"-404 705 CURVE SMOOTH",
"-404 661 OFFCURVE",
"-357 625 OFFCURVE",
"-313 625 CURVE SMOOTH"
);
}
);
width = 0;
}
);
unicode = 10AE5;
},
{
glyphname = u10AE6;
lastChange = "2018-03-14 14:29:06 +0000";
layers = (
{
layerId = UUID0;
paths = (
{
closed = 1;
nodes = (
"-25 -219 OFFCURVE",
"0 -183 OFFCURVE",
"0 -139 CURVE SMOOTH",
"0 -95 OFFCURVE",
"-47 -59 OFFCURVE",
"-91 -59 CURVE SMOOTH",
"-135 -59 OFFCURVE",
"-160 -95 OFFCURVE",
"-160 -139 CURVE SMOOTH",
"-160 -183 OFFCURVE",
"-113 -219 OFFCURVE",
"-69 -219 CURVE SMOOTH"
);
},
{
closed = 1;
nodes = (
"-270 -219 OFFCURVE",
"-244 -183 OFFCURVE",
"-244 -139 CURVE SMOOTH",
"-244 -95 OFFCURVE",
"-291 -59 OFFCURVE",
"-335 -59 CURVE SMOOTH",
"-379 -59 OFFCURVE",
"-404 -95 OFFCURVE",
"-404 -139 CURVE SMOOTH",
"-404 -183 OFFCURVE",
"-357 -219 OFFCURVE",
"-313 -219 CURVE SMOOTH"
);
}
);
width = 0;
}
);
unicode = 10AE6;
},
{
glyphname = u10AEB;
lastChange = "2018-03-14 14:29:06 +0000";
layers = (
{
layerId = UUID0;
paths = (
{
closed = 1;
nodes = (
"201 -273 OFFCURVE",
"225 -239 OFFCURVE",
"225 -177 CURVE SMOOTH",
"225 -122 OFFCURVE",
"212 301 OFFCURVE",
"206 346 CURVE SMOOTH",
"201 380 OFFCURVE",
"186 391 OFFCURVE",
"159 391 CURVE SMOOTH",
"123 391 OFFCURVE",
"108 372 OFFCURVE",
"108 343 CURVE SMOOTH",
"108 329 OFFCURVE",
"112 303 OFFCURVE",
"117 271 CURVE SMOOTH",
"127 205 OFFCURVE",
"138 118 OFFCURVE",
"138 25 CURVE SMOOTH",
"138 -26 OFFCURVE",
"138 -70 OFFCURVE",
"133 -106 CURVE",
"109 -153 OFFCURVE",
"100 -179 OFFCURVE",
"100 -213 CURVE SMOOTH",
"100 -254 OFFCURVE",
"124 -273 OFFCURVE",
"155 -273 CURVE SMOOTH"
);
}
);
width = 323;
}
);
unicode = 10AEB;
},
{
glyphname = u10AEC;
lastChange = "2018-03-14 14:29:06 +0000";
layers = (
{
layerId = UUID0;
paths = (
{
closed = 1;
nodes = (
"785 -24 OFFCURVE",
"798 -10 OFFCURVE",
"798 16 CURVE SMOOTH",
"798 47 OFFCURVE",
"771 71 OFFCURVE",
"725 95 CURVE SMOOTH",
"488 221 LINE SMOOTH",
"445 244 OFFCURVE",
"420 263 OFFCURVE",
"420 284 CURVE SMOOTH",
"420 293 OFFCURVE",
"426 298 OFFCURVE",
"434 302 CURVE SMOOTH",
"442 306 OFFCURVE",
"451 311 OFFCURVE",
"451 323 CURVE SMOOTH",
"451 347 OFFCURVE",
"387 396 OFFCURVE",
"330 396 CURVE SMOOTH",
"292 396 OFFCURVE",
"275 369 OFFCURVE",
"275 331 CURVE SMOOTH",
"275 256 OFFCURVE",
"369 177 OFFCURVE",
"576 81 CURVE",
"249 81 LINE SMOOTH",
"208 81 OFFCURVE",
"187 85 OFFCURVE",
"157 106 CURVE SMOOTH",
"140 118 OFFCURVE",
"123 129 OFFCURVE",
"98 129 CURVE SMOOTH",
"64 129 OFFCURVE",
"44 107 OFFCURVE",
"44 72 CURVE SMOOTH",
"44 29 OFFCURVE",
"80 0 OFFCURVE",
"146 0 CURVE SMOOTH",
"706 0 LINE",
"723 -15 OFFCURVE",
"737 -24 OFFCURVE",
"762 -24 CURVE SMOOTH"
);
}
);
width = 842;
}
);
unicode = 10AEC;
},
{
glyphname = u10AED;
lastChange = "2018-03-14 14:29:06 +0000";
layers = (
{
layerId = UUID0;
paths = (
{
closed = 1;
nodes = (
"294 -273 OFFCURVE",
"320 -264 OFFCURVE",
"320 -217 CURVE SMOOTH",
"320 -163 OFFCURVE",
"311 -117 OFFCURVE",
"301 -66 CURVE SMOOTH",
"288 -1 OFFCURVE",
"274 72 OFFCURVE",
"274 160 CURVE SMOOTH",
"274 181 OFFCURVE",
"274 201 OFFCURVE",
"275 217 CURVE",
"466 217 LINE",
"489 174 OFFCURVE",
"509 124 OFFCURVE",
"509 85 CURVE SMOOTH",
"509 74 OFFCURVE",
"508 63 OFFCURVE",
"505 52 CURVE SMOOTH",
"501 39 OFFCURVE",
"500 31 OFFCURVE",
"500 15 CURVE SMOOTH",
"500 -16 OFFCURVE",
"524 -32 OFFCURVE",
"561 -32 CURVE SMOOTH",
"592 -32 OFFCURVE",
"618 -18 OFFCURVE",
"618 18 CURVE SMOOTH",
"618 43 OFFCURVE",
"605 77 OFFCURVE",
"592 105 CURVE SMOOTH",
"579 133 OFFCURVE",
"568 162 OFFCURVE",
"568 186 CURVE SMOOTH",
"568 202 OFFCURVE",
"571 221 OFFCURVE",
"575 237 CURVE SMOOTH",
"577 247 OFFCURVE",
"578 257 OFFCURVE",
"578 263 CURVE SMOOTH",
"578 302 OFFCURVE",
"545 314 OFFCURVE",
"521 314 CURVE SMOOTH",
"499 314 OFFCURVE",
"482 308 OFFCURVE",
"472 298 CURVE",
"249 298 LINE SMOOTH",
"189 298 OFFCURVE",
"163 314 OFFCURVE",
"142 327 CURVE SMOOTH",
"127 336 OFFCURVE",
"118 341 OFFCURVE",
"95 341 CURVE SMOOTH",
"63 341 OFFCURVE",
"44 322 OFFCURVE",
"44 286 CURVE SMOOTH",
"44 248 OFFCURVE",
"82 217 OFFCURVE",
"148 217 CURVE SMOOTH",
"173 217 LINE",
"174 152 OFFCURVE",
"181 96 OFFCURVE",
"190 36 CURVE SMOOTH",
"201 -34 OFFCURVE",
"212 -106 OFFCURVE",
"212 -200 CURVE SMOOTH",
"212 -253 OFFCURVE",
"229 -273 OFFCURVE",
"267 -273 CURVE SMOOTH"
);
}
);
width = 677;
}
);
unicode = 10AED;
},
{
glyphname = u10AEE;
lastChange = "2018-03-14 14:29:06 +0000";
layers = (
{
layerId = UUID0;
paths = (
{
closed = 1;
nodes = (
"741 0 LINE SMOOTH",
"767 0 OFFCURVE",
"780 9 OFFCURVE",
"780 29 CURVE SMOOTH",
"780 42 OFFCURVE",
"775 58 OFFCURVE",
"767 81 CURVE SMOOTH",
"721 208 OFFCURVE",
"647 340 OFFCURVE",
"518 340 CURVE SMOOTH",
"429 340 OFFCURVE",
"385 279 OFFCURVE",
"385 216 CURVE SMOOTH",
"385 164 OFFCURVE",
"410 114 OFFCURVE",
"475 81 CURVE",
"220 81 LINE SMOOTH",
"192 81 OFFCURVE",
"174 93 OFFCURVE",
"157 105 CURVE SMOOTH",
"141 117 OFFCURVE",
"124 129 OFFCURVE",
"98 129 CURVE SMOOTH",
"64 129 OFFCURVE",
"44 107 OFFCURVE",
"44 72 CURVE SMOOTH",
"44 29 OFFCURVE",
"80 0 OFFCURVE",
"146 0 CURVE SMOOTH"
);
},
{
closed = 1;
nodes = (
"572 81 OFFCURVE",
"476 141 OFFCURVE",
"476 206 CURVE SMOOTH",
"476 238 OFFCURVE",
"491 253 OFFCURVE",
"518 253 CURVE SMOOTH",
"585 253 OFFCURVE",
"666 141 OFFCURVE",
"666 81 CURVE"
);
}
);
width = 824;
}
);
unicode = 10AEE;
},
{
glyphname = u10AEF;
lastChange = "2018-03-14 14:29:06 +0000";
layers = (
{
layerId = UUID0;
paths = (
{
closed = 1;
nodes = (
"221 -273 OFFCURVE",
"241 -259 OFFCURVE",
"241 -195 CURVE SMOOTH",
"241 -156 OFFCURVE",
"233 -48 OFFCURVE",
"221 57 CURVE",
"265 17 OFFCURVE",
"324 -10 OFFCURVE",
"405 -10 CURVE SMOOTH",
"553 -10 OFFCURVE",
"587 81 OFFCURVE",
"587 150 CURVE SMOOTH",
"587 198 OFFCURVE",
"571 246 OFFCURVE",
"548 280 CURVE",
"561 293 OFFCURVE",
"567 307 OFFCURVE",
"567 322 CURVE SMOOTH",
"567 344 OFFCURVE",
"554 366 OFFCURVE",
"520 366 CURVE SMOOTH",
"494 366 OFFCURVE",
"482 354 OFFCURVE",
"466 338 CURVE SMOOTH",
"443 316 OFFCURVE",
"413 288 OFFCURVE",
"326 288 CURVE SMOOTH",
"243 288 OFFCURVE",
"201 318 OFFCURVE",
"170 344 CURVE SMOOTH",
"150 361 OFFCURVE",
"132 376 OFFCURVE",
"105 376 CURVE SMOOTH",
"73 376 OFFCURVE",
"59 355 OFFCURVE",
"59 332 CURVE SMOOTH",
"59 310 OFFCURVE",
"72 289 OFFCURVE",
"93 271 CURVE",
"125 182 OFFCURVE",
"134 100 OFFCURVE",
"134 28 CURVE SMOOTH",
"134 -16 OFFCURVE",
"133 -73 OFFCURVE",
"129 -123 CURVE SMOOTH",
"126 -159 OFFCURVE",
"125 -190 OFFCURVE",
"125 -205 CURVE SMOOTH",
"125 -251 OFFCURVE",
"140 -273 OFFCURVE",
"185 -273 CURVE SMOOTH"
);
},
{
closed = 1;
nodes = (
"328 78 OFFCURVE",
"248 112 OFFCURVE",
"197 227 CURVE",
"240 213 OFFCURVE",
"280 203 OFFCURVE",
"328 203 CURVE SMOOTH",
"383 203 OFFCURVE",
"434 213 OFFCURVE",
"473 230 CURVE",
"488 201 OFFCURVE",
"497 176 OFFCURVE",
"497 148 CURVE SMOOTH",
"497 111 OFFCURVE",
"480 78 OFFCURVE",
"401 78 CURVE SMOOTH"
);
}
);
width = 631;
}
);
unicode = 10AEF;
},
{
glyphname = u10AF0;
lastChange = "2018-03-14 14:29:06 +0000";
layers = (
{
layerId = UUID0;
paths = (
{
closed = 1;
nodes = (
"386 384 OFFCURVE",
"394 390 OFFCURVE",
"403 397 CURVE SMOOTH",
"414 406 OFFCURVE",
"426 414 OFFCURVE",
"443 414 CURVE SMOOTH",
"460 414 OFFCURVE",
"473 406 OFFCURVE",
"484 397 CURVE SMOOTH",
"493 390 OFFCURVE",
"502 384 OFFCURVE",
"512 384 CURVE SMOOTH",
"536 384 OFFCURVE",
"551 404 OFFCURVE",
"551 419 CURVE SMOOTH",
"551 446 OFFCURVE",
"515 471 OFFCURVE",
"473 479 CURVE",
"473 665 LINE SMOOTH",
"473 681 OFFCURVE",
"457 690 OFFCURVE",
"442 690 CURVE SMOOTH",
"427 690 OFFCURVE",
"414 682 OFFCURVE",
"414 665 CURVE SMOOTH",
"414 479 LINE",
"374 473 OFFCURVE",
"337 449 OFFCURVE",
"337 419 CURVE SMOOTH",
"337 407 OFFCURVE",
"348 384 OFFCURVE",
"375 384 CURVE SMOOTH"
);
},
{
closed = 1;
nodes = (
"308 167 OFFCURVE",
"330 178 OFFCURVE",
"330 206 CURVE SMOOTH",
"330 219 OFFCURVE",
"323 224 OFFCURVE",
"317 232 CURVE SMOOTH",
"306 247 OFFCURVE",
"300 262 OFFCURVE",
"300 274 CURVE SMOOTH",
"300 292 OFFCURVE",
"308 304 OFFCURVE",
"317 315 CURVE SMOOTH",
"324 324 OFFCURVE",
"330 333 OFFCURVE",
"330 343 CURVE SMOOTH",
"330 366 OFFCURVE",
"310 381 OFFCURVE",
"295 381 CURVE SMOOTH",
"268 381 OFFCURVE",
"244 345 OFFCURVE",
"235 303 CURVE",
"49 303 LINE SMOOTH",
"34 303 OFFCURVE",
"24 288 OFFCURVE",
"24 272 CURVE SMOOTH",
"24 258 OFFCURVE",
"33 245 OFFCURVE",
"49 245 CURVE SMOOTH",
"235 245 LINE",
"242 204 OFFCURVE",
"265 167 OFFCURVE",
"295 167 CURVE SMOOTH"
);
},
{
closed = 1;
nodes = (
"457 -138 OFFCURVE",
"473 -128 OFFCURVE",
"473 -113 CURVE SMOOTH",
"473 73 LINE",
"515 82 OFFCURVE",
"551 106 OFFCURVE",
"551 133 CURVE SMOOTH",
"551 148 OFFCURVE",
"536 168 OFFCURVE",
"512 168 CURVE SMOOTH",
"502 168 OFFCURVE",
"493 162 OFFCURVE",
"483 155 CURVE SMOOTH",
"473 146 OFFCURVE",
"460 138 OFFCURVE",
"443 138 CURVE SMOOTH",
"426 138 OFFCURVE",
"414 147 OFFCURVE",
"403 155 CURVE SMOOTH",
"394 162 OFFCURVE",
"385 168 OFFCURVE",
"375 168 CURVE SMOOTH",
"348 168 OFFCURVE",
"337 146 OFFCURVE",
"337 133 CURVE SMOOTH",
"337 103 OFFCURVE",
"374 80 OFFCURVE",
"414 73 CURVE",
"414 -113 LINE SMOOTH",
"414 -129 OFFCURVE",
"427 -138 OFFCURVE",
"442 -138 CURVE SMOOTH"
);
},
{
closed = 1;
nodes = (
"497 198 OFFCURVE",
"521 232 OFFCURVE",
"521 274 CURVE SMOOTH",
"521 316 OFFCURVE",
"476 352 OFFCURVE",
"434 352 CURVE SMOOTH",
"392 352 OFFCURVE",
"368 316 OFFCURVE",
"368 274 CURVE SMOOTH",
"368 232 OFFCURVE",
"412 198 OFFCURVE",
"454 198 CURVE SMOOTH"
);
},
{
closed = 1;
nodes = (
"623 167 OFFCURVE",
"646 204 OFFCURVE",
"653 245 CURVE",
"838 245 LINE SMOOTH",
"855 245 OFFCURVE",
"863 258 OFFCURVE",
"863 272 CURVE SMOOTH",
"863 288 OFFCURVE",
"854 303 OFFCURVE",
"838 303 CURVE SMOOTH",
"652 303 LINE",
"644 345 OFFCURVE",
"620 381 OFFCURVE",
"592 381 CURVE SMOOTH",
"578 381 OFFCURVE",
"558 366 OFFCURVE",
"558 343 CURVE SMOOTH",
"558 332 OFFCURVE",
"564 323 OFFCURVE",
"571 313 CURVE SMOOTH",
"579 303 OFFCURVE",
"587 291 OFFCURVE",
"587 274 CURVE SMOOTH",
"587 256 OFFCURVE",
"579 244 OFFCURVE",
"571 233 CURVE SMOOTH",
"564 225 OFFCURVE",
"558 216 OFFCURVE",
"558 206 CURVE SMOOTH",
"558 178 OFFCURVE",
"580 167 OFFCURVE",
"592 167 CURVE SMOOTH"
);
}
);
width = 888;
}
);
unicode = 10AF0;
},
{
glyphname = u10AF1;
lastChange = "2018-03-14 14:29:06 +0000";
layers = (
{
layerId = UUID0;
paths = (
{
closed = 1;
nodes = (
"322 361 OFFCURVE",
"339 377 OFFCURVE",
"339 400 CURVE SMOOTH",
"339 408 OFFCURVE",
"335 415 OFFCURVE",
"330 423 CURVE SMOOTH",
"325 431 OFFCURVE",
"319 442 OFFCURVE",
"319 461 CURVE SMOOTH",
"319 484 OFFCURVE",
"333 505 OFFCURVE",
"364 505 CURVE SMOOTH",
"403 505 OFFCURVE",
"420 479 OFFCURVE",
"420 442 CURVE SMOOTH",
"420 424 OFFCURVE",
"414 404 OFFCURVE",
"399 388 CURVE",
"408 375 OFFCURVE",
"422 363 OFFCURVE",
"442 363 CURVE SMOOTH",
"473 363 OFFCURVE",
"489 401 OFFCURVE",
"489 444 CURVE SMOOTH",
"489 542 OFFCURVE",
"428 577 OFFCURVE",
"367 577 CURVE SMOOTH",
"292 577 OFFCURVE",
"241 519 OFFCURVE",
"241 447 CURVE SMOOTH",
"241 377 OFFCURVE",
"272 361 OFFCURVE",
"298 361 CURVE SMOOTH"
);
},
{
closed = 1;
nodes = (
"224 113 OFFCURVE",
"240 144 OFFCURVE",
"240 170 CURVE SMOOTH",
"240 194 OFFCURVE",
"224 211 OFFCURVE",
"201 211 CURVE SMOOTH",
"193 211 OFFCURVE",
"186 207 OFFCURVE",
"178 202 CURVE SMOOTH",
"169 196 OFFCURVE",
"159 190 OFFCURVE",
"140 190 CURVE SMOOTH",
"117 190 OFFCURVE",
"96 205 OFFCURVE",
"96 236 CURVE SMOOTH",
"96 274 OFFCURVE",
"122 292 OFFCURVE",
"159 292 CURVE SMOOTH",
"177 292 OFFCURVE",
"197 285 OFFCURVE",
"213 271 CURVE",
"226 279 OFFCURVE",
"238 293 OFFCURVE",
"238 313 CURVE SMOOTH",
"238 345 OFFCURVE",
"200 361 OFFCURVE",
"157 361 CURVE SMOOTH",
"59 361 OFFCURVE",
"24 300 OFFCURVE",
"24 239 CURVE SMOOTH",
"24 164 OFFCURVE",
"83 113 OFFCURVE",
"154 113 CURVE SMOOTH"
);
},
{
closed = 1;
nodes = (
"439 -93 OFFCURVE",
"490 -35 OFFCURVE",
"490 37 CURVE SMOOTH",
"490 106 OFFCURVE",
"459 123 OFFCURVE",
"433 123 CURVE SMOOTH",
"409 123 OFFCURVE",
"392 107 OFFCURVE",
"392 84 CURVE SMOOTH",
"392 76 OFFCURVE",
"396 69 OFFCURVE",
"401 61 CURVE SMOOTH",
"407 52 OFFCURVE",
"412 39 OFFCURVE",
"412 22 CURVE SMOOTH",
"412 0 OFFCURVE",
"397 -21 OFFCURVE",
"367 -21 CURVE SMOOTH",
"328 -21 OFFCURVE",
"311 4 OFFCURVE",
"311 42 CURVE SMOOTH",
"311 60 OFFCURVE",
"317 80 OFFCURVE",
"332 96 CURVE",
"323 109 OFFCURVE",
"309 121 OFFCURVE",
"289 121 CURVE SMOOTH",
"258 121 OFFCURVE",
"242 83 OFFCURVE",
"242 40 CURVE SMOOTH",
"242 -59 OFFCURVE",
"303 -93 OFFCURVE",
"364 -93 CURVE SMOOTH"
);
},
{
closed = 1;
nodes = (
"418 159 OFFCURVE",
"443 195 OFFCURVE",
"443 239 CURVE SMOOTH",
"443 283 OFFCURVE",
"396 319 OFFCURVE",
"353 319 CURVE SMOOTH",
"309 319 OFFCURVE",
"283 283 OFFCURVE",
"283 239 CURVE SMOOTH",
"283 195 OFFCURVE",
"330 159 OFFCURVE",
"374 159 CURVE SMOOTH"
);
},
{
closed = 1;
nodes = (
"674 114 OFFCURVE",
"708 175 OFFCURVE",
"708 236 CURVE SMOOTH",
"708 311 OFFCURVE",
"650 362 OFFCURVE",
"579 362 CURVE SMOOTH",
"509 362 OFFCURVE",
"493 331 OFFCURVE",
"493 305 CURVE SMOOTH",
"493 281 OFFCURVE",
"509 264 OFFCURVE",
"532 264 CURVE SMOOTH",
"540 264 OFFCURVE",
"547 268 OFFCURVE",
"555 273 CURVE SMOOTH",
"563 278 OFFCURVE",
"574 284 OFFCURVE",
"593 284 CURVE SMOOTH",
"616 284 OFFCURVE",
"637 270 OFFCURVE",
"637 239 CURVE SMOOTH",
"637 200 OFFCURVE",
"611 183 OFFCURVE",
"574 183 CURVE SMOOTH",
"556 183 OFFCURVE",
"536 189 OFFCURVE",
"520 204 CURVE",
"507 195 OFFCURVE",
"495 181 OFFCURVE",
"495 161 CURVE SMOOTH",
"495 130 OFFCURVE",
"533 114 OFFCURVE",
"576 114 CURVE SMOOTH"
);
}
);
width = 733;
}
);
unicode = 10AF1;
},
{
glyphname = u10AF2;
lastChange = "2018-03-14 14:29:06 +0000";
layers = (
{
layerId = UUID0;
paths = (
{
closed = 1;
nodes = (
"406 -24 OFFCURVE",
"460 13 OFFCURVE",
"492 65 CURVE",
"536 8 OFFCURVE",
"605 -24 OFFCURVE",
"688 -24 CURVE SMOOTH",
"846 -24 OFFCURVE",
"897 108 OFFCURVE",
"897 190 CURVE SMOOTH",
"897 333 OFFCURVE",
"816 458 OFFCURVE",
"648 458 CURVE SMOOTH",
"567 458 OFFCURVE",
"512 421 OFFCURVE",
"479 370 CURVE",
"438 422 OFFCURVE",
"373 458 OFFCURVE",
"282 458 CURVE SMOOTH",
"136 458 OFFCURVE",
"73 339 OFFCURVE",
"73 250 CURVE SMOOTH",
"73 75 OFFCURVE",
"177 -24 OFFCURVE",
"322 -24 CURVE SMOOTH"
);
},
{
closed = 1;
nodes = (
"226 63 OFFCURVE",
"165 137 OFFCURVE",
"165 233 CURVE SMOOTH",
"165 306 OFFCURVE",
"198 370 OFFCURVE",
"291 370 CURVE SMOOTH",
"373 370 OFFCURVE",
"440 299 OFFCURVE",
"440 192 CURVE SMOOTH",
"440 132 OFFCURVE",
"417 63 OFFCURVE",
"321 63 CURVE SMOOTH"
);
},
{
closed = 1;
nodes = (
"328 165 OFFCURVE",
"359 197 OFFCURVE",
"394 222 CURVE",
"370 258 OFFCURVE",
"339 293 OFFCURVE",
"297 315 CURVE",
"265 292 OFFCURVE",
"232 260 OFFCURVE",
"207 221 CURVE",
"249 193 OFFCURVE",
"279 161 OFFCURVE",
"303 130 CURVE"
);
},
{
closed = 1;
nodes = (
"592 63 OFFCURVE",
"531 137 OFFCURVE",
"531 221 CURVE SMOOTH",
"531 306 OFFCURVE",
"564 370 OFFCURVE",
"657 370 CURVE SMOOTH",
"738 370 OFFCURVE",
"806 304 OFFCURVE",
"806 197 CURVE SMOOTH",
"806 135 OFFCURVE",
"785 63 OFFCURVE",
"687 63 CURVE SMOOTH"
);
},
{
closed = 1;
nodes = (
"694 165 OFFCURVE",
"725 197 OFFCURVE",
"760 222 CURVE",
"736 258 OFFCURVE",
"706 293 OFFCURVE",
"663 315 CURVE",
"631 292 OFFCURVE",
"599 260 OFFCURVE",
"573 221 CURVE",
"615 193 OFFCURVE",
"646 161 OFFCURVE",
"669 130 CURVE"
);
}
);
width = 970;
}
);
unicode = 10AF2;
},
{
glyphname = u10AF3;
lastChange = "2018-03-14 14:29:06 +0000";
layers = (
{
layerId = UUID0;
paths = (
{
closed = 1;
nodes = (
"480 -24 OFFCURVE",
"531 99 OFFCURVE",
"531 193 CURVE SMOOTH",
"531 333 OFFCURVE",
"450 458 OFFCURVE",
"282 458 CURVE SMOOTH",
"136 458 OFFCURVE",
"73 339 OFFCURVE",
"73 241 CURVE SMOOTH",
"73 75 OFFCURVE",
"177 -24 OFFCURVE",
"322 -24 CURVE SMOOTH"
);
},
{
closed = 1;
nodes = (
"226 63 OFFCURVE",
"165 137 OFFCURVE",
"165 231 CURVE SMOOTH",
"165 306 OFFCURVE",
"198 370 OFFCURVE",
"291 370 CURVE SMOOTH",
"372 370 OFFCURVE",
"440 304 OFFCURVE",
"440 197 CURVE SMOOTH",
"440 135 OFFCURVE",
"418 63 OFFCURVE",
"321 63 CURVE SMOOTH"
);
},
{
closed = 1;
nodes = (
"328 165 OFFCURVE",
"359 197 OFFCURVE",
"394 222 CURVE",
"370 258 OFFCURVE",
"339 293 OFFCURVE",
"297 315 CURVE",
"265 292 OFFCURVE",
"232 260 OFFCURVE",
"207 221 CURVE",
"249 193 OFFCURVE",
"279 161 OFFCURVE",
"303 130 CURVE"
);
}
);
width = 604;
}
);
unicode = 10AF3;
},
{
glyphname = u10AF4;
lastChange = "2018-03-14 14:29:06 +0000";
layers = (
{
layerId = UUID0;
paths = (
{
closed = 1;
nodes = (
"223 157 OFFCURVE",
"248 193 OFFCURVE",
"248 236 CURVE SMOOTH",
"248 281 OFFCURVE",
"201 317 OFFCURVE",
"157 317 CURVE SMOOTH",
"113 317 OFFCURVE",
"88 281 OFFCURVE",
"88 236 CURVE SMOOTH",
"88 193 OFFCURVE",
"135 157 OFFCURVE",
"179 157 CURVE SMOOTH"
);
}
);
width = 336;
}
);
unicode = 10AF4;
},
{
glyphname = u10AF5;
lastChange = "2018-03-14 14:29:06 +0000";
layers = (
{
layerId = UUID0;
paths = (
{
closed = 1;
nodes = (
"223 254 OFFCURVE",
"248 291 OFFCURVE",
"248 334 CURVE SMOOTH",
"248 378 OFFCURVE",
"201 415 OFFCURVE",
"157 415 CURVE SMOOTH",
"113 415 OFFCURVE",
"88 378 OFFCURVE",
"88 334 CURVE SMOOTH",
"88 291 OFFCURVE",
"135 254 OFFCURVE",
"179 254 CURVE SMOOTH"
);
},
{
closed = 1;
nodes = (
"223 -14 OFFCURVE",
"248 22 OFFCURVE",
"248 65 CURVE SMOOTH",
"248 110 OFFCURVE",
"201 146 OFFCURVE",
"157 146 CURVE SMOOTH",
"113 146 OFFCURVE",
"88 110 OFFCURVE",
"88 65 CURVE SMOOTH",
"88 22 OFFCURVE",
"135 -14 OFFCURVE",
"179 -14 CURVE SMOOTH"
);
}
);
width = 336;
}
);
unicode = 10AF5;
},
{
glyphname = u10AF6;
lastChange = "2018-03-14 14:29:06 +0000";
layers = (
{
layerId = UUID0;
paths = (
{
closed = 1;
nodes = (
"332 -10 OFFCURVE",
"385 15 OFFCURVE",
"385 60 CURVE SMOOTH",
"385 83 OFFCURVE",
"370 98 OFFCURVE",
"351 110 CURVE",
"329 87 OFFCURVE",
"304 78 OFFCURVE",
"266 78 CURVE SMOOTH",
"187 78 OFFCURVE",
"134 119 OFFCURVE",
"134 202 CURVE SMOOTH",
"134 277 OFFCURVE",
"182 317 OFFCURVE",
"245 317 CURVE SMOOTH",
"270 317 OFFCURVE",
"286 311 OFFCURVE",
"301 303 CURVE SMOOTH",
"311 298 OFFCURVE",
"324 292 OFFCURVE",
"341 292 CURVE SMOOTH",
"364 292 OFFCURVE",
"383 310 OFFCURVE",
"383 338 CURVE SMOOTH",
"383 368 OFFCURVE",
"364 413 OFFCURVE",
"267 413 CURVE SMOOTH",
"129 413 OFFCURVE",
"44 328 OFFCURVE",
"44 200 CURVE SMOOTH",
"44 96 OFFCURVE",
"103 -10 OFFCURVE",
"257 -10 CURVE SMOOTH"
);
}
);
width = 429;
}
);
unicode = 10AF6;
},
{
glyphname = uni0640;
lastChange = "2018-03-14 14:29:06 +0000";
layers = (
{
layerId = UUID0;
paths = (
{
closed = 1;
nodes = (
"185 0 LINE",
"185 81 LINE",
"-39 81 LINE",
"-39 0 LINE"
);
}
);
width = 146;
}
);
unicode = 0640;
category = Letter;
},
{
glyphname = uniFE00;
lastChange = "2018-03-14 14:29:06 +0000";
layers = (
{
layerId = UUID0;
paths = (
{
closed = 1;
nodes = (
"324 349 LINE",
"426 623 LINE",
"388 623 LINE",
"323 447 LINE SMOOTH",
"315 424 OFFCURVE",
"309 405 OFFCURVE",
"306 388 CURVE",
"302 405 OFFCURVE",
"296 424 OFFCURVE",
"288 447 CURVE SMOOTH",
"223 623 LINE",
"186 623 LINE",
"288 349 LINE"
);
},
{
closed = 1;
nodes = (
"207 0 LINE",
"207 34 LINE",
"83 34 LINE",
"83 158 LINE",
"49 158 LINE",
"49 0 LINE"
);
},
{
closed = 1;
nodes = (
"390 0 LINE",
"390 34 LINE",
"281 34 LINE",
"281 0 LINE"
);
},
{
closed = 1;
nodes = (
"83 281 LINE",
"83 439 LINE",
"49 439 LINE",
"49 281 LINE"
);
},
{
closed = 1;
nodes = (
"573 0 LINE",
"573 34 LINE",
"463 34 LINE",
"463 0 LINE"
);
},
{
closed = 1;
nodes = (
"448 85 LINE",
"448 323 LINE",
"416 323 LINE",
"331 273 LINE",
"351 253 LINE",
"384 273 LINE SMOOTH",
"396 280 OFFCURVE",
"400 283 OFFCURVE",
"412 292 CURVE",
"410 270 OFFCURVE",
"410 263 OFFCURVE",
"410 251 CURVE SMOOTH",
"410 85 LINE"
);
},
{
closed = 1;
nodes = (
"83 561 LINE",
"83 685 LINE",
"207 685 LINE",
"207 719 LINE",
"49 719 LINE",
"49 561 LINE"
);
},
{
closed = 1;
nodes = (
"805 0 LINE",
"805 158 LINE",
"771 158 LINE",
"771 34 LINE",
"647 34 LINE",
"647 0 LINE"
);
},
{
closed = 1;
nodes = (
"390 685 LINE",
"390 719 LINE",
"281 719 LINE",
"281 685 LINE"
);
},
{
closed = 1;
nodes = (
"622 345 OFFCURVE",
"661 374 OFFCURVE",
"661 422 CURVE SMOOTH",
"661 465 OFFCURVE",
"634 482 OFFCURVE",
"583 501 CURVE SMOOTH",
"537 518 OFFCURVE",
"521 529 OFFCURVE",
"521 556 CURVE SMOOTH",
"521 580 OFFCURVE",
"539 596 OFFCURVE",
"575 596 CURVE SMOOTH",
"600 596 OFFCURVE",
"624 590 OFFCURVE",
"643 582 CURVE",
"654 611 LINE",
"633 620 OFFCURVE",
"607 626 OFFCURVE",
"576 626 CURVE SMOOTH",
"521 626 OFFCURVE",
"484 600 OFFCURVE",
"484 557 CURVE SMOOTH",
"484 514 OFFCURVE",
"509 493 OFFCURVE",
"558 476 CURVE SMOOTH",
"610 458 OFFCURVE",
"625 446 OFFCURVE",
"625 419 CURVE SMOOTH",
"625 392 OFFCURVE",
"603 375 OFFCURVE",
"561 375 CURVE SMOOTH",
"530 375 OFFCURVE",
"500 383 OFFCURVE",
"481 391 CURVE",
"481 358 LINE",
"499 350 OFFCURVE",
"527 345 OFFCURVE",
"559 345 CURVE SMOOTH"
);
},
{
closed = 1;
nodes = (
"805 281 LINE",
"805 439 LINE",
"771 439 LINE",
"771 281 LINE"
);
},
{
closed = 1;
nodes = (
"573 685 LINE",
"573 719 LINE",
"463 719 LINE",
"463 685 LINE"
);
},
{
closed = 1;
nodes = (
"805 561 LINE",
"805 719 LINE",
"647 719 LINE",
"647 685 LINE",
"771 685 LINE",
"771 561 LINE"
);
}
);
width = 854;
}
);
unicode = FE00;
},
{
glyphname = u10ADD10ACF;
lastChange = "2018-03-14 14:29:06 +0000";
layers = (
{
layerId = UUID0;
paths = (
{
closed = 1;
nodes = (
"650 -225 OFFCURVE",
"719 -95 OFFCURVE",
"719 31 CURVE SMOOTH",
"719 109 OFFCURVE",
"699 156 OFFCURVE",
"651 219 CURVE",
"641 205 LINE",
"712 189 OFFCURVE",
"778 186 OFFCURVE",
"850 184 CURVE",
"886 65 OFFCURVE",
"942 -10 OFFCURVE",
"1003 -10 CURVE SMOOTH",
"1022 -10 OFFCURVE",
"1062 -2 OFFCURVE",
"1062 42 CURVE SMOOTH",
"1062 77 OFFCURVE",
"1038 97 OFFCURVE",
"1006 121 CURVE SMOOTH",
"969 149 OFFCURVE",
"923 186 OFFCURVE",
"923 264 CURVE SMOOTH",
"923 298 OFFCURVE",
"932 322 OFFCURVE",
"940 342 CURVE SMOOTH",
"946 357 OFFCURVE",
"950 372 OFFCURVE",
"950 386 CURVE SMOOTH",
"950 423 OFFCURVE",
"920 439 OFFCURVE",
"891 439 CURVE SMOOTH",
"847 439 OFFCURVE",
"826 402 OFFCURVE",
"826 343 CURVE SMOOTH",
"826 325 OFFCURVE",
"828 295 OFFCURVE",
"831 276 CURVE",
"649 285 OFFCURVE",
"580 349 OFFCURVE",
"535 395 CURVE SMOOTH",
"510 420 OFFCURVE",
"491 438 OFFCURVE",
"458 438 CURVE SMOOTH",
"423 438 OFFCURVE",
"401 423 OFFCURVE",
"401 389 CURVE SMOOTH",
"401 323 OFFCURVE",
"453 285 OFFCURVE",
"528 257 CURVE",
"591 214 OFFCURVE",
"628 127 OFFCURVE",
"628 33 CURVE SMOOTH",
"628 -64 OFFCURVE",
"581 -142 OFFCURVE",
"440 -142 CURVE SMOOTH",
"232 -142 OFFCURVE",
"134 15 OFFCURVE",
"134 121 CURVE SMOOTH",
"134 186 OFFCURVE",
"154 227 OFFCURVE",
"205 237 CURVE",
"204 221 OFFCURVE",
"204 208 OFFCURVE",
"204 199 CURVE SMOOTH",
"204 143 OFFCURVE",
"237 91 OFFCURVE",
"297 91 CURVE SMOOTH",
"358 91 OFFCURVE",
"375 152 OFFCURVE",
"375 204 CURVE SMOOTH",
"375 308 OFFCURVE",
"317 338 OFFCURVE",
"249 338 CURVE SMOOTH",
"146 338 OFFCURVE",
"44 267 OFFCURVE",
"44 127 CURVE SMOOTH",
"44 -63 OFFCURVE",
"206 -225 OFFCURVE",
"440 -225 CURVE SMOOTH"
);
}
);
width = 1104;
}
);
},
{
glyphname = u10ADD10ACF.fina;
lastChange = "2018-03-14 14:29:06 +0000";
layers = (
{
layerId = UUID0;
paths = (
{
closed = 1;
nodes = (
"650 -225 OFFCURVE",
"719 -95 OFFCURVE",
"719 31 CURVE SMOOTH",
"719 111 OFFCURVE",
"699 160 OFFCURVE",
"651 224 CURVE",
"641 210 LINE",
"712 198 OFFCURVE",
"769 189 OFFCURVE",
"844 189 CURVE",
"875 75 OFFCURVE",
"941 0 OFFCURVE",
"1042 0 CURVE SMOOTH",
"1104 0 LINE",
"1104 81 LINE",
"1064 81 LINE SMOOTH",
"972 81 OFFCURVE",
"923 144 OFFCURVE",
"923 264 CURVE SMOOTH",
"923 298 OFFCURVE",
"932 322 OFFCURVE",
"940 342 CURVE SMOOTH",
"946 357 OFFCURVE",
"950 372 OFFCURVE",
"950 386 CURVE SMOOTH",
"950 423 OFFCURVE",
"920 439 OFFCURVE",
"891 439 CURVE SMOOTH",
"847 439 OFFCURVE",
"826 402 OFFCURVE",
"826 343 CURVE SMOOTH",
"826 325 OFFCURVE",
"828 295 OFFCURVE",
"831 276 CURVE",
"649 285 OFFCURVE",
"580 349 OFFCURVE",
"535 395 CURVE SMOOTH",
"510 420 OFFCURVE",
"491 438 OFFCURVE",
"458 438 CURVE SMOOTH",
"423 438 OFFCURVE",
"395 420 OFFCURVE",
"395 379 CURVE SMOOTH",
"395 325 OFFCURVE",
"446 285 OFFCURVE",
"521 252 CURVE",
"584 211 OFFCURVE",
"628 125 OFFCURVE",
"628 33 CURVE SMOOTH",
"628 -64 OFFCURVE",
"581 -142 OFFCURVE",
"440 -142 CURVE SMOOTH",
"232 -142 OFFCURVE",
"134 15 OFFCURVE",
"134 121 CURVE SMOOTH",
"134 186 OFFCURVE",
"154 227 OFFCURVE",
"205 237 CURVE",
"204 221 OFFCURVE",
"204 208 OFFCURVE",
"204 199 CURVE SMOOTH",
"204 143 OFFCURVE",
"234 91 OFFCURVE",
"297 91 CURVE SMOOTH",
"358 91 OFFCURVE",
"375 152 OFFCURVE",
"375 204 CURVE SMOOTH",
"375 308 OFFCURVE",
"317 338 OFFCURVE",
"249 338 CURVE SMOOTH",
"146 338 OFFCURVE",
"44 267 OFFCURVE",
"44 127 CURVE SMOOTH",
"44 -63 OFFCURVE",
"206 -225 OFFCURVE",
"440 -225 CURVE SMOOTH"
);
}
);
width = 1065;
}
);
},
{
glyphname = u10ADD10AD7;
lastChange = "2018-03-14 14:29:06 +0000";
layers = (
{
layerId = UUID0;
paths = (
{
closed = 1;
nodes = (
"652 -225 OFFCURVE",
"719 -99 OFFCURVE",
"719 25 CURVE SMOOTH",
"719 98 OFFCURVE",
"700 158 OFFCURVE",
"651 224 CURVE",
"641 210 LINE",
"712 194 OFFCURVE",
"775 191 OFFCURVE",
"850 189 CURVE",
"886 67 OFFCURVE",
"942 -10 OFFCURVE",
"1003 -10 CURVE SMOOTH",
"1022 -10 OFFCURVE",
"1062 -2 OFFCURVE",
"1062 42 CURVE SMOOTH",
"1062 78 OFFCURVE",
"1036 99 OFFCURVE",
"1006 121 CURVE SMOOTH",
"969 149 OFFCURVE",
"923 185 OFFCURVE",
"923 264 CURVE SMOOTH",
"923 298 OFFCURVE",
"932 322 OFFCURVE",
"940 342 CURVE SMOOTH",
"946 357 OFFCURVE",
"950 372 OFFCURVE",
"950 386 CURVE SMOOTH",
"950 423 OFFCURVE",
"920 439 OFFCURVE",
"891 439 CURVE SMOOTH",
"847 439 OFFCURVE",
"826 402 OFFCURVE",
"826 343 CURVE SMOOTH",
"826 325 OFFCURVE",
"828 295 OFFCURVE",
"831 276 CURVE",
"652 285 OFFCURVE",
"578 351 OFFCURVE",
"535 395 CURVE SMOOTH",
"510 420 OFFCURVE",
"490 438 OFFCURVE",
"453 438 CURVE SMOOTH",
"421 438 OFFCURVE",
"395 420 OFFCURVE",
"395 380 CURVE SMOOTH",
"395 325 OFFCURVE",
"446 285 OFFCURVE",
"521 252 CURVE",
"584 210 OFFCURVE",
"628 115 OFFCURVE",
"628 35 CURVE SMOOTH",
"628 -67 OFFCURVE",
"583 -142 OFFCURVE",
"428 -142 CURVE SMOOTH",
"233 -142 OFFCURVE",
"135 -2 OFFCURVE",
"135 153 CURVE SMOOTH",
"135 195 OFFCURVE",
"147 236 OFFCURVE",
"192 236 CURVE SMOOTH",
"233 236 OFFCURVE",
"268 192 OFFCURVE",
"268 154 CURVE SMOOTH",
"268 131 OFFCURVE",
"256 118 OFFCURVE",
"244 105 CURVE SMOOTH",
"235 96 OFFCURVE",
"228 86 OFFCURVE",
"228 74 CURVE SMOOTH",
"228 62 OFFCURVE",
"238 20 OFFCURVE",
"310 20 CURVE SMOOTH",
"342 20 OFFCURVE",
"372 53 OFFCURVE",
"372 109 CURVE SMOOTH",
"372 155 OFFCURVE",
"347 182 OFFCURVE",
"324 206 CURVE SMOOTH",
"305 225 OFFCURVE",
"291 242 OFFCURVE",
"291 268 CURVE SMOOTH",
"291 291 OFFCURVE",
"305 309 OFFCURVE",
"328 322 CURVE SMOOTH",
"346 332 OFFCURVE",
"358 342 OFFCURVE",
"358 353 CURVE SMOOTH",
"358 370 OFFCURVE",
"331 413 OFFCURVE",
"257 413 CURVE SMOOTH",
"225 413 OFFCURVE",
"188 383 OFFCURVE",
"179 331 CURVE",
"84 313 OFFCURVE",
"44 239 OFFCURVE",
"44 148 CURVE SMOOTH",
"44 -85 OFFCURVE",
"224 -225 OFFCURVE",
"438 -225 CURVE SMOOTH"
);
}
);
width = 1104;
}
);
},
{
glyphname = u10ADD10AD7.fina;
lastChange = "2018-03-14 14:29:06 +0000";
layers = (
{
layerId = UUID0;
paths = (
{
closed = 1;
nodes = (
"651 -225 OFFCURVE",
"720 -95 OFFCURVE",
"720 31 CURVE SMOOTH",
"720 111 OFFCURVE",
"700 160 OFFCURVE",
"652 224 CURVE",
"642 210 LINE",
"713 194 OFFCURVE",
"770 190 OFFCURVE",
"845 189 CURVE",
"876 75 OFFCURVE",
"942 0 OFFCURVE",
"1043 0 CURVE SMOOTH",
"1105 0 LINE",
"1105 81 LINE",
"1065 81 LINE SMOOTH",
"973 81 OFFCURVE",
"924 144 OFFCURVE",
"924 264 CURVE SMOOTH",
"924 298 OFFCURVE",
"933 322 OFFCURVE",
"941 342 CURVE SMOOTH",
"947 357 OFFCURVE",
"951 372 OFFCURVE",
"951 386 CURVE SMOOTH",
"951 423 OFFCURVE",
"921 439 OFFCURVE",
"892 439 CURVE SMOOTH",
"848 439 OFFCURVE",
"827 402 OFFCURVE",
"827 343 CURVE SMOOTH",
"827 325 OFFCURVE",
"829 295 OFFCURVE",
"832 276 CURVE",
"650 285 OFFCURVE",
"581 349 OFFCURVE",
"536 395 CURVE SMOOTH",
"511 420 OFFCURVE",
"492 438 OFFCURVE",
"459 438 CURVE SMOOTH",
"424 438 OFFCURVE",
"396 420 OFFCURVE",
"396 379 CURVE SMOOTH",
"396 325 OFFCURVE",
"447 285 OFFCURVE",
"522 252 CURVE",
"585 211 OFFCURVE",
"629 125 OFFCURVE",
"629 33 CURVE SMOOTH",
"629 -64 OFFCURVE",
"582 -142 OFFCURVE",
"441 -142 CURVE SMOOTH",
"233 -142 OFFCURVE",
"135 -2 OFFCURVE",
"135 153 CURVE SMOOTH",
"135 195 OFFCURVE",
"147 236 OFFCURVE",
"192 236 CURVE SMOOTH",
"233 236 OFFCURVE",
"268 192 OFFCURVE",
"268 154 CURVE SMOOTH",
"268 131 OFFCURVE",
"256 118 OFFCURVE",
"244 105 CURVE SMOOTH",
"235 96 OFFCURVE",
"228 86 OFFCURVE",
"228 74 CURVE SMOOTH",
"228 62 OFFCURVE",
"238 20 OFFCURVE",
"310 20 CURVE SMOOTH",
"342 20 OFFCURVE",
"372 53 OFFCURVE",
"372 109 CURVE SMOOTH",
"372 155 OFFCURVE",
"347 182 OFFCURVE",
"324 206 CURVE SMOOTH",
"305 225 OFFCURVE",
"291 242 OFFCURVE",
"291 268 CURVE SMOOTH",
"291 291 OFFCURVE",
"305 308 OFFCURVE",
"328 322 CURVE SMOOTH",
"346 333 OFFCURVE",
"358 342 OFFCURVE",
"358 353 CURVE SMOOTH",
"358 370 OFFCURVE",
"331 413 OFFCURVE",
"257 413 CURVE SMOOTH",
"225 413 OFFCURVE",
"188 383 OFFCURVE",
"179 331 CURVE",
"84 313 OFFCURVE",
"44 239 OFFCURVE",
"44 148 CURVE SMOOTH",
"44 -85 OFFCURVE",
"224 -225 OFFCURVE",
"441 -225 CURVE SMOOTH"
);
}
);
width = 1065;
}
);
},
{
glyphname = u10AC0.fina;
lastChange = "2018-03-14 14:29:06 +0000";
layers = (
{
layerId = UUID0;
paths = (
{
closed = 1;
nodes = (
"129 -10 OFFCURVE",
"138 10 OFFCURVE",
"138 48 CURVE SMOOTH",
"138 62 OFFCURVE",
"137 83 OFFCURVE",
"136 96 CURVE SMOOTH",
"135 108 OFFCURVE",
"134 125 OFFCURVE",
"134 133 CURVE SMOOTH",
"134 201 OFFCURVE",
"139 247 OFFCURVE",
"207 247 CURVE SMOOTH",
"275 247 OFFCURVE",
"398 198 OFFCURVE",
"457 144 CURVE",
"457 128 OFFCURVE",
"455 108 OFFCURVE",
"452 88 CURVE SMOOTH",
"449 67 OFFCURVE",
"447 53 OFFCURVE",
"447 40 CURVE SMOOTH",
"447 4 OFFCURVE",
"473 -10 OFFCURVE",
"513 -10 CURVE SMOOTH",
"559 -10 OFFCURVE",
"575 12 OFFCURVE",
"575 49 CURVE SMOOTH",
"575 104 OFFCURVE",
"562 146 OFFCURVE",
"547 185 CURVE SMOOTH",
"533 222 OFFCURVE",
"521 261 OFFCURVE",
"521 292 CURVE SMOOTH",
"521 314 OFFCURVE",
"524 339 OFFCURVE",
"528 359 CURVE SMOOTH",
"530 371 OFFCURVE",
"531 386 OFFCURVE",
"531 393 CURVE SMOOTH",
"531 437 OFFCURVE",
"504 449 OFFCURVE",
"467 449 CURVE SMOOTH",
"428 449 OFFCURVE",
"402 436 OFFCURVE",
"402 394 CURVE SMOOTH",
"402 347 OFFCURVE",
"417 301 OFFCURVE",
"431 258 CURVE",
"365 296 OFFCURVE",
"269 331 OFFCURVE",
"205 331 CURVE SMOOTH",
"70 331 OFFCURVE",
"47 242 OFFCURVE",
"47 133 CURVE SMOOTH",
"47 114 OFFCURVE",
"47 96 OFFCURVE",
"45 80 CURVE SMOOTH",
"44 68 OFFCURVE",
"44 56 OFFCURVE",
"44 45 CURVE SMOOTH",
"44 10 OFFCURVE",
"51 -10 OFFCURVE",
"91 -10 CURVE SMOOTH"
);
},
{
closed = 1;
nodes = (
"673 0 LINE",
"673 81 LINE",
"475 81 LINE",
"475 0 LINE"
);
}
);
width = 633;
}
);
},
{
glyphname = u10AC0.medi;
lastChange = "2018-03-14 14:29:06 +0000";
layers = (
{
layerId = UUID0;
paths = (
{
closed = 1;
nodes = (
"129 -10 OFFCURVE",
"138 10 OFFCURVE",
"138 48 CURVE SMOOTH",
"138 62 OFFCURVE",
"137 83 OFFCURVE",
"136 96 CURVE SMOOTH",
"135 108 OFFCURVE",
"134 125 OFFCURVE",
"134 133 CURVE SMOOTH",
"134 201 OFFCURVE",
"139 247 OFFCURVE",
"207 247 CURVE SMOOTH",
"275 247 OFFCURVE",
"398 198 OFFCURVE",
"457 144 CURVE",
"457 128 OFFCURVE",
"455 108 OFFCURVE",
"452 88 CURVE SMOOTH",
"449 67 OFFCURVE",
"447 53 OFFCURVE",
"447 40 CURVE SMOOTH",
"447 4 OFFCURVE",
"473 -10 OFFCURVE",
"513 -10 CURVE SMOOTH",
"559 -10 OFFCURVE",
"575 12 OFFCURVE",
"575 49 CURVE SMOOTH",
"575 104 OFFCURVE",
"562 146 OFFCURVE",
"547 185 CURVE SMOOTH",
"533 222 OFFCURVE",
"521 261 OFFCURVE",
"521 292 CURVE SMOOTH",
"521 314 OFFCURVE",
"524 339 OFFCURVE",
"528 359 CURVE SMOOTH",
"530 371 OFFCURVE",
"531 386 OFFCURVE",
"531 393 CURVE SMOOTH",
"531 437 OFFCURVE",
"504 449 OFFCURVE",
"467 449 CURVE SMOOTH",
"428 449 OFFCURVE",
"402 436 OFFCURVE",
"402 394 CURVE SMOOTH",
"402 347 OFFCURVE",
"417 301 OFFCURVE",
"431 258 CURVE",
"365 296 OFFCURVE",
"269 331 OFFCURVE",
"205 331 CURVE SMOOTH",
"70 331 OFFCURVE",
"47 242 OFFCURVE",
"47 133 CURVE SMOOTH",
"47 114 OFFCURVE",
"47 96 OFFCURVE",
"45 80 CURVE SMOOTH",
"44 68 OFFCURVE",
"44 56 OFFCURVE",
"44 45 CURVE SMOOTH",
"44 10 OFFCURVE",
"51 -10 OFFCURVE",
"91 -10 CURVE SMOOTH"
);
},
{
closed = 1;
nodes = (
"673 0 LINE",
"673 81 LINE",
"475 81 LINE",
"475 0 LINE"
);
},
{
closed = 1;
nodes = (
"71 0 LINE",
"71 81 LINE",
"-39 81 LINE",
"-39 0 LINE"
);
}
);
width = 633;
}
);
},
{
glyphname = u10AC0.init;
lastChange = "2018-03-14 14:29:06 +0000";
layers = (
{
layerId = UUID0;
paths = (
{
closed = 1;
nodes = (
"129 -10 OFFCURVE",
"138 10 OFFCURVE",
"138 48 CURVE SMOOTH",
"138 62 OFFCURVE",
"137 83 OFFCURVE",
"136 96 CURVE SMOOTH",
"135 108 OFFCURVE",
"134 125 OFFCURVE",
"134 133 CURVE SMOOTH",
"134 201 OFFCURVE",
"139 247 OFFCURVE",
"207 247 CURVE SMOOTH",
"275 247 OFFCURVE",
"398 198 OFFCURVE",
"457 144 CURVE",
"457 128 OFFCURVE",
"455 108 OFFCURVE",
"452 88 CURVE SMOOTH",
"449 67 OFFCURVE",
"447 53 OFFCURVE",
"447 40 CURVE SMOOTH",
"447 4 OFFCURVE",
"473 -10 OFFCURVE",
"513 -10 CURVE SMOOTH",
"559 -10 OFFCURVE",
"575 12 OFFCURVE",
"575 49 CURVE SMOOTH",
"575 104 OFFCURVE",
"562 146 OFFCURVE",
"547 185 CURVE SMOOTH",
"533 222 OFFCURVE",
"521 261 OFFCURVE",
"521 292 CURVE SMOOTH",
"521 314 OFFCURVE",
"524 339 OFFCURVE",
"528 359 CURVE SMOOTH",
"530 371 OFFCURVE",
"531 386 OFFCURVE",
"531 393 CURVE SMOOTH",
"531 437 OFFCURVE",
"504 449 OFFCURVE",
"467 449 CURVE SMOOTH",
"428 449 OFFCURVE",
"402 436 OFFCURVE",
"402 394 CURVE SMOOTH",
"402 347 OFFCURVE",
"417 301 OFFCURVE",
"431 258 CURVE",
"365 296 OFFCURVE",
"269 331 OFFCURVE",
"205 331 CURVE SMOOTH",
"70 331 OFFCURVE",
"47 242 OFFCURVE",
"47 133 CURVE SMOOTH",
"47 114 OFFCURVE",
"47 96 OFFCURVE",
"45 80 CURVE SMOOTH",
"44 68 OFFCURVE",
"44 56 OFFCURVE",
"44 45 CURVE SMOOTH",
"44 10 OFFCURVE",
"51 -10 OFFCURVE",
"91 -10 CURVE SMOOTH"
);
},
{
closed = 1;
nodes = (
"71 0 LINE",
"71 81 LINE",
"-39 81 LINE",
"-39 0 LINE"
);
}
);
width = 633;
}
);
},
{
glyphname = u10AC1.fina;
lastChange = "2018-03-14 14:29:06 +0000";
layers = (
{
layerId = UUID0;
paths = (
{
closed = 1;
nodes = (
"895 0 LINE SMOOTH",
"937 0 OFFCURVE",
"955 26 OFFCURVE",
"955 59 CURVE SMOOTH",
"955 112 OFFCURVE",
"891 322 OFFCURVE",
"871 385 CURVE SMOOTH",
"860 421 OFFCURVE",
"851 439 OFFCURVE",
"821 439 CURVE SMOOTH",
"796 439 OFFCURVE",
"786 422 OFFCURVE",
"774 399 CURVE SMOOTH",
"752 358 OFFCURVE",
"719 300 OFFCURVE",
"594 300 CURVE SMOOTH",
"489 300 OFFCURVE",
"461 341 OFFCURVE",
"438 376 CURVE SMOOTH",
"421 402 OFFCURVE",
"401 425 OFFCURVE",
"364 425 CURVE SMOOTH",
"327 425 OFFCURVE",
"312 402 OFFCURVE",
"312 377 CURVE SMOOTH",
"312 356 OFFCURVE",
"319 341 OFFCURVE",
"331 325 CURVE SMOOTH",
"376 263 OFFCURVE",
"464 218 OFFCURVE",
"587 218 CURVE SMOOTH",
"704 218 OFFCURVE",
"761 247 OFFCURVE",
"804 290 CURVE",
"823 238 OFFCURVE",
"850 144 OFFCURVE",
"850 116 CURVE SMOOTH",
"850 96 OFFCURVE",
"841 81 OFFCURVE",
"811 81 CURVE SMOOTH",
"244 81 LINE SMOOTH",
"196 81 OFFCURVE",
"174 92 OFFCURVE",
"157 105 CURVE SMOOTH",
"140 118 OFFCURVE",
"124 129 OFFCURVE",
"98 129 CURVE SMOOTH",
"64 129 OFFCURVE",
"44 107 OFFCURVE",
"44 72 CURVE SMOOTH",
"44 26 OFFCURVE",
"80 0 OFFCURVE",
"146 0 CURVE SMOOTH"
);
},
{
closed = 1;
nodes = (
"1038 0 LINE",
"1038 81 LINE",
"840 81 LINE",
"840 0 LINE"
);
}
);
width = 999;
}
);
},
{
glyphname = u10AC1.medi;
lastChange = "2018-03-14 14:29:06 +0000";
layers = (
{
layerId = UUID0;
paths = (
{
closed = 1;
nodes = (
"745 0 LINE",
"745 81 LINE",
"660 81 LINE",
"659 113 OFFCURVE",
"599 321 OFFCURVE",
"578 385 CURVE SMOOTH",
"566 421 OFFCURVE",
"558 440 OFFCURVE",
"528 440 CURVE SMOOTH",
"503 440 OFFCURVE",
"493 422 OFFCURVE",
"481 400 CURVE SMOOTH",
"459 359 OFFCURVE",
"426 301 OFFCURVE",
"301 301 CURVE SMOOTH",
"202 301 OFFCURVE",
"168 342 OFFCURVE",
"145 376 CURVE SMOOTH",
"127 402 OFFCURVE",
"108 426 OFFCURVE",
"71 426 CURVE SMOOTH",
"34 426 OFFCURVE",
"19 402 OFFCURVE",
"19 378 CURVE SMOOTH",
"19 356 OFFCURVE",
"26 341 OFFCURVE",
"38 325 CURVE SMOOTH",
"83 264 OFFCURVE",
"171 218 OFFCURVE",
"294 218 CURVE SMOOTH",
"411 218 OFFCURVE",
"468 247 OFFCURVE",
"511 290 CURVE",
"530 237 OFFCURVE",
"557 145 OFFCURVE",
"557 117 CURVE SMOOTH",
"557 97 OFFCURVE",
"548 81 OFFCURVE",
"518 81 CURVE SMOOTH",
"-39 81 LINE",
"-39 0 LINE"
);
}
);
width = 706;
}
);
},
{
glyphname = u10AC1.init;
lastChange = "2018-03-14 14:29:06 +0000";
layers = (
{
layerId = UUID0;
paths = (
{
closed = 1;
nodes = (
"602 0 LINE SMOOTH",
"644 0 OFFCURVE",
"662 26 OFFCURVE",
"662 59 CURVE SMOOTH",
"662 112 OFFCURVE",
"599 322 OFFCURVE",
"578 385 CURVE SMOOTH",
"566 421 OFFCURVE",
"558 439 OFFCURVE",
"528 439 CURVE SMOOTH",
"503 439 OFFCURVE",
"493 422 OFFCURVE",
"481 399 CURVE SMOOTH",
"459 358 OFFCURVE",
"426 300 OFFCURVE",
"301 300 CURVE SMOOTH",
"197 300 OFFCURVE",
"169 341 OFFCURVE",
"145 376 CURVE SMOOTH",
"127 402 OFFCURVE",
"108 425 OFFCURVE",
"71 425 CURVE SMOOTH",
"34 425 OFFCURVE",
"19 402 OFFCURVE",
"19 377 CURVE SMOOTH",
"19 356 OFFCURVE",
"26 341 OFFCURVE",
"38 325 CURVE SMOOTH",
"83 263 OFFCURVE",
"171 218 OFFCURVE",
"294 218 CURVE SMOOTH",
"411 218 OFFCURVE",
"468 247 OFFCURVE",
"511 290 CURVE",
"530 236 OFFCURVE",
"557 145 OFFCURVE",
"557 116 CURVE SMOOTH",
"557 96 OFFCURVE",
"548 81 OFFCURVE",
"518 81 CURVE SMOOTH",
"-39 81 LINE",
"-39 0 LINE"
);
}
);
width = 706;
}
);
},
{
glyphname = u10AC2.fina;
lastChange = "2018-03-14 14:29:06 +0000";
layers = (
{
layerId = UUID0;
paths = (
{
closed = 1;
nodes = (
"895 0 LINE SMOOTH",
"937 0 OFFCURVE",
"955 26 OFFCURVE",
"955 59 CURVE SMOOTH",
"955 112 OFFCURVE",
"891 322 OFFCURVE",
"871 385 CURVE SMOOTH",
"860 421 OFFCURVE",
"851 439 OFFCURVE",
"821 439 CURVE SMOOTH",
"796 439 OFFCURVE",
"786 422 OFFCURVE",
"774 399 CURVE SMOOTH",
"752 358 OFFCURVE",
"719 300 OFFCURVE",
"594 300 CURVE SMOOTH",
"489 300 OFFCURVE",
"461 341 OFFCURVE",
"438 376 CURVE SMOOTH",
"421 402 OFFCURVE",
"401 425 OFFCURVE",
"364 425 CURVE SMOOTH",
"327 425 OFFCURVE",
"312 402 OFFCURVE",
"312 377 CURVE SMOOTH",
"312 356 OFFCURVE",
"319 341 OFFCURVE",
"331 325 CURVE SMOOTH",
"376 263 OFFCURVE",
"464 218 OFFCURVE",
"587 218 CURVE SMOOTH",
"704 218 OFFCURVE",
"761 247 OFFCURVE",
"804 290 CURVE",
"823 238 OFFCURVE",
"850 144 OFFCURVE",
"850 116 CURVE SMOOTH",
"850 96 OFFCURVE",
"841 81 OFFCURVE",
"811 81 CURVE SMOOTH",
"244 81 LINE SMOOTH",
"196 81 OFFCURVE",
"174 92 OFFCURVE",
"157 105 CURVE SMOOTH",
"140 118 OFFCURVE",
"124 129 OFFCURVE",
"98 129 CURVE SMOOTH",
"64 129 OFFCURVE",
"44 107 OFFCURVE",
"44 72 CURVE SMOOTH",
"44 26 OFFCURVE",
"80 0 OFFCURVE",
"146 0 CURVE SMOOTH"
);
},
{
closed = 1;
nodes = (
"1038 0 LINE",
"1038 81 LINE",
"840 81 LINE",
"840 0 LINE"
);
},
{
closed = 1;
nodes = (
"530 440 OFFCURVE",
"547 464 OFFCURVE",
"547 494 CURVE SMOOTH",
"547 523 OFFCURVE",
"515 548 OFFCURVE",
"485 548 CURVE SMOOTH",
"456 548 OFFCURVE",
"438 523 OFFCURVE",
"438 494 CURVE SMOOTH",
"438 464 OFFCURVE",
"470 440 OFFCURVE",
"500 440 CURVE SMOOTH"
);
},
{
closed = 1;
nodes = (
"691 440 OFFCURVE",
"708 464 OFFCURVE",
"708 494 CURVE SMOOTH",
"708 523 OFFCURVE",
"676 548 OFFCURVE",
"646 548 CURVE SMOOTH",
"617 548 OFFCURVE",
"600 523 OFFCURVE",
"600 494 CURVE SMOOTH",
"600 464 OFFCURVE",
"631 440 OFFCURVE",
"661 440 CURVE SMOOTH"
);
}
);
width = 999;
}
);
},
{
glyphname = u10AC3.fina;
lastChange = "2018-03-14 14:29:06 +0000";
layers = (
{
layerId = UUID0;
paths = (
{
closed = 1;
nodes = (
"378 -303 OFFCURVE",
"451 -251 OFFCURVE",
"451 -179 CURVE SMOOTH",
"451 -135 OFFCURVE",
"423 -54 OFFCURVE",
"396 16 CURVE SMOOTH",
"240 413 LINE SMOOTH",
"222 460 OFFCURVE",
"210 499 OFFCURVE",
"210 513 CURVE SMOOTH",
"210 523 OFFCURVE",
"217 535 OFFCURVE",
"224 545 CURVE SMOOTH",
"231 556 OFFCURVE",
"237 566 OFFCURVE",
"237 576 CURVE SMOOTH",
"237 597 OFFCURVE",
"219 625 OFFCURVE",
"130 625 CURVE SMOOTH",
"95 625 OFFCURVE",
"84 609 OFFCURVE",
"84 587 CURVE SMOOTH",
"84 553 OFFCURVE",
"118 468 OFFCURVE",
"158 368 CURVE SMOOTH",
"296 26 LINE SMOOTH",
"324 -44 OFFCURVE",
"362 -150 OFFCURVE",
"362 -189 CURVE SMOOTH",
"362 -212 OFFCURVE",
"349 -232 OFFCURVE",
"335 -247 CURVE SMOOTH",
"324 -259 OFFCURVE",
"315 -270 OFFCURVE",
"315 -282 CURVE SMOOTH",
"315 -297 OFFCURVE",
"327 -303 OFFCURVE",
"338 -303 CURVE SMOOTH"
);
},
{
closed = 1;
nodes = (
"360 0 LINE",
"334 81 LINE",
"201 81 LINE SMOOTH",
"181 81 OFFCURVE",
"162 84 OFFCURVE",
"146 89 CURVE SMOOTH",
"134 93 OFFCURVE",
"121 96 OFFCURVE",
"111 96 CURVE SMOOTH",
"91 96 OFFCURVE",
"78 84 OFFCURVE",
"78 48 CURVE SMOOTH",
"78 2 OFFCURVE",
"102 0 OFFCURVE",
"162 0 CURVE SMOOTH"
);
},
{
closed = 1;
nodes = (
"548 0 LINE",
"548 81 LINE",
"350 81 LINE",
"350 0 LINE"
);
}
);
width = 514;
}
);
},
{
glyphname = u10AC3.medi;
lastChange = "2018-03-14 14:29:06 +0000";
layers = (
{
layerId = UUID0;
paths = (
{
closed = 1;
nodes = (
"278 -303 OFFCURVE",
"351 -251 OFFCURVE",
"351 -179 CURVE SMOOTH",
"351 -135 OFFCURVE",
"323 -55 OFFCURVE",
"295 16 CURVE SMOOTH",
"140 413 LINE SMOOTH",
"122 460 OFFCURVE",
"110 499 OFFCURVE",
"110 513 CURVE SMOOTH",
"110 523 OFFCURVE",
"117 535 OFFCURVE",
"124 545 CURVE SMOOTH",
"131 556 OFFCURVE",
"137 566 OFFCURVE",
"137 576 CURVE SMOOTH",
"137 597 OFFCURVE",
"119 625 OFFCURVE",
"30 625 CURVE SMOOTH",
"-5 625 OFFCURVE",
"-16 609 OFFCURVE",
"-16 587 CURVE SMOOTH",
"-16 553 OFFCURVE",
"17 469 OFFCURVE",
"58 368 CURVE SMOOTH",
"196 26 LINE SMOOTH",
"224 -44 OFFCURVE",
"262 -150 OFFCURVE",
"262 -189 CURVE SMOOTH",
"262 -212 OFFCURVE",
"249 -232 OFFCURVE",
"235 -247 CURVE SMOOTH",
"224 -259 OFFCURVE",
"215 -270 OFFCURVE",
"215 -282 CURVE SMOOTH",
"215 -297 OFFCURVE",
"227 -303 OFFCURVE",
"238 -303 CURVE SMOOTH"
);
},
{
closed = 1;
nodes = (
"233 0 LINE",
"219 81 LINE",
"-39 81 LINE",
"-39 0 LINE"
);
},
{
closed = 1;
nodes = (
"447 0 LINE",
"447 81 LINE",
"249 81 LINE",
"249 0 LINE"
);
}
);
width = 407;
}
);
},
{
glyphname = u10AC3.init;
lastChange = "2018-03-14 14:29:06 +0000";
layers = (
{
layerId = UUID0;
paths = (
{
closed = 1;
nodes = (
"278 -303 OFFCURVE",
"351 -251 OFFCURVE",
"351 -179 CURVE SMOOTH",
"351 -135 OFFCURVE",
"323 -55 OFFCURVE",
"295 16 CURVE SMOOTH",
"140 413 LINE SMOOTH",
"122 460 OFFCURVE",
"110 499 OFFCURVE",
"110 513 CURVE SMOOTH",
"110 523 OFFCURVE",
"117 535 OFFCURVE",
"124 545 CURVE SMOOTH",
"131 556 OFFCURVE",
"137 566 OFFCURVE",
"137 576 CURVE SMOOTH",
"137 597 OFFCURVE",
"119 625 OFFCURVE",
"30 625 CURVE SMOOTH",
"-5 625 OFFCURVE",
"-16 609 OFFCURVE",
"-16 587 CURVE SMOOTH",
"-16 553 OFFCURVE",
"17 469 OFFCURVE",
"58 368 CURVE SMOOTH",
"196 26 LINE SMOOTH",
"224 -44 OFFCURVE",
"262 -150 OFFCURVE",
"262 -189 CURVE SMOOTH",
"262 -212 OFFCURVE",
"249 -232 OFFCURVE",
"235 -247 CURVE SMOOTH",
"224 -259 OFFCURVE",
"215 -270 OFFCURVE",
"215 -282 CURVE SMOOTH",
"215 -297 OFFCURVE",
"227 -303 OFFCURVE",
"238 -303 CURVE SMOOTH"
);
},
{
closed = 1;
nodes = (
"233 0 LINE",
"219 81 LINE",
"-39 81 LINE",
"-39 0 LINE"
);
}
);
width = 427;
}
);
},
{
glyphname = u10AC4.fina;
lastChange = "2018-03-14 14:29:06 +0000";
layers = (
{
layerId = UUID0;
paths = (
{
closed = 1;
nodes = (
"361 -337 OFFCURVE",
"433 -268 OFFCURVE",
"433 -173 CURVE SMOOTH",
"433 -128 OFFCURVE",
"397 -37 OFFCURVE",
"364 46 CURVE SMOOTH",
"217 413 LINE SMOOTH",
"198 460 OFFCURVE",
"188 499 OFFCURVE",
"188 513 CURVE SMOOTH",
"188 523 OFFCURVE",
"194 535 OFFCURVE",
"201 545 CURVE SMOOTH",
"208 556 OFFCURVE",
"214 566 OFFCURVE",
"214 576 CURVE SMOOTH",
"214 597 OFFCURVE",
"196 625 OFFCURVE",
"107 625 CURVE SMOOTH",
"72 625 OFFCURVE",
"62 609 OFFCURVE",
"62 587 CURVE SMOOTH",
"62 553 OFFCURVE",
"94 469 OFFCURVE",
"135 368 CURVE SMOOTH",
"308 -63 LINE SMOOTH",
"332 -122 OFFCURVE",
"343 -162 OFFCURVE",
"343 -185 CURVE SMOOTH",
"343 -225 OFFCURVE",
"314 -255 OFFCURVE",
"262 -255 CURVE SMOOTH",
"229 -255 OFFCURVE",
"206 -241 OFFCURVE",
"206 -211 CURVE SMOOTH",
"206 -169 OFFCURVE",
"252 -134 OFFCURVE",
"373 -134 CURVE",
"349 -67 LINE",
"191 -67 OFFCURVE",
"115 -128 OFFCURVE",
"115 -218 CURVE SMOOTH",
"115 -282 OFFCURVE",
"161 -337 OFFCURVE",
"253 -337 CURVE SMOOTH"
);
},
{
closed = 1;
nodes = (
"340 0 LINE",
"314 81 LINE",
"181 81 LINE SMOOTH",
"161 81 OFFCURVE",
"142 84 OFFCURVE",
"126 89 CURVE SMOOTH",
"114 93 OFFCURVE",
"100 96 OFFCURVE",
"91 96 CURVE SMOOTH",
"71 96 OFFCURVE",
"58 84 OFFCURVE",
"58 48 CURVE SMOOTH",
"58 2 OFFCURVE",
"82 0 OFFCURVE",
"142 0 CURVE SMOOTH"
);
},
{
closed = 1;
nodes = (
"531 0 LINE",
"531 81 LINE",
"333 81 LINE",
"333 0 LINE"
);
}
);
width = 492;
}
);
},
{
glyphname = u10AC4.medi;
lastChange = "2018-03-14 14:29:06 +0000";
layers = (
{
layerId = UUID0;
paths = (
{
closed = 1;
nodes = (
"279 -337 OFFCURVE",
"351 -268 OFFCURVE",
"351 -173 CURVE SMOOTH",
"351 -128 OFFCURVE",
"315 -37 OFFCURVE",
"282 46 CURVE SMOOTH",
"135 413 LINE SMOOTH",
"116 460 OFFCURVE",
"105 499 OFFCURVE",
"105 513 CURVE SMOOTH",
"105 523 OFFCURVE",
"112 535 OFFCURVE",
"119 545 CURVE SMOOTH",
"126 556 OFFCURVE",
"132 566 OFFCURVE",
"132 576 CURVE SMOOTH",
"132 597 OFFCURVE",
"114 625 OFFCURVE",
"25 625 CURVE SMOOTH",
"-10 625 OFFCURVE",
"-21 609 OFFCURVE",
"-21 587 CURVE SMOOTH",
"-21 553 OFFCURVE",
"12 469 OFFCURVE",
"53 368 CURVE SMOOTH",
"226 -63 LINE SMOOTH",
"250 -122 OFFCURVE",
"261 -162 OFFCURVE",
"261 -185 CURVE SMOOTH",
"261 -225 OFFCURVE",
"232 -255 OFFCURVE",
"180 -255 CURVE SMOOTH",
"147 -255 OFFCURVE",
"124 -241 OFFCURVE",
"124 -211 CURVE SMOOTH",
"124 -169 OFFCURVE",
"170 -134 OFFCURVE",
"291 -134 CURVE",
"267 -67 LINE",
"109 -67 OFFCURVE",
"33 -128 OFFCURVE",
"33 -218 CURVE SMOOTH",
"33 -282 OFFCURVE",
"79 -337 OFFCURVE",
"171 -337 CURVE SMOOTH"
);
},
{
closed = 1;
nodes = (
"224 0 LINE",
"190 81 LINE",
"-39 81 LINE",
"-39 0 LINE"
);
},
{
closed = 1;
nodes = (
"427 0 LINE",
"427 81 LINE",
"229 81 LINE",
"229 0 LINE"
);
}
);
width = 388;
}
);
},
{
glyphname = u10AC4.init;
lastChange = "2018-03-14 14:29:06 +0000";
layers = (
{
layerId = UUID0;
paths = (
{
closed = 1;
nodes = (
"279 -337 OFFCURVE",
"351 -268 OFFCURVE",
"351 -173 CURVE SMOOTH",
"351 -128 OFFCURVE",
"315 -37 OFFCURVE",
"282 46 CURVE SMOOTH",
"135 413 LINE SMOOTH",
"116 460 OFFCURVE",
"105 499 OFFCURVE",
"105 513 CURVE SMOOTH",
"105 523 OFFCURVE",
"112 535 OFFCURVE",
"119 545 CURVE SMOOTH",
"126 556 OFFCURVE",
"132 566 OFFCURVE",
"132 576 CURVE SMOOTH",
"132 597 OFFCURVE",
"114 625 OFFCURVE",
"25 625 CURVE SMOOTH",
"-10 625 OFFCURVE",
"-21 609 OFFCURVE",
"-21 587 CURVE SMOOTH",
"-21 553 OFFCURVE",
"12 469 OFFCURVE",
"53 368 CURVE SMOOTH",
"226 -63 LINE SMOOTH",
"250 -122 OFFCURVE",
"261 -162 OFFCURVE",
"261 -185 CURVE SMOOTH",
"261 -225 OFFCURVE",
"232 -255 OFFCURVE",
"180 -255 CURVE SMOOTH",
"147 -255 OFFCURVE",
"124 -241 OFFCURVE",
"124 -211 CURVE SMOOTH",
"124 -169 OFFCURVE",
"170 -134 OFFCURVE",
"291 -134 CURVE",
"267 -67 LINE",
"109 -67 OFFCURVE",
"33 -128 OFFCURVE",
"33 -218 CURVE SMOOTH",
"33 -282 OFFCURVE",
"79 -337 OFFCURVE",
"171 -337 CURVE SMOOTH"
);
},
{
closed = 1;
nodes = (
"224 0 LINE",
"190 81 LINE",
"-39 81 LINE",
"-39 0 LINE"
);
}
);
width = 407;
}
);
},
{
glyphname = u10AC5.fina;
lastChange = "2018-03-14 14:29:06 +0000";
layers = (
{
layerId = UUID0;
paths = (
{
closed = 1;
nodes = (
"306 -89 OFFCURVE",
"314 -78 OFFCURVE",
"314 -63 CURVE SMOOTH",
"314 -42 OFFCURVE",
"300 -25 OFFCURVE",
"280 -3 CURVE SMOOTH",
"258 22 OFFCURVE",
"241 48 OFFCURVE",
"241 70 CURVE SMOOTH",
"241 89 OFFCURVE",
"253 100 OFFCURVE",
"268 109 CURVE SMOOTH",
"279 115 OFFCURVE",
"301 130 OFFCURVE",
"301 156 CURVE SMOOTH",
"301 211 OFFCURVE",
"198 236 OFFCURVE",
"134 236 CURVE SMOOTH",
"67 236 OFFCURVE",
"44 208 OFFCURVE",
"44 171 CURVE SMOOTH",
"44 74 OFFCURVE",
"208 -89 OFFCURVE",
"286 -89 CURVE SMOOTH"
);
},
{
closed = 1;
nodes = (
"424 0 LINE",
"424 81 LINE",
"153 81 LINE",
"153 0 LINE"
);
}
);
width = 385;
}
);
},
{
glyphname = u10AC7.fina;
lastChange = "2018-03-14 14:29:06 +0000";
layers = (
{
layerId = UUID0;
paths = (
{
closed = 1;
nodes = (
"389 -45 OFFCURVE",
"392 -35 OFFCURVE",
"392 -20 CURVE SMOOTH",
"392 0 OFFCURVE",
"384 27 OFFCURVE",
"377 48 CURVE SMOOTH",
"362 96 OFFCURVE",
"288 284 OFFCURVE",
"176 284 CURVE SMOOTH",
"117 284 OFFCURVE",
"59 208 OFFCURVE",
"59 138 CURVE SMOOTH",
"59 92 OFFCURVE",
"115 3 OFFCURVE",
"163 3 CURVE SMOOTH",
"181 3 OFFCURVE",
"184 15 OFFCURVE",
"192 46 CURVE SMOOTH",
"199 74 OFFCURVE",
"208 105 OFFCURVE",
"238 105 CURVE SMOOTH",
"275 105 OFFCURVE",
"308 53 OFFCURVE",
"329 15 CURVE SMOOTH",
"350 -24 OFFCURVE",
"362 -45 OFFCURVE",
"377 -45 CURVE SMOOTH"
);
},
{
closed = 1;
nodes = (
"468 0 LINE",
"468 81 LINE",
"358 81 LINE",
"358 0 LINE"
);
}
);
width = 429;
}
);
},
{
glyphname = u10AC9.fina;
lastChange = "2018-03-14 14:29:06 +0000";
layers = (
{
layerId = UUID0;
paths = (
{
closed = 1;
nodes = (
"383 -171 OFFCURVE",
"412 -149 OFFCURVE",
"412 -99 CURVE SMOOTH",
"412 -61 OFFCURVE",
"385 -2 OFFCURVE",
"316 48 CURVE SMOOTH",
"234 108 OFFCURVE",
"201 170 OFFCURVE",
"201 212 CURVE SMOOTH",
"201 239 OFFCURVE",
"229 262 OFFCURVE",
"253 277 CURVE SMOOTH",
"270 288 OFFCURVE",
"284 298 OFFCURVE",
"284 313 CURVE SMOOTH",
"284 337 OFFCURVE",
"243 384 OFFCURVE",
"158 384 CURVE SMOOTH",
"112 384 OFFCURVE",
"59 365 OFFCURVE",
"59 293 CURVE SMOOTH",
"59 191 OFFCURVE",
"171 80 OFFCURVE",
"234 19 CURVE SMOOTH",
"283 -29 OFFCURVE",
"284 -72 OFFCURVE",
"284 -115 CURVE SMOOTH",
"284 -149 OFFCURVE",
"303 -171 OFFCURVE",
"344 -171 CURVE SMOOTH"
);
},
{
closed = 1;
nodes = (
"464 0 LINE",
"464 81 LINE",
"266 81 LINE",
"266 0 LINE"
);
}
);
width = 424;
}
);
},
{
glyphname = u10ACA.fina;
lastChange = "2018-03-14 14:29:06 +0000";
layers = (
{
layerId = UUID0;
paths = (
{
closed = 1;
nodes = (
"383 -171 OFFCURVE",
"412 -149 OFFCURVE",
"412 -99 CURVE SMOOTH",
"412 -61 OFFCURVE",
"385 -2 OFFCURVE",
"316 48 CURVE SMOOTH",
"234 108 OFFCURVE",
"201 170 OFFCURVE",
"201 212 CURVE SMOOTH",
"201 239 OFFCURVE",
"229 262 OFFCURVE",
"253 277 CURVE SMOOTH",
"270 288 OFFCURVE",
"284 298 OFFCURVE",
"284 313 CURVE SMOOTH",
"284 337 OFFCURVE",
"243 384 OFFCURVE",
"158 384 CURVE SMOOTH",
"112 384 OFFCURVE",
"59 365 OFFCURVE",
"59 293 CURVE SMOOTH",
"59 191 OFFCURVE",
"171 80 OFFCURVE",
"234 19 CURVE SMOOTH",
"283 -29 OFFCURVE",
"284 -72 OFFCURVE",
"284 -115 CURVE SMOOTH",
"284 -149 OFFCURVE",
"303 -171 OFFCURVE",
"344 -171 CURVE SMOOTH"
);
},
{
closed = 1;
nodes = (
"105 440 OFFCURVE",
"122 464 OFFCURVE",
"122 494 CURVE SMOOTH",
"122 523 OFFCURVE",
"90 548 OFFCURVE",
"60 548 CURVE SMOOTH",
"31 548 OFFCURVE",
"13 523 OFFCURVE",
"13 494 CURVE SMOOTH",
"13 464 OFFCURVE",
"45 440 OFFCURVE",
"75 440 CURVE SMOOTH"
);
},
{
closed = 1;
nodes = (
"266 440 OFFCURVE",
"283 464 OFFCURVE",
"283 494 CURVE SMOOTH",
"283 523 OFFCURVE",
"251 548 OFFCURVE",
"221 548 CURVE SMOOTH",
"192 548 OFFCURVE",
"175 523 OFFCURVE",
"175 494 CURVE SMOOTH",
"175 464 OFFCURVE",
"206 440 OFFCURVE",
"236 440 CURVE SMOOTH"
);
},
{
closed = 1;
nodes = (
"464 0 LINE",
"464 81 LINE",
"266 81 LINE",
"266 0 LINE"
);
}
);
width = 424;
}
);
},
{
glyphname = u10ACD.init;
lastChange = "2018-03-14 14:29:06 +0000";
layers = (
{
layerId = UUID0;
paths = (
{
closed = 1;
nodes = (
"555 -10 OFFCURVE",
"570 12 OFFCURVE",
"570 68 CURVE SMOOTH",
"570 106 OFFCURVE",
"562 145 OFFCURVE",
"548 184 CURVE SMOOTH",
"534 223 OFFCURVE",
"521 261 OFFCURVE",
"521 292 CURVE SMOOTH",
"521 314 OFFCURVE",
"522 337 OFFCURVE",
"527 359 CURVE SMOOTH",
"529 368 OFFCURVE",
"530 386 OFFCURVE",
"530 393 CURVE SMOOTH",
"530 437 OFFCURVE",
"505 449 OFFCURVE",
"467 449 CURVE SMOOTH",
"433 449 OFFCURVE",
"412 436 OFFCURVE",
"412 394 CURVE SMOOTH",
"412 358 OFFCURVE",
"429 298 OFFCURVE",
"443 253 CURVE SMOOTH",
"452 224 OFFCURVE",
"473 153 OFFCURVE",
"473 115 CURVE",
"434 136 OFFCURVE",
"384 176 OFFCURVE",
"342 217 CURVE SMOOTH",
"301 257 OFFCURVE",
"260 302 OFFCURVE",
"229 337 CURVE SMOOTH",
"170 404 OFFCURVE",
"130 449 OFFCURVE",
"81 449 CURVE SMOOTH",
"56 449 OFFCURVE",
"33 440 OFFCURVE",
"33 403 CURVE SMOOTH",
"33 357 OFFCURVE",
"81 321 OFFCURVE",
"165 261 CURVE",
"163 153 OFFCURVE",
"148 81 OFFCURVE",
"64 81 CURVE SMOOTH",
"-39 81 LINE",
"-39 0 LINE",
"70 0 LINE SMOOTH",
"204 0 OFFCURVE",
"238 99 OFFCURVE",
"247 199 CURVE",
"302 158 OFFCURVE",
"354 109 OFFCURVE",
"392 70 CURVE SMOOTH",
"434 26 OFFCURVE",
"470 -10 OFFCURVE",
"514 -10 CURVE SMOOTH"
);
}
);
width = 624;
}
);
},
{
glyphname = u10ACE.fina;
lastChange = "2018-03-14 14:29:06 +0000";
layers = (
{
layerId = UUID0;
paths = (
{
closed = 1;
nodes = (
"414 -135 OFFCURVE",
"461 -78 OFFCURVE",
"461 2 CURVE SMOOTH",
"461 75 OFFCURVE",
"422 135 OFFCURVE",
"337 135 CURVE SMOOTH",
"280 135 OFFCURVE",
"219 108 OFFCURVE",
"166 64 CURVE",
"197 1 LINE",
"248 42 OFFCURVE",
"291 57 OFFCURVE",
"318 57 CURVE SMOOTH",
"357 57 OFFCURVE",
"372 27 OFFCURVE",
"372 -2 CURVE SMOOTH",
"372 -34 OFFCURVE",
"354 -54 OFFCURVE",
"323 -54 CURVE SMOOTH",
"217 -54 OFFCURVE",
"140 159 OFFCURVE",
"140 315 CURVE SMOOTH",
"140 386 OFFCURVE",
"156 450 OFFCURVE",
"215 450 CURVE SMOOTH",
"246 450 OFFCURVE",
"270 433 OFFCURVE",
"270 395 CURVE SMOOTH",
"270 357 OFFCURVE",
"241 321 OFFCURVE",
"92 321 CURVE",
"105 252 LINE",
"283 252 OFFCURVE",
"351 302 OFFCURVE",
"351 396 CURVE SMOOTH",
"351 475 OFFCURVE",
"302 530 OFFCURVE",
"222 530 CURVE SMOOTH",
"127 530 OFFCURVE",
"59 454 OFFCURVE",
"59 311 CURVE SMOOTH",
"59 124 OFFCURVE",
"150 -135 OFFCURVE",
"332 -135 CURVE SMOOTH"
);
},
{
closed = 1;
nodes = (
"571 0 LINE",
"571 81 LINE",
"373 81 LINE",
"373 0 LINE"
);
}
);
width = 530;
}
);
},
{
glyphname = u10ACF.fina;
lastChange = "2018-03-14 14:29:06 +0000";
layers = (
{
layerId = UUID0;
paths = (
{
closed = 1;
nodes = (
"374 -10 OFFCURVE",
"448 29 OFFCURVE",
"448 118 CURVE SMOOTH",
"448 231 OFFCURVE",
"342 351 OFFCURVE",
"239 351 CURVE SMOOTH",
"176 351 OFFCURVE",
"142 322 OFFCURVE",
"114 280 CURVE SMOOTH",
"93 248 OFFCURVE",
"71 201 OFFCURVE",
"71 160 CURVE SMOOTH",
"71 137 OFFCURVE",
"80 117 OFFCURVE",
"109 117 CURVE SMOOTH",
"138 117 OFFCURVE",
"147 139 OFFCURVE",
"157 169 CURVE SMOOTH",
"176 229 OFFCURVE",
"188 265 OFFCURVE",
"235 265 CURVE SMOOTH",
"294 265 OFFCURVE",
"357 192 OFFCURVE",
"357 132 CURVE SMOOTH",
"357 93 OFFCURVE",
"314 71 OFFCURVE",
"262 71 CURVE SMOOTH",
"228 71 OFFCURVE",
"201 72 OFFCURVE",
"176 75 CURVE SMOOTH",
"149 78 OFFCURVE",
"134 79 OFFCURVE",
"113 79 CURVE SMOOTH",
"77 79 OFFCURVE",
"59 66 OFFCURVE",
"59 42 CURVE SMOOTH",
"59 -5 OFFCURVE",
"126 -10 OFFCURVE",
"247 -10 CURVE SMOOTH"
);
},
{
closed = 1;
nodes = (
"542 0 LINE",
"542 81 LINE",
"344 81 LINE",
"344 0 LINE"
);
}
);
width = 507;
}
);
},
{
glyphname = u10AD0.fina;
lastChange = "2018-03-14 14:29:06 +0000";
layers = (
{
layerId = UUID0;
paths = (
{
closed = 1;
nodes = (
"931 -171 LINE SMOOTH",
"974 -171 OFFCURVE",
"1003 -160 OFFCURVE",
"1003 -126 CURVE SMOOTH",
"1003 -80 OFFCURVE",
"923 110 OFFCURVE",
"884 163 CURVE SMOOTH",
"832 234 OFFCURVE",
"796 254 OFFCURVE",
"744 254 CURVE SMOOTH",
"692 254 OFFCURVE",
"646 227 OFFCURVE",
"646 154 CURVE SMOOTH",
"646 85 OFFCURVE",
"696 55 OFFCURVE",
"753 55 CURVE SMOOTH",
"775 55 OFFCURVE",
"802 59 OFFCURVE",
"828 68 CURVE",
"851 45 OFFCURVE",
"893 -48 OFFCURVE",
"893 -71 CURVE SMOOTH",
"893 -84 OFFCURVE",
"883 -90 OFFCURVE",
"847 -90 CURVE SMOOTH",
"224 -90 LINE SMOOTH",
"194 -90 OFFCURVE",
"172 -78 OFFCURVE",
"154 -65 CURVE SMOOTH",
"137 -53 OFFCURVE",
"119 -42 OFFCURVE",
"99 -42 CURVE SMOOTH",
"57 -42 OFFCURVE",
"44 -70 OFFCURVE",
"44 -99 CURVE SMOOTH",
"44 -143 OFFCURVE",
"80 -171 OFFCURVE",
"146 -171 CURVE SMOOTH"
);
},
{
closed = 1;
nodes = (
"1087 0 LINE",
"1087 81 LINE",
"889 81 LINE",
"889 0 LINE"
);
}
);
width = 1047;
}
);
},
{
glyphname = u10AD1.fina;
lastChange = "2018-03-14 14:29:06 +0000";
layers = (
{
layerId = UUID0;
paths = (
{
closed = 1;
nodes = (
"931 -171 LINE SMOOTH",
"974 -171 OFFCURVE",
"1003 -160 OFFCURVE",
"1003 -126 CURVE SMOOTH",
"1003 -80 OFFCURVE",
"923 110 OFFCURVE",
"884 163 CURVE SMOOTH",
"832 234 OFFCURVE",
"796 254 OFFCURVE",
"744 254 CURVE SMOOTH",
"692 254 OFFCURVE",
"646 227 OFFCURVE",
"646 154 CURVE SMOOTH",
"646 85 OFFCURVE",
"696 55 OFFCURVE",
"753 55 CURVE SMOOTH",
"775 55 OFFCURVE",
"802 59 OFFCURVE",
"828 68 CURVE",
"851 45 OFFCURVE",
"893 -48 OFFCURVE",
"893 -71 CURVE SMOOTH",
"893 -84 OFFCURVE",
"883 -90 OFFCURVE",
"847 -90 CURVE SMOOTH",
"224 -90 LINE SMOOTH",
"194 -90 OFFCURVE",
"172 -78 OFFCURVE",
"154 -65 CURVE SMOOTH",
"137 -53 OFFCURVE",
"119 -42 OFFCURVE",
"99 -42 CURVE SMOOTH",
"57 -42 OFFCURVE",
"44 -70 OFFCURVE",
"44 -99 CURVE SMOOTH",
"44 -143 OFFCURVE",
"80 -171 OFFCURVE",
"146 -171 CURVE SMOOTH"
);
},
{
closed = 1;
nodes = (
"1087 0 LINE",
"1087 81 LINE",
"889 81 LINE",
"889 0 LINE"
);
},
{
closed = 1;
nodes = (
"662 313 OFFCURVE",
"679 337 OFFCURVE",
"679 367 CURVE SMOOTH",
"679 396 OFFCURVE",
"647 421 OFFCURVE",
"617 421 CURVE SMOOTH",
"588 421 OFFCURVE",
"571 396 OFFCURVE",
"571 367 CURVE SMOOTH",
"571 337 OFFCURVE",
"602 313 OFFCURVE",
"632 313 CURVE SMOOTH"
);
}
);
width = 1047;
}
);
},
{
glyphname = u10AD2.fina;
lastChange = "2018-03-14 14:29:06 +0000";
layers = (
{
layerId = UUID0;
paths = (
{
closed = 1;
nodes = (
"931 -171 LINE SMOOTH",
"974 -171 OFFCURVE",
"1003 -160 OFFCURVE",
"1003 -126 CURVE SMOOTH",
"1003 -80 OFFCURVE",
"923 110 OFFCURVE",
"884 163 CURVE SMOOTH",
"832 234 OFFCURVE",
"796 254 OFFCURVE",
"744 254 CURVE SMOOTH",
"692 254 OFFCURVE",
"646 227 OFFCURVE",
"646 154 CURVE SMOOTH",
"646 85 OFFCURVE",
"696 55 OFFCURVE",
"753 55 CURVE SMOOTH",
"775 55 OFFCURVE",
"802 59 OFFCURVE",
"828 68 CURVE",
"851 45 OFFCURVE",
"893 -48 OFFCURVE",
"893 -71 CURVE SMOOTH",
"893 -84 OFFCURVE",
"883 -90 OFFCURVE",
"847 -90 CURVE SMOOTH",
"224 -90 LINE SMOOTH",
"194 -90 OFFCURVE",
"172 -78 OFFCURVE",
"154 -65 CURVE SMOOTH",
"137 -53 OFFCURVE",
"119 -42 OFFCURVE",
"99 -42 CURVE SMOOTH",
"57 -42 OFFCURVE",
"44 -70 OFFCURVE",
"44 -99 CURVE SMOOTH",
"44 -143 OFFCURVE",
"80 -171 OFFCURVE",
"146 -171 CURVE SMOOTH"
);
},
{
closed = 1;
nodes = (
"1087 0 LINE",
"1087 81 LINE",
"889 81 LINE",
"889 0 LINE"
);
},
{
closed = 1;
nodes = (
"618 313 OFFCURVE",
"635 337 OFFCURVE",
"635 367 CURVE SMOOTH",
"635 396 OFFCURVE",
"603 421 OFFCURVE",
"573 421 CURVE SMOOTH",
"544 421 OFFCURVE",
"526 396 OFFCURVE",
"526 367 CURVE SMOOTH",
"526 337 OFFCURVE",
"558 313 OFFCURVE",
"588 313 CURVE SMOOTH"
);
},
{
closed = 1;
nodes = (
"779 313 OFFCURVE",
"796 337 OFFCURVE",
"796 367 CURVE SMOOTH",
"796 396 OFFCURVE",
"764 421 OFFCURVE",
"734 421 CURVE SMOOTH",
"705 421 OFFCURVE",
"688 396 OFFCURVE",
"688 367 CURVE SMOOTH",
"688 337 OFFCURVE",
"719 313 OFFCURVE",
"749 313 CURVE SMOOTH"
);
}
);
width = 1047;
}
);
},
{
glyphname = u10AD3.fina;
lastChange = "2018-03-14 14:29:06 +0000";
layers = (
{
layerId = UUID0;
paths = (
{
closed = 1;
nodes = (
"710 0 LINE SMOOTH",
"732 0 OFFCURVE",
"748 5 OFFCURVE",
"748 24 CURVE SMOOTH",
"748 34 OFFCURVE",
"728 58 OFFCURVE",
"709 81 CURVE SMOOTH",
"681 115 OFFCURVE",
"654 170 OFFCURVE",
"627 243 CURVE SMOOTH",
"578 377 OFFCURVE",
"509 535 OFFCURVE",
"360 535 CURVE SMOOTH",
"223 535 OFFCURVE",
"184 443 OFFCURVE",
"184 356 CURVE SMOOTH",
"184 235 OFFCURVE",
"267 139 OFFCURVE",
"387 81 CURVE",
"229 81 LINE SMOOTH",
"193 81 OFFCURVE",
"172 94 OFFCURVE",
"153 107 CURVE SMOOTH",
"136 119 OFFCURVE",
"119 129 OFFCURVE",
"96 129 CURVE SMOOTH",
"57 129 OFFCURVE",
"44 102 OFFCURVE",
"44 72 CURVE SMOOTH",
"44 28 OFFCURVE",
"80 0 OFFCURVE",
"146 0 CURVE SMOOTH"
);
},
{
closed = 1;
nodes = (
"436 105 OFFCURVE",
"274 244 OFFCURVE",
"274 361 CURVE SMOOTH",
"274 413 OFFCURVE",
"302 442 OFFCURVE",
"356 442 CURVE SMOOTH",
"449 442 OFFCURVE",
"495 333 OFFCURVE",
"537 216 CURVE SMOOTH",
"555 166 OFFCURVE",
"573 120 OFFCURVE",
"593 81 CURVE"
);
},
{
closed = 1;
nodes = (
"831 0 LINE",
"831 81 LINE",
"633 81 LINE",
"633 0 LINE"
);
}
);
width = 792;
}
);
},
{
glyphname = u10AD3.medi;
lastChange = "2018-03-14 14:29:06 +0000";
layers = (
{
layerId = UUID0;
paths = (
{
closed = 1;
nodes = (
"581 0 LINE SMOOTH",
"604 0 OFFCURVE",
"619 5 OFFCURVE",
"619 24 CURVE SMOOTH",
"619 40 OFFCURVE",
"606 56 OFFCURVE",
"581 85 CURVE SMOOTH",
"549 122 OFFCURVE",
"526 175 OFFCURVE",
"499 243 CURVE SMOOTH",
"446 375 OFFCURVE",
"380 535 OFFCURVE",
"231 535 CURVE SMOOTH",
"94 535 OFFCURVE",
"55 443 OFFCURVE",
"55 356 CURVE SMOOTH",
"55 233 OFFCURVE",
"138 140 OFFCURVE",
"258 81 CURVE",
"-39 81 LINE",
"-39 0 LINE"
);
},
{
closed = 1;
nodes = (
"307 110 OFFCURVE",
"146 244 OFFCURVE",
"146 361 CURVE SMOOTH",
"146 413 OFFCURVE",
"173 442 OFFCURVE",
"227 442 CURVE SMOOTH",
"320 442 OFFCURVE",
"364 331 OFFCURVE",
"408 216 CURVE SMOOTH",
"426 170 OFFCURVE",
"444 125 OFFCURVE",
"464 85 CURVE"
);
},
{
closed = 1;
nodes = (
"699 0 LINE",
"699 81 LINE",
"501 81 LINE",
"501 0 LINE"
);
}
);
width = 660;
}
);
},
{
glyphname = u10AD3.init;
lastChange = "2018-03-14 14:29:06 +0000";
layers = (
{
layerId = UUID0;
paths = (
{
closed = 1;
nodes = (
"581 0 LINE SMOOTH",
"604 0 OFFCURVE",
"619 5 OFFCURVE",
"619 24 CURVE SMOOTH",
"619 40 OFFCURVE",
"606 56 OFFCURVE",
"581 85 CURVE SMOOTH",
"549 122 OFFCURVE",
"526 175 OFFCURVE",
"499 243 CURVE SMOOTH",
"446 375 OFFCURVE",
"380 535 OFFCURVE",
"231 535 CURVE SMOOTH",
"94 535 OFFCURVE",
"55 443 OFFCURVE",
"55 356 CURVE SMOOTH",
"55 233 OFFCURVE",
"138 140 OFFCURVE",
"258 81 CURVE",
"-39 81 LINE",
"-39 0 LINE"
);
},
{
closed = 1;
nodes = (
"307 110 OFFCURVE",
"146 244 OFFCURVE",
"146 361 CURVE SMOOTH",
"146 413 OFFCURVE",
"173 442 OFFCURVE",
"227 442 CURVE SMOOTH",
"320 442 OFFCURVE",
"364 331 OFFCURVE",
"408 216 CURVE SMOOTH",
"426 170 OFFCURVE",
"444 125 OFFCURVE",
"464 85 CURVE"
);
}
);
width = 660;
}
);
},
{
glyphname = u10AD4.fina;
lastChange = "2018-03-14 14:29:06 +0000";
layers = (
{
layerId = UUID0;
paths = (
{
closed = 1;
nodes = (
"659 0 LINE SMOOTH",
"733 0 OFFCURVE",
"779 2 OFFCURVE",
"779 53 CURVE SMOOTH",
"779 90 OFFCURVE",
"740 185 OFFCURVE",
"718 234 CURVE SMOOTH",
"690 296 OFFCURVE",
"649 392 OFFCURVE",
"649 412 CURVE SMOOTH",
"649 425 OFFCURVE",
"654 436 OFFCURVE",
"660 445 CURVE SMOOTH",
"666 453 OFFCURVE",
"668 463 OFFCURVE",
"668 473 CURVE SMOOTH",
"668 507 OFFCURVE",
"606 522 OFFCURVE",
"569 522 CURVE SMOOTH",
"540 522 OFFCURVE",
"524 514 OFFCURVE",
"524 495 CURVE SMOOTH",
"524 471 OFFCURVE",
"578 349 OFFCURVE",
"613 271 CURVE SMOOTH",
"651 185 OFFCURVE",
"676 125 OFFCURVE",
"676 104 CURVE SMOOTH",
"676 83 OFFCURVE",
"653 81 OFFCURVE",
"618 81 CURVE SMOOTH",
"212 81 LINE SMOOTH",
"163 81 OFFCURVE",
"130 97 OFFCURVE",
"107 109 CURVE SMOOTH",
"94 116 OFFCURVE",
"83 121 OFFCURVE",
"74 121 CURVE SMOOTH",
"54 121 OFFCURVE",
"44 103 OFFCURVE",
"44 79 CURVE SMOOTH",
"44 38 OFFCURVE",
"72 0 OFFCURVE",
"139 0 CURVE SMOOTH"
);
},
{
closed = 1;
nodes = (
"867 0 LINE",
"867 81 LINE",
"669 81 LINE",
"669 0 LINE"
);
}
);
width = 828;
}
);
},
{
glyphname = u10AD4.medi;
lastChange = "2018-03-14 14:29:06 +0000";
layers = (
{
layerId = UUID0;
paths = (
{
closed = 1;
nodes = (
"143 0 LINE SMOOTH",
"217 0 OFFCURVE",
"268 2 OFFCURVE",
"268 53 CURVE SMOOTH",
"268 90 OFFCURVE",
"229 185 OFFCURVE",
"207 234 CURVE SMOOTH",
"179 297 OFFCURVE",
"138 392 OFFCURVE",
"138 412 CURVE SMOOTH",
"138 425 OFFCURVE",
"143 436 OFFCURVE",
"148 445 CURVE SMOOTH",
"153 454 OFFCURVE",
"157 463 OFFCURVE",
"157 473 CURVE SMOOTH",
"157 507 OFFCURVE",
"90 522 OFFCURVE",
"53 522 CURVE SMOOTH",
"24 522 OFFCURVE",
"8 514 OFFCURVE",
"8 495 CURVE SMOOTH",
"8 471 OFFCURVE",
"62 348 OFFCURVE",
"97 271 CURVE SMOOTH",
"134 189 OFFCURVE",
"160 130 OFFCURVE",
"160 109 CURVE SMOOTH",
"160 83 OFFCURVE",
"137 81 OFFCURVE",
"102 81 CURVE SMOOTH",
"-39 81 LINE",
"-39 0 LINE"
);
},
{
closed = 1;
nodes = (
"350 0 LINE",
"350 81 LINE",
"152 81 LINE",
"152 0 LINE"
);
}
);
width = 311;
}
);
},
{
glyphname = u10AD4.init;
lastChange = "2018-03-14 14:29:06 +0000";
layers = (
{
layerId = UUID0;
paths = (
{
closed = 1;
nodes = (
"143 0 LINE SMOOTH",
"217 0 OFFCURVE",
"268 2 OFFCURVE",
"268 53 CURVE SMOOTH",
"268 90 OFFCURVE",
"229 185 OFFCURVE",
"207 234 CURVE SMOOTH",
"179 297 OFFCURVE",
"138 392 OFFCURVE",
"138 412 CURVE SMOOTH",
"138 425 OFFCURVE",
"143 436 OFFCURVE",
"148 445 CURVE SMOOTH",
"153 454 OFFCURVE",
"157 463 OFFCURVE",
"157 473 CURVE SMOOTH",
"157 507 OFFCURVE",
"90 522 OFFCURVE",
"53 522 CURVE SMOOTH",
"24 522 OFFCURVE",
"8 514 OFFCURVE",
"8 495 CURVE SMOOTH",
"8 471 OFFCURVE",
"62 348 OFFCURVE",
"97 271 CURVE SMOOTH",
"134 189 OFFCURVE",
"160 130 OFFCURVE",
"160 109 CURVE SMOOTH",
"160 83 OFFCURVE",
"137 81 OFFCURVE",
"102 81 CURVE SMOOTH",
"-39 81 LINE",
"-39 0 LINE"
);
}
);
width = 311;
}
);
},
{
glyphname = u10AD5.fina;
lastChange = "2018-03-14 14:29:06 +0000";
layers = (
{
layerId = UUID0;
paths = (
{
closed = 1;
nodes = (
"659 0 LINE SMOOTH",
"733 0 OFFCURVE",
"779 0 OFFCURVE",
"779 48 CURVE SMOOTH",
"779 85 OFFCURVE",
"740 185 OFFCURVE",
"718 234 CURVE SMOOTH",
"690 296 OFFCURVE",
"649 392 OFFCURVE",
"649 412 CURVE SMOOTH",
"649 425 OFFCURVE",
"654 436 OFFCURVE",
"660 445 CURVE SMOOTH",
"666 454 OFFCURVE",
"668 463 OFFCURVE",
"668 473 CURVE SMOOTH",
"668 507 OFFCURVE",
"606 522 OFFCURVE",
"569 522 CURVE SMOOTH",
"540 522 OFFCURVE",
"524 514 OFFCURVE",
"524 495 CURVE SMOOTH",
"524 471 OFFCURVE",
"578 348 OFFCURVE",
"613 271 CURVE SMOOTH",
"650 189 OFFCURVE",
"676 125 OFFCURVE",
"676 104 CURVE SMOOTH",
"676 83 OFFCURVE",
"653 81 OFFCURVE",
"618 81 CURVE SMOOTH",
"212 81 LINE SMOOTH",
"163 81 OFFCURVE",
"130 97 OFFCURVE",
"107 109 CURVE SMOOTH",
"94 116 OFFCURVE",
"83 121 OFFCURVE",
"74 121 CURVE SMOOTH",
"54 121 OFFCURVE",
"44 103 OFFCURVE",
"44 79 CURVE SMOOTH",
"44 38 OFFCURVE",
"72 0 OFFCURVE",
"139 0 CURVE SMOOTH"
);
},
{
closed = 1;
nodes = (
"582 68 LINE",
"513 224 LINE SMOOTH",
"486 285 OFFCURVE",
"444 382 OFFCURVE",
"444 402 CURVE SMOOTH",
"444 415 OFFCURVE",
"449 426 OFFCURVE",
"455 436 CURVE SMOOTH",
"460 444 OFFCURVE",
"463 453 OFFCURVE",
"463 463 CURVE SMOOTH",
"463 497 OFFCURVE",
"401 513 OFFCURVE",
"364 513 CURVE SMOOTH",
"335 513 OFFCURVE",
"319 504 OFFCURVE",
"319 485 CURVE SMOOTH",
"319 461 OFFCURVE",
"372 336 OFFCURVE",
"406 257 CURVE SMOOTH",
"487 68 LINE"
);
},
{
closed = 1;
nodes = (
"867 0 LINE",
"867 81 LINE",
"669 81 LINE",
"669 0 LINE"
);
}
);
width = 828;
}
);
},
{
glyphname = u10AD5.medi;
lastChange = "2018-03-14 14:29:06 +0000";
layers = (
{
layerId = UUID0;
paths = (
{
closed = 1;
nodes = (
"368 0 LINE SMOOTH",
"441 0 OFFCURVE",
"493 2 OFFCURVE",
"493 53 CURVE SMOOTH",
"493 90 OFFCURVE",
"454 185 OFFCURVE",
"432 234 CURVE SMOOTH",
"404 296 OFFCURVE",
"363 392 OFFCURVE",
"363 412 CURVE SMOOTH",
"363 425 OFFCURVE",
"368 436 OFFCURVE",
"373 445 CURVE SMOOTH",
"378 454 OFFCURVE",
"382 463 OFFCURVE",
"382 473 CURVE SMOOTH",
"382 507 OFFCURVE",
"315 522 OFFCURVE",
"277 522 CURVE SMOOTH",
"249 522 OFFCURVE",
"233 514 OFFCURVE",
"233 495 CURVE SMOOTH",
"233 471 OFFCURVE",
"285 348 OFFCURVE",
"321 271 CURVE SMOOTH",
"359 189 OFFCURVE",
"385 130 OFFCURVE",
"385 109 CURVE SMOOTH",
"385 83 OFFCURVE",
"361 81 OFFCURVE",
"327 81 CURVE SMOOTH",
"-39 81 LINE",
"-39 0 LINE"
);
},
{
closed = 1;
nodes = (
"290 68 LINE",
"221 224 LINE SMOOTH",
"193 287 OFFCURVE",
"153 382 OFFCURVE",
"153 402 CURVE SMOOTH",
"153 412 OFFCURVE",
"157 426 OFFCURVE",
"163 436 CURVE SMOOTH",
"168 444 OFFCURVE",
"172 453 OFFCURVE",
"172 463 CURVE SMOOTH",
"172 497 OFFCURVE",
"105 513 OFFCURVE",
"67 513 CURVE SMOOTH",
"39 513 OFFCURVE",
"23 504 OFFCURVE",
"23 485 CURVE SMOOTH",
"23 461 OFFCURVE",
"76 335 OFFCURVE",
"110 256 CURVE SMOOTH",
"191 68 LINE"
);
},
{
closed = 1;
nodes = (
"574 0 LINE",
"574 81 LINE",
"376 81 LINE",
"376 0 LINE"
);
}
);
width = 535;
}
);
},
{
glyphname = u10AD5.init;
lastChange = "2018-03-14 14:29:06 +0000";
layers = (
{
layerId = UUID0;
paths = (
{
closed = 1;
nodes = (
"368 0 LINE SMOOTH",
"441 0 OFFCURVE",
"493 2 OFFCURVE",
"493 53 CURVE SMOOTH",
"493 90 OFFCURVE",
"454 185 OFFCURVE",
"432 234 CURVE SMOOTH",
"404 296 OFFCURVE",
"363 392 OFFCURVE",
"363 412 CURVE SMOOTH",
"363 425 OFFCURVE",
"368 436 OFFCURVE",
"373 445 CURVE SMOOTH",
"378 454 OFFCURVE",
"382 463 OFFCURVE",
"382 473 CURVE SMOOTH",
"382 507 OFFCURVE",
"315 522 OFFCURVE",
"277 522 CURVE SMOOTH",
"249 522 OFFCURVE",
"233 514 OFFCURVE",
"233 495 CURVE SMOOTH",
"233 471 OFFCURVE",
"285 348 OFFCURVE",
"321 271 CURVE SMOOTH",
"359 189 OFFCURVE",
"385 130 OFFCURVE",
"385 109 CURVE SMOOTH",
"385 83 OFFCURVE",
"361 81 OFFCURVE",
"327 81 CURVE SMOOTH",
"-39 81 LINE",
"-39 0 LINE"
);
},
{
closed = 1;
nodes = (
"290 68 LINE",
"221 224 LINE SMOOTH",
"193 287 OFFCURVE",
"153 382 OFFCURVE",
"153 402 CURVE SMOOTH",
"153 412 OFFCURVE",
"157 426 OFFCURVE",
"163 436 CURVE SMOOTH",
"168 444 OFFCURVE",
"172 453 OFFCURVE",
"172 463 CURVE SMOOTH",
"172 497 OFFCURVE",
"105 513 OFFCURVE",
"67 513 CURVE SMOOTH",
"39 513 OFFCURVE",
"23 504 OFFCURVE",
"23 485 CURVE SMOOTH",
"23 461 OFFCURVE",
"76 335 OFFCURVE",
"110 256 CURVE SMOOTH",
"191 68 LINE"
);
}
);
width = 535;
}
);
},
{
glyphname = u10AD6.fina;
lastChange = "2018-03-14 14:29:06 +0000";
layers = (
{
layerId = UUID0;
paths = (
{
closed = 1;
nodes = (
"402 -10 OFFCURVE",
"468 47 OFFCURVE",
"497 102 CURVE",
"548 32 OFFCURVE",
"621 -10 OFFCURVE",
"736 -10 CURVE SMOOTH",
"927 -10 OFFCURVE",
"950 85 OFFCURVE",
"950 148 CURVE SMOOTH",
"950 188 OFFCURVE",
"934 247 OFFCURVE",
"900 291 CURVE",
"906 296 LINE SMOOTH",
"915 304 OFFCURVE",
"934 322 OFFCURVE",
"934 348 CURVE SMOOTH",
"934 369 OFFCURVE",
"920 391 OFFCURVE",
"887 391 CURVE SMOOTH",
"861 391 OFFCURVE",
"843 376 OFFCURVE",
"821 359 CURVE SMOOTH",
"786 332 OFFCURVE",
"740 298 OFFCURVE",
"646 298 CURVE SMOOTH",
"556 298 OFFCURVE",
"510 335 OFFCURVE",
"478 365 CURVE SMOOTH",
"457 384 OFFCURVE",
"439 400 OFFCURVE",
"413 400 CURVE SMOOTH",
"379 400 OFFCURVE",
"366 378 OFFCURVE",
"366 358 CURVE SMOOTH",
"366 336 OFFCURVE",
"379 315 OFFCURVE",
"406 287 CURVE",
"419 265 OFFCURVE",
"428 229 OFFCURVE",
"428 199 CURVE SMOOTH",
"428 127 OFFCURVE",
"376 78 OFFCURVE",
"276 78 CURVE SMOOTH",
"187 78 OFFCURVE",
"134 117 OFFCURVE",
"134 199 CURVE SMOOTH",
"134 255 OFFCURVE",
"161 294 OFFCURVE",
"174 312 CURVE SMOOTH",
"184 326 OFFCURVE",
"192 338 OFFCURVE",
"192 350 CURVE SMOOTH",
"192 380 OFFCURVE",
"147 396 OFFCURVE",
"125 396 CURVE SMOOTH",
"86 396 OFFCURVE",
"44 302 OFFCURVE",
"44 208 CURVE SMOOTH",
"44 98 OFFCURVE",
"103 -10 OFFCURVE",
"275 -10 CURVE SMOOTH"
);
},
{
closed = 1;
nodes = (
"648 78 OFFCURVE",
"563 114 OFFCURVE",
"502 264 CURVE",
"497 240 LINE",
"535 227 OFFCURVE",
"590 215 OFFCURVE",
"659 215 CURVE SMOOTH",
"729 215 OFFCURVE",
"788 229 OFFCURVE",
"846 256 CURVE",
"810 265 LINE",
"839 239 OFFCURVE",
"860 187 OFFCURVE",
"860 157 CURVE SMOOTH",
"860 118 OFFCURVE",
"850 78 OFFCURVE",
"740 78 CURVE SMOOTH"
);
},
{
closed = 1;
nodes = (
"1028 0 LINE",
"1028 81 LINE",
"830 81 LINE",
"830 0 LINE"
);
}
);
width = 994;
}
);
},
{
glyphname = u10AD6.medi;
lastChange = "2018-03-14 14:29:06 +0000";
layers = (
{
layerId = UUID0;
paths = (
{
closed = 1;
nodes = (
"598 -10 OFFCURVE",
"621 85 OFFCURVE",
"621 148 CURVE SMOOTH",
"621 188 OFFCURVE",
"605 247 OFFCURVE",
"571 291 CURVE",
"577 296 LINE SMOOTH",
"587 304 OFFCURVE",
"605 322 OFFCURVE",
"605 348 CURVE SMOOTH",
"605 369 OFFCURVE",
"591 391 OFFCURVE",
"558 391 CURVE SMOOTH",
"532 391 OFFCURVE",
"514 377 OFFCURVE",
"492 359 CURVE SMOOTH",
"459 333 OFFCURVE",
"411 298 OFFCURVE",
"317 298 CURVE SMOOTH",
"227 298 OFFCURVE",
"182 336 OFFCURVE",
"149 365 CURVE SMOOTH",
"128 384 OFFCURVE",
"110 400 OFFCURVE",
"84 400 CURVE SMOOTH",
"50 400 OFFCURVE",
"37 378 OFFCURVE",
"37 358 CURVE SMOOTH",
"37 336 OFFCURVE",
"50 315 OFFCURVE",
"77 287 CURVE",
"90 265 OFFCURVE",
"120 209 OFFCURVE",
"120 160 CURVE SMOOTH",
"120 84 OFFCURVE",
"68 81 OFFCURVE",
"6 81 CURVE",
"-39 81 LINE",
"-39 0 LINE",
"6 0 LINE",
"117 0 OFFCURVE",
"163 19 OFFCURVE",
"192 73 CURVE",
"243 15 OFFCURVE",
"319 -10 OFFCURVE",
"420 -10 CURVE SMOOTH"
);
},
{
closed = 1;
nodes = (
"319 78 OFFCURVE",
"234 114 OFFCURVE",
"173 264 CURVE",
"168 240 LINE",
"206 227 OFFCURVE",
"261 215 OFFCURVE",
"330 215 CURVE SMOOTH",
"399 215 OFFCURVE",
"459 229 OFFCURVE",
"517 256 CURVE",
"481 265 LINE",
"510 239 OFFCURVE",
"531 187 OFFCURVE",
"531 157 CURVE SMOOTH",
"531 118 OFFCURVE",
"513 78 OFFCURVE",
"419 78 CURVE SMOOTH"
);
},
{
closed = 1;
nodes = (
"704 0 LINE",
"704 81 LINE",
"506 81 LINE",
"506 0 LINE"
);
}
);
width = 665;
}
);
},
{
glyphname = u10AD6.init;
lastChange = "2018-03-14 14:29:06 +0000";
layers = (
{
layerId = UUID0;
paths = (
{
closed = 1;
nodes = (
"598 -10 OFFCURVE",
"621 85 OFFCURVE",
"621 148 CURVE SMOOTH",
"621 188 OFFCURVE",
"605 247 OFFCURVE",
"571 291 CURVE",
"577 296 LINE SMOOTH",
"587 304 OFFCURVE",
"605 322 OFFCURVE",
"605 348 CURVE SMOOTH",
"605 369 OFFCURVE",
"591 391 OFFCURVE",
"558 391 CURVE SMOOTH",
"532 391 OFFCURVE",
"514 377 OFFCURVE",
"492 359 CURVE SMOOTH",
"459 333 OFFCURVE",
"411 298 OFFCURVE",
"317 298 CURVE SMOOTH",
"227 298 OFFCURVE",
"182 336 OFFCURVE",
"149 365 CURVE SMOOTH",
"128 384 OFFCURVE",
"110 400 OFFCURVE",
"84 400 CURVE SMOOTH",
"50 400 OFFCURVE",
"37 378 OFFCURVE",
"37 358 CURVE SMOOTH",
"37 336 OFFCURVE",
"50 315 OFFCURVE",
"77 287 CURVE",
"90 265 OFFCURVE",
"120 209 OFFCURVE",
"120 160 CURVE SMOOTH",
"120 84 OFFCURVE",
"68 81 OFFCURVE",
"6 81 CURVE",
"-39 81 LINE",
"-39 0 LINE",
"6 0 LINE",
"117 0 OFFCURVE",
"163 19 OFFCURVE",
"192 73 CURVE",
"243 15 OFFCURVE",
"319 -10 OFFCURVE",
"420 -10 CURVE SMOOTH"
);
},
{
closed = 1;
nodes = (
"319 78 OFFCURVE",
"234 114 OFFCURVE",
"173 264 CURVE",
"168 240 LINE",
"206 227 OFFCURVE",
"261 215 OFFCURVE",
"330 215 CURVE SMOOTH",
"399 215 OFFCURVE",
"459 229 OFFCURVE",
"517 256 CURVE",
"481 265 LINE",
"510 239 OFFCURVE",
"531 187 OFFCURVE",
"531 157 CURVE SMOOTH",
"531 118 OFFCURVE",
"513 78 OFFCURVE",
"419 78 CURVE SMOOTH"
);
}
);
width = 665;
}
);
},
{
glyphname = u10AD7.init;
lastChange = "2018-03-14 14:29:06 +0000";
layers = (
{
layerId = UUID0;
paths = (
{
closed = 1;
nodes = (
"303 -114 OFFCURVE",
"328 -105 OFFCURVE",
"328 -92 CURVE SMOOTH",
"328 -24 OFFCURVE",
"291 43 OFFCURVE",
"209 72 CURVE",
"180 94 OFFCURVE",
"167 117 OFFCURVE",
"167 146 CURVE SMOOTH",
"167 175 OFFCURVE",
"193 195 OFFCURVE",
"218 210 CURVE SMOOTH",
"235 220 OFFCURVE",
"250 231 OFFCURVE",
"250 243 CURVE SMOOTH",
"250 263 OFFCURVE",
"208 318 OFFCURVE",
"109 318 CURVE SMOOTH",
"66 318 OFFCURVE",
"24 275 OFFCURVE",
"24 203 CURVE SMOOTH",
"24 144 OFFCURVE",
"49 112 OFFCURVE",
"83 81 CURVE",
"-39 81 LINE",
"-39 0 LINE",
"81 0 LINE SMOOTH",
"180 0 OFFCURVE",
"200 -33 OFFCURVE",
"225 -88 CURVE SMOOTH",
"235 -110 OFFCURVE",
"254 -114 OFFCURVE",
"277 -114 CURVE SMOOTH"
);
}
);
width = 380;
}
);
},
{
glyphname = u10AD8.fina;
lastChange = "2018-03-14 14:29:06 +0000";
layers = (
{
layerId = UUID0;
paths = (
{
closed = 1;
nodes = (
"1118 0 LINE SMOOTH",
"1144 0 OFFCURVE",
"1157 9 OFFCURVE",
"1157 29 CURVE SMOOTH",
"1157 39 OFFCURVE",
"1153 52 OFFCURVE",
"1146 69 CURVE SMOOTH",
"1098 189 OFFCURVE",
"1040 283 OFFCURVE",
"922 283 CURVE SMOOTH",
"866 283 OFFCURVE",
"818 262 OFFCURVE",
"792 232 CURVE",
"749 295 OFFCURVE",
"691 340 OFFCURVE",
"615 340 CURVE SMOOTH",
"527 340 OFFCURVE",
"482 279 OFFCURVE",
"482 216 CURVE SMOOTH",
"482 164 OFFCURVE",
"508 114 OFFCURVE",
"553 81 CURVE",
"219 81 LINE SMOOTH",
"191 81 OFFCURVE",
"174 93 OFFCURVE",
"158 105 CURVE SMOOTH",
"141 118 OFFCURVE",
"124 129 OFFCURVE",
"98 129 CURVE SMOOTH",
"64 129 OFFCURVE",
"44 107 OFFCURVE",
"44 72 CURVE SMOOTH",
"44 29 OFFCURVE",
"80 0 OFFCURVE",
"146 0 CURVE SMOOTH"
);
},
{
closed = 1;
nodes = (
"670 81 OFFCURVE",
"573 143 OFFCURVE",
"573 210 CURVE SMOOTH",
"573 238 OFFCURVE",
"588 253 OFFCURVE",
"616 253 CURVE SMOOTH",
"678 253 OFFCURVE",
"758 144 OFFCURVE",
"763 81 CURVE"
);
},
{
closed = 1;
nodes = (
"933 82 OFFCURVE",
"849 93 OFFCURVE",
"849 146 CURVE SMOOTH",
"849 176 OFFCURVE",
"875 196 OFFCURVE",
"918 196 CURVE SMOOTH",
"990 196 OFFCURVE",
"1027 121 OFFCURVE",
"1035 82 CURVE"
);
},
{
closed = 1;
nodes = (
"1240 0 LINE",
"1240 81 LINE",
"1042 81 LINE",
"1042 0 LINE"
);
}
);
width = 1201;
}
);
},
{
glyphname = u10AD8.medi;
lastChange = "2018-03-14 14:29:06 +0000";
layers = (
{
layerId = UUID0;
paths = (
{
closed = 1;
nodes = (
"686 0 LINE SMOOTH",
"711 0 OFFCURVE",
"725 9 OFFCURVE",
"725 29 CURVE SMOOTH",
"725 40 OFFCURVE",
"720 55 OFFCURVE",
"713 74 CURVE SMOOTH",
"671 193 OFFCURVE",
"607 283 OFFCURVE",
"489 283 CURVE SMOOTH",
"434 283 OFFCURVE",
"385 262 OFFCURVE",
"359 232 CURVE",
"316 295 OFFCURVE",
"258 340 OFFCURVE",
"183 340 CURVE SMOOTH",
"94 340 OFFCURVE",
"50 279 OFFCURVE",
"50 216 CURVE SMOOTH",
"50 164 OFFCURVE",
"75 115 OFFCURVE",
"121 81 CURVE",
"-39 81 LINE",
"-39 0 LINE"
);
},
{
closed = 1;
nodes = (
"237 81 OFFCURVE",
"141 143 OFFCURVE",
"141 210 CURVE SMOOTH",
"141 238 OFFCURVE",
"155 253 OFFCURVE",
"183 253 CURVE SMOOTH",
"245 253 OFFCURVE",
"326 146 OFFCURVE",
"331 81 CURVE"
);
},
{
closed = 1;
nodes = (
"500 82 OFFCURVE",
"416 92 OFFCURVE",
"416 146 CURVE SMOOTH",
"416 176 OFFCURVE",
"442 196 OFFCURVE",
"485 196 CURVE SMOOTH",
"557 196 OFFCURVE",
"595 123 OFFCURVE",
"602 82 CURVE"
);
},
{
closed = 1;
nodes = (
"805 0 LINE",
"805 81 LINE",
"607 81 LINE",
"607 0 LINE"
);
}
);
width = 766;
}
);
},
{
glyphname = u10AD8.init;
lastChange = "2018-03-14 14:29:06 +0000";
layers = (
{
layerId = UUID0;
paths = (
{
closed = 1;
nodes = (
"686 0 LINE SMOOTH",
"711 0 OFFCURVE",
"725 9 OFFCURVE",
"725 29 CURVE SMOOTH",
"725 40 OFFCURVE",
"720 55 OFFCURVE",
"713 74 CURVE SMOOTH",
"671 193 OFFCURVE",
"607 283 OFFCURVE",
"489 283 CURVE SMOOTH",
"434 283 OFFCURVE",
"385 262 OFFCURVE",
"359 232 CURVE",
"316 295 OFFCURVE",
"258 340 OFFCURVE",
"183 340 CURVE SMOOTH",
"94 340 OFFCURVE",
"50 279 OFFCURVE",
"50 216 CURVE SMOOTH",
"50 164 OFFCURVE",
"75 115 OFFCURVE",
"121 81 CURVE",
"-39 81 LINE",
"-39 0 LINE"
);
},
{
closed = 1;
nodes = (
"237 81 OFFCURVE",
"141 143 OFFCURVE",
"141 210 CURVE SMOOTH",
"141 238 OFFCURVE",
"155 253 OFFCURVE",
"183 253 CURVE SMOOTH",
"245 253 OFFCURVE",
"326 146 OFFCURVE",
"331 81 CURVE"
);
},
{
closed = 1;
nodes = (
"500 82 OFFCURVE",
"416 92 OFFCURVE",
"416 146 CURVE SMOOTH",
"416 176 OFFCURVE",
"442 196 OFFCURVE",
"485 196 CURVE SMOOTH",
"557 196 OFFCURVE",
"595 123 OFFCURVE",
"602 82 CURVE"
);
}
);
width = 766;
}
);
},
{
glyphname = u10AD9.fina;
lastChange = "2018-03-14 14:29:06 +0000";
layers = (
{
layerId = UUID0;
paths = (
{
closed = 1;
nodes = (
"994 0 LINE",
"994 81 LINE",
"863 81 LINE",
"650 197 LINE SMOOTH",
"584 233 OFFCURVE",
"542 256 OFFCURVE",
"542 280 CURVE SMOOTH",
"542 290 OFFCURVE",
"549 296 OFFCURVE",
"557 302 CURVE SMOOTH",
"568 310 OFFCURVE",
"573 315 OFFCURVE",
"573 327 CURVE SMOOTH",
"573 356 OFFCURVE",
"501 396 OFFCURVE",
"457 396 CURVE SMOOTH",
"392 396 OFFCURVE",
"387 347 OFFCURVE",
"387 331 CURVE SMOOTH",
"387 256 OFFCURVE",
"481 177 OFFCURVE",
"688 81 CURVE",
"219 81 LINE SMOOTH",
"191 81 OFFCURVE",
"173 93 OFFCURVE",
"156 106 CURVE SMOOTH",
"140 119 OFFCURVE",
"124 129 OFFCURVE",
"98 129 CURVE SMOOTH",
"64 129 OFFCURVE",
"44 107 OFFCURVE",
"44 72 CURVE SMOOTH",
"44 29 OFFCURVE",
"80 0 OFFCURVE",
"146 0 CURVE"
);
}
);
width = 955;
}
);
},
{
glyphname = u10AD9.medi;
lastChange = "2018-03-14 14:29:06 +0000";
layers = (
{
layerId = UUID0;
paths = (
{
closed = 1;
nodes = (
"613 0 LINE",
"613 81 LINE",
"482 81 LINE",
"269 197 LINE SMOOTH",
"203 233 OFFCURVE",
"161 256 OFFCURVE",
"161 280 CURVE SMOOTH",
"161 290 OFFCURVE",
"168 296 OFFCURVE",
"176 302 CURVE SMOOTH",
"187 310 OFFCURVE",
"191 315 OFFCURVE",
"191 327 CURVE SMOOTH",
"191 356 OFFCURVE",
"120 396 OFFCURVE",
"76 396 CURVE SMOOTH",
"11 396 OFFCURVE",
"6 347 OFFCURVE",
"6 331 CURVE SMOOTH",
"6 256 OFFCURVE",
"100 177 OFFCURVE",
"307 81 CURVE",
"-39 81 LINE",
"-39 0 LINE"
);
}
);
width = 576;
}
);
},
{
glyphname = u10AD9.init;
lastChange = "2018-03-14 14:29:06 +0000";
layers = (
{
layerId = UUID0;
paths = (
{
closed = 1;
nodes = (
"551 -24 OFFCURVE",
"564 -10 OFFCURVE",
"564 16 CURVE SMOOTH",
"564 56 OFFCURVE",
"512 87 OFFCURVE",
"436 126 CURVE SMOOTH",
"293 199 LINE SMOOTH",
"227 233 OFFCURVE",
"186 256 OFFCURVE",
"186 280 CURVE SMOOTH",
"186 290 OFFCURVE",
"193 297 OFFCURVE",
"201 302 CURVE SMOOTH",
"212 309 OFFCURVE",
"217 316 OFFCURVE",
"217 327 CURVE SMOOTH",
"217 356 OFFCURVE",
"145 396 OFFCURVE",
"101 396 CURVE SMOOTH",
"36 396 OFFCURVE",
"31 347 OFFCURVE",
"31 331 CURVE SMOOTH",
"31 256 OFFCURVE",
"125 177 OFFCURVE",
"333 81 CURVE",
"-39 81 LINE",
"-39 0 LINE",
"472 0 LINE",
"489 -15 OFFCURVE",
"502 -24 OFFCURVE",
"526 -24 CURVE SMOOTH"
);
}
);
width = 607;
}
);
},
{
glyphname = u10ADB.fina;
lastChange = "2018-03-14 14:29:06 +0000";
layers = (
{
layerId = UUID0;
paths = (
{
closed = 1;
nodes = (
"839 0 LINE SMOOTH",
"864 0 OFFCURVE",
"878 9 OFFCURVE",
"878 29 CURVE SMOOTH",
"878 41 OFFCURVE",
"873 54 OFFCURVE",
"864 76 CURVE SMOOTH",
"812 205 OFFCURVE",
"745 340 OFFCURVE",
"615 340 CURVE SMOOTH",
"527 340 OFFCURVE",
"482 279 OFFCURVE",
"482 216 CURVE SMOOTH",
"482 161 OFFCURVE",
"508 114 OFFCURVE",
"553 81 CURVE",
"219 81 LINE SMOOTH",
"191 81 OFFCURVE",
"174 93 OFFCURVE",
"158 105 CURVE SMOOTH",
"141 118 OFFCURVE",
"124 129 OFFCURVE",
"98 129 CURVE SMOOTH",
"64 129 OFFCURVE",
"44 107 OFFCURVE",
"44 72 CURVE SMOOTH",
"44 29 OFFCURVE",
"80 0 OFFCURVE",
"146 0 CURVE SMOOTH"
);
},
{
closed = 1;
nodes = (
"670 81 OFFCURVE",
"573 141 OFFCURVE",
"573 206 CURVE SMOOTH",
"573 238 OFFCURVE",
"589 253 OFFCURVE",
"619 253 CURVE SMOOTH",
"683 253 OFFCURVE",
"763 141 OFFCURVE",
"763 81 CURVE"
);
},
{
closed = 1;
nodes = (
"961 0 LINE",
"961 81 LINE",
"763 81 LINE",
"763 0 LINE"
);
}
);
width = 922;
}
);
},
{
glyphname = u10ADB.medi;
lastChange = "2018-03-14 14:29:06 +0000";
layers = (
{
layerId = UUID0;
paths = (
{
closed = 1;
nodes = (
"403 0 LINE SMOOTH",
"429 0 OFFCURVE",
"442 9 OFFCURVE",
"442 29 CURVE SMOOTH",
"442 42 OFFCURVE",
"437 58 OFFCURVE",
"429 81 CURVE SMOOTH",
"383 207 OFFCURVE",
"310 340 OFFCURVE",
"180 340 CURVE SMOOTH",
"91 340 OFFCURVE",
"47 279 OFFCURVE",
"47 216 CURVE SMOOTH",
"47 164 OFFCURVE",
"72 115 OFFCURVE",
"118 81 CURVE",
"-39 81 LINE",
"-39 0 LINE"
);
},
{
closed = 1;
nodes = (
"234 81 OFFCURVE",
"138 143 OFFCURVE",
"138 206 CURVE SMOOTH",
"138 238 OFFCURVE",
"153 253 OFFCURVE",
"183 253 CURVE SMOOTH",
"248 253 OFFCURVE",
"328 143 OFFCURVE",
"328 81 CURVE"
);
},
{
closed = 1;
nodes = (
"527 0 LINE",
"527 81 LINE",
"329 81 LINE",
"329 0 LINE"
);
}
);
width = 487;
}
);
},
{
glyphname = u10ADB.init;
lastChange = "2018-03-14 14:29:06 +0000";
layers = (
{
layerId = UUID0;
paths = (
{
closed = 1;
nodes = (
"403 0 LINE SMOOTH",
"429 0 OFFCURVE",
"442 9 OFFCURVE",
"442 29 CURVE SMOOTH",
"442 42 OFFCURVE",
"437 58 OFFCURVE",
"429 81 CURVE SMOOTH",
"383 207 OFFCURVE",
"310 340 OFFCURVE",
"180 340 CURVE SMOOTH",
"91 340 OFFCURVE",
"47 279 OFFCURVE",
"47 216 CURVE SMOOTH",
"47 164 OFFCURVE",
"72 115 OFFCURVE",
"118 81 CURVE",
"-39 81 LINE",
"-39 0 LINE"
);
},
{
closed = 1;
nodes = (
"234 81 OFFCURVE",
"138 143 OFFCURVE",
"138 206 CURVE SMOOTH",
"138 238 OFFCURVE",
"153 253 OFFCURVE",
"183 253 CURVE SMOOTH",
"248 253 OFFCURVE",
"328 143 OFFCURVE",
"328 81 CURVE"
);
}
);
width = 487;
}
);
},
{
glyphname = u10ADC.fina;
lastChange = "2018-03-14 14:29:06 +0000";
layers = (
{
layerId = UUID0;
paths = (
{
closed = 1;
nodes = (
"839 0 LINE SMOOTH",
"864 0 OFFCURVE",
"878 9 OFFCURVE",
"878 29 CURVE SMOOTH",
"878 41 OFFCURVE",
"873 54 OFFCURVE",
"864 76 CURVE SMOOTH",
"812 205 OFFCURVE",
"745 340 OFFCURVE",
"615 340 CURVE SMOOTH",
"527 340 OFFCURVE",
"482 279 OFFCURVE",
"482 216 CURVE SMOOTH",
"482 161 OFFCURVE",
"508 114 OFFCURVE",
"553 81 CURVE",
"219 81 LINE SMOOTH",
"191 81 OFFCURVE",
"174 93 OFFCURVE",
"158 105 CURVE SMOOTH",
"141 118 OFFCURVE",
"124 129 OFFCURVE",
"98 129 CURVE SMOOTH",
"64 129 OFFCURVE",
"44 107 OFFCURVE",
"44 72 CURVE SMOOTH",
"44 29 OFFCURVE",
"80 0 OFFCURVE",
"146 0 CURVE SMOOTH"
);
},
{
closed = 1;
nodes = (
"670 81 OFFCURVE",
"573 141 OFFCURVE",
"573 206 CURVE SMOOTH",
"573 238 OFFCURVE",
"589 253 OFFCURVE",
"619 253 CURVE SMOOTH",
"683 253 OFFCURVE",
"763 141 OFFCURVE",
"763 81 CURVE"
);
},
{
closed = 1;
nodes = (
"961 0 LINE",
"961 81 LINE",
"763 81 LINE",
"763 0 LINE"
);
},
{
closed = 1;
nodes = (
"604 386 OFFCURVE",
"621 410 OFFCURVE",
"621 440 CURVE SMOOTH",
"621 469 OFFCURVE",
"589 494 OFFCURVE",
"559 494 CURVE SMOOTH",
"530 494 OFFCURVE",
"513 469 OFFCURVE",
"513 440 CURVE SMOOTH",
"513 410 OFFCURVE",
"544 386 OFFCURVE",
"574 386 CURVE SMOOTH"
);
}
);
width = 922;
}
);
},
{
glyphname = u10ADC.medi;
lastChange = "2018-03-14 14:29:06 +0000";
layers = (
{
layerId = UUID0;
paths = (
{
closed = 1;
nodes = (
"403 0 LINE SMOOTH",
"429 0 OFFCURVE",
"442 9 OFFCURVE",
"442 29 CURVE SMOOTH",
"442 42 OFFCURVE",
"437 58 OFFCURVE",
"429 81 CURVE SMOOTH",
"383 207 OFFCURVE",
"310 340 OFFCURVE",
"180 340 CURVE SMOOTH",
"91 340 OFFCURVE",
"47 279 OFFCURVE",
"47 216 CURVE SMOOTH",
"47 164 OFFCURVE",
"72 115 OFFCURVE",
"118 81 CURVE",
"-39 81 LINE",
"-39 0 LINE"
);
},
{
closed = 1;
nodes = (
"234 81 OFFCURVE",
"138 143 OFFCURVE",
"138 206 CURVE SMOOTH",
"138 238 OFFCURVE",
"153 253 OFFCURVE",
"183 253 CURVE SMOOTH",
"248 253 OFFCURVE",
"328 143 OFFCURVE",
"328 81 CURVE"
);
},
{
closed = 1;
nodes = (
"170 386 OFFCURVE",
"187 410 OFFCURVE",
"187 440 CURVE SMOOTH",
"187 469 OFFCURVE",
"155 494 OFFCURVE",
"125 494 CURVE SMOOTH",
"96 494 OFFCURVE",
"79 469 OFFCURVE",
"79 440 CURVE SMOOTH",
"79 410 OFFCURVE",
"110 386 OFFCURVE",
"140 386 CURVE SMOOTH"
);
},
{
closed = 1;
nodes = (
"527 0 LINE",
"527 81 LINE",
"329 81 LINE",
"329 0 LINE"
);
}
);
width = 487;
}
);
},
{
glyphname = u10ADD.fina;
lastChange = "2018-03-14 14:29:06 +0000";
layers = (
{
layerId = UUID0;
paths = (
{
closed = 1;
nodes = (
"455 -225 OFFCURVE",
"514 -95 OFFCURVE",
"514 10 CURVE SMOOTH",
"514 71 OFFCURVE",
"495 154 OFFCURVE",
"446 219 CURVE",
"436 205 LINE",
"507 189 OFFCURVE",
"566 185 OFFCURVE",
"642 185 CURVE",
"672 74 OFFCURVE",
"738 0 OFFCURVE",
"854 0 CURVE SMOOTH",
"901 0 LINE",
"901 81 LINE",
"860 81 LINE SMOOTH",
"768 81 OFFCURVE",
"718 144 OFFCURVE",
"718 264 CURVE SMOOTH",
"718 298 OFFCURVE",
"727 322 OFFCURVE",
"735 342 CURVE SMOOTH",
"741 357 OFFCURVE",
"745 372 OFFCURVE",
"745 386 CURVE SMOOTH",
"745 423 OFFCURVE",
"715 439 OFFCURVE",
"686 439 CURVE SMOOTH",
"642 439 OFFCURVE",
"621 402 OFFCURVE",
"621 343 CURVE SMOOTH",
"621 325 OFFCURVE",
"623 295 OFFCURVE",
"626 276 CURVE",
"398 286 OFFCURVE",
"337 350 OFFCURVE",
"295 395 CURVE SMOOTH",
"272 420 OFFCURVE",
"253 438 OFFCURVE",
"218 438 CURVE SMOOTH",
"184 438 OFFCURVE",
"155 420 OFFCURVE",
"155 380 CURVE SMOOTH",
"155 323 OFFCURVE",
"212 281 OFFCURVE",
"296 248 CURVE",
"371 205 OFFCURVE",
"423 84 OFFCURVE",
"423 4 CURVE SMOOTH",
"423 -64 OFFCURVE",
"386 -137 OFFCURVE",
"275 -137 CURVE SMOOTH",
"185 -137 OFFCURVE",
"134 -88 OFFCURVE",
"134 -34 CURVE SMOOTH",
"134 -9 OFFCURVE",
"145 1 OFFCURVE",
"152 7 CURVE SMOOTH",
"160 13 OFFCURVE",
"166 20 OFFCURVE",
"166 33 CURVE SMOOTH",
"166 56 OFFCURVE",
"145 96 OFFCURVE",
"104 96 CURVE SMOOTH",
"64 96 OFFCURVE",
"44 59 OFFCURVE",
"44 -4 CURVE SMOOTH",
"44 -106 OFFCURVE",
"98 -225 OFFCURVE",
"271 -225 CURVE SMOOTH"
);
}
);
width = 862;
}
);
},
{
glyphname = u10ADE.fina;
lastChange = "2018-03-14 14:29:06 +0000";
layers = (
{
layerId = UUID0;
paths = (
{
closed = 1;
nodes = (
"460 -10 OFFCURVE",
"521 108 OFFCURVE",
"521 193 CURVE SMOOTH",
"521 218 OFFCURVE",
"515 256 OFFCURVE",
"497 288 CURVE",
"485 273 LINE",
"551 244 OFFCURVE",
"632 235 OFFCURVE",
"701 235 CURVE SMOOTH",
"768 235 OFFCURVE",
"880 244 OFFCURVE",
"961 271 CURVE",
"988 219 OFFCURVE",
"1023 130 OFFCURVE",
"1023 108 CURVE SMOOTH",
"1023 86 OFFCURVE",
"1000 81 OFFCURVE",
"965 81 CURVE SMOOTH",
"751 81 LINE SMOOTH",
"722 81 OFFCURVE",
"691 86 OFFCURVE",
"659 104 CURVE SMOOTH",
"638 116 OFFCURVE",
"626 121 OFFCURVE",
"615 121 CURVE SMOOTH",
"593 121 OFFCURVE",
"583 103 OFFCURVE",
"583 79 CURVE SMOOTH",
"583 38 OFFCURVE",
"611 0 OFFCURVE",
"678 0 CURVE SMOOTH",
"987 0 LINE SMOOTH",
"1073 0 OFFCURVE",
"1125 7 OFFCURVE",
"1125 61 CURVE SMOOTH",
"1125 94 OFFCURVE",
"1101 156 OFFCURVE",
"1077 210 CURVE SMOOTH",
"1063 242 OFFCURVE",
"1048 278 OFFCURVE",
"1040 308 CURVE",
"1051 320 OFFCURVE",
"1058 333 OFFCURVE",
"1058 348 CURVE SMOOTH",
"1058 370 OFFCURVE",
"1044 391 OFFCURVE",
"1010 391 CURVE SMOOTH",
"991 391 OFFCURVE",
"974 381 OFFCURVE",
"956 370 CURVE SMOOTH",
"925 351 OFFCURVE",
"860 316 OFFCURVE",
"711 316 CURVE SMOOTH",
"585 316 OFFCURVE",
"539 338 OFFCURVE",
"485 375 CURVE SMOOTH",
"460 392 OFFCURVE",
"437 405 OFFCURVE",
"411 405 CURVE SMOOTH",
"384 405 OFFCURVE",
"368 389 OFFCURVE",
"368 366 CURVE SMOOTH",
"368 344 OFFCURVE",
"382 323 OFFCURVE",
"401 301 CURVE",
"420 263 OFFCURVE",
"430 224 OFFCURVE",
"430 193 CURVE SMOOTH",
"430 126 OFFCURVE",
"384 78 OFFCURVE",
"281 78 CURVE SMOOTH",
"186 78 OFFCURVE",
"136 119 OFFCURVE",
"136 197 CURVE SMOOTH",
"136 251 OFFCURVE",
"158 288 OFFCURVE",
"176 311 CURVE SMOOTH",
"184 321 OFFCURVE",
"194 336 OFFCURVE",
"194 350 CURVE SMOOTH",
"194 380 OFFCURVE",
"144 396 OFFCURVE",
"127 396 CURVE SMOOTH",
"88 396 OFFCURVE",
"44 303 OFFCURVE",
"44 207 CURVE SMOOTH",
"44 92 OFFCURVE",
"107 -10 OFFCURVE",
"278 -10 CURVE SMOOTH"
);
},
{
closed = 1;
nodes = (
"1208 0 LINE",
"1208 81 LINE",
"1010 81 LINE",
"1010 0 LINE"
);
}
);
width = 1169;
}
);
},
{
glyphname = u10ADE.medi;
lastChange = "2018-03-14 14:29:06 +0000";
layers = (
{
layerId = UUID0;
paths = (
{
closed = 1;
nodes = (
"28 0 LINE SMOOTH",
"161 0 OFFCURVE",
"202 65 OFFCURVE",
"202 141 CURVE SMOOTH",
"202 177 OFFCURVE",
"187 230 OFFCURVE",
"175 266 CURVE",
"150 269 LINE",
"216 239 OFFCURVE",
"310 230 OFFCURVE",
"378 230 CURVE SMOOTH",
"446 230 OFFCURVE",
"545 239 OFFCURVE",
"626 266 CURVE",
"653 214 OFFCURVE",
"688 129 OFFCURVE",
"688 108 CURVE SMOOTH",
"688 86 OFFCURVE",
"665 81 OFFCURVE",
"630 81 CURVE SMOOTH",
"416 81 LINE SMOOTH",
"387 81 OFFCURVE",
"356 86 OFFCURVE",
"324 104 CURVE SMOOTH",
"303 116 OFFCURVE",
"291 121 OFFCURVE",
"280 121 CURVE SMOOTH",
"258 121 OFFCURVE",
"248 103 OFFCURVE",
"248 79 CURVE SMOOTH",
"248 38 OFFCURVE",
"276 0 OFFCURVE",
"343 0 CURVE SMOOTH",
"652 0 LINE SMOOTH",
"738 0 OFFCURVE",
"790 7 OFFCURVE",
"790 61 CURVE SMOOTH",
"790 94 OFFCURVE",
"766 156 OFFCURVE",
"742 210 CURVE SMOOTH",
"728 242 OFFCURVE",
"713 278 OFFCURVE",
"705 308 CURVE",
"716 320 OFFCURVE",
"723 333 OFFCURVE",
"723 348 CURVE SMOOTH",
"723 370 OFFCURVE",
"709 391 OFFCURVE",
"675 391 CURVE SMOOTH",
"656 391 OFFCURVE",
"639 381 OFFCURVE",
"621 370 CURVE SMOOTH",
"590 351 OFFCURVE",
"521 313 OFFCURVE",
"372 313 CURVE SMOOTH",
"246 313 OFFCURVE",
"205 339 OFFCURVE",
"150 375 CURVE SMOOTH",
"124 392 OFFCURVE",
"102 405 OFFCURVE",
"76 405 CURVE SMOOTH",
"49 405 OFFCURVE",
"33 389 OFFCURVE",
"33 366 CURVE SMOOTH",
"33 344 OFFCURVE",
"54 317 OFFCURVE",
"74 295 CURVE",
"92 260 OFFCURVE",
"115 205 OFFCURVE",
"115 160 CURVE SMOOTH",
"115 117 OFFCURVE",
"96 81 OFFCURVE",
"37 81 CURVE SMOOTH",
"-39 81 LINE",
"-39 0 LINE"
);
},
{
closed = 1;
nodes = (
"873 0 LINE",
"873 81 LINE",
"675 81 LINE",
"675 0 LINE"
);
}
);
width = 834;
}
);
},
{
glyphname = u10ADE.init;
lastChange = "2018-03-14 14:29:06 +0000";
layers = (
{
layerId = UUID0;
paths = (
{
closed = 1;
nodes = (
"28 0 LINE SMOOTH",
"161 0 OFFCURVE",
"202 65 OFFCURVE",
"202 141 CURVE SMOOTH",
"202 177 OFFCURVE",
"187 230 OFFCURVE",
"175 266 CURVE",
"150 269 LINE",
"216 239 OFFCURVE",
"310 230 OFFCURVE",
"378 230 CURVE SMOOTH",
"446 230 OFFCURVE",
"545 239 OFFCURVE",
"626 266 CURVE",
"653 214 OFFCURVE",
"688 129 OFFCURVE",
"688 108 CURVE SMOOTH",
"688 86 OFFCURVE",
"665 81 OFFCURVE",
"630 81 CURVE SMOOTH",
"416 81 LINE SMOOTH",
"387 81 OFFCURVE",
"356 86 OFFCURVE",
"324 104 CURVE SMOOTH",
"303 116 OFFCURVE",
"291 121 OFFCURVE",
"280 121 CURVE SMOOTH",
"258 121 OFFCURVE",
"248 103 OFFCURVE",
"248 79 CURVE SMOOTH",
"248 38 OFFCURVE",
"276 0 OFFCURVE",
"343 0 CURVE SMOOTH",
"652 0 LINE SMOOTH",
"738 0 OFFCURVE",
"790 7 OFFCURVE",
"790 61 CURVE SMOOTH",
"790 94 OFFCURVE",
"766 156 OFFCURVE",
"742 210 CURVE SMOOTH",
"728 242 OFFCURVE",
"713 278 OFFCURVE",
"705 308 CURVE",
"716 320 OFFCURVE",
"723 333 OFFCURVE",
"723 348 CURVE SMOOTH",
"723 370 OFFCURVE",
"709 391 OFFCURVE",
"675 391 CURVE SMOOTH",
"656 391 OFFCURVE",
"639 381 OFFCURVE",
"621 370 CURVE SMOOTH",
"590 351 OFFCURVE",
"521 313 OFFCURVE",
"372 313 CURVE SMOOTH",
"246 313 OFFCURVE",
"205 339 OFFCURVE",
"150 375 CURVE SMOOTH",
"124 392 OFFCURVE",
"102 405 OFFCURVE",
"76 405 CURVE SMOOTH",
"49 405 OFFCURVE",
"33 389 OFFCURVE",
"33 366 CURVE SMOOTH",
"33 344 OFFCURVE",
"54 317 OFFCURVE",
"74 295 CURVE",
"92 260 OFFCURVE",
"115 205 OFFCURVE",
"115 160 CURVE SMOOTH",
"115 117 OFFCURVE",
"96 81 OFFCURVE",
"37 81 CURVE SMOOTH",
"-39 81 LINE",
"-39 0 LINE"
);
}
);
width = 834;
}
);
},
{
glyphname = u10ADF.fina;
lastChange = "2018-03-14 14:29:06 +0000";
layers = (
{
layerId = UUID0;
paths = (
{
closed = 1;
nodes = (
"460 -10 OFFCURVE",
"521 108 OFFCURVE",
"521 193 CURVE SMOOTH",
"521 218 OFFCURVE",
"515 256 OFFCURVE",
"497 288 CURVE",
"485 273 LINE",
"551 244 OFFCURVE",
"632 235 OFFCURVE",
"701 235 CURVE SMOOTH",
"768 235 OFFCURVE",
"880 244 OFFCURVE",
"961 271 CURVE",
"988 219 OFFCURVE",
"1023 130 OFFCURVE",
"1023 108 CURVE SMOOTH",
"1023 86 OFFCURVE",
"1000 81 OFFCURVE",
"965 81 CURVE SMOOTH",
"751 81 LINE SMOOTH",
"722 81 OFFCURVE",
"691 86 OFFCURVE",
"659 104 CURVE SMOOTH",
"638 116 OFFCURVE",
"626 121 OFFCURVE",
"615 121 CURVE SMOOTH",
"593 121 OFFCURVE",
"583 103 OFFCURVE",
"583 79 CURVE SMOOTH",
"583 38 OFFCURVE",
"611 0 OFFCURVE",
"678 0 CURVE SMOOTH",
"987 0 LINE SMOOTH",
"1073 0 OFFCURVE",
"1125 7 OFFCURVE",
"1125 61 CURVE SMOOTH",
"1125 94 OFFCURVE",
"1101 156 OFFCURVE",
"1077 210 CURVE SMOOTH",
"1063 242 OFFCURVE",
"1048 278 OFFCURVE",
"1040 308 CURVE",
"1051 320 OFFCURVE",
"1058 333 OFFCURVE",
"1058 348 CURVE SMOOTH",
"1058 370 OFFCURVE",
"1044 391 OFFCURVE",
"1010 391 CURVE SMOOTH",
"991 391 OFFCURVE",
"974 381 OFFCURVE",
"956 370 CURVE SMOOTH",
"925 351 OFFCURVE",
"860 316 OFFCURVE",
"711 316 CURVE SMOOTH",
"585 316 OFFCURVE",
"539 338 OFFCURVE",
"485 375 CURVE SMOOTH",
"460 392 OFFCURVE",
"437 405 OFFCURVE",
"411 405 CURVE SMOOTH",
"384 405 OFFCURVE",
"368 389 OFFCURVE",
"368 366 CURVE SMOOTH",
"368 344 OFFCURVE",
"382 323 OFFCURVE",
"401 301 CURVE",
"420 263 OFFCURVE",
"430 224 OFFCURVE",
"430 193 CURVE SMOOTH",
"430 126 OFFCURVE",
"384 78 OFFCURVE",
"281 78 CURVE SMOOTH",
"186 78 OFFCURVE",
"136 119 OFFCURVE",
"136 197 CURVE SMOOTH",
"136 251 OFFCURVE",
"158 288 OFFCURVE",
"176 311 CURVE SMOOTH",
"184 321 OFFCURVE",
"194 336 OFFCURVE",
"194 350 CURVE SMOOTH",
"194 380 OFFCURVE",
"144 396 OFFCURVE",
"127 396 CURVE SMOOTH",
"88 396 OFFCURVE",
"44 303 OFFCURVE",
"44 207 CURVE SMOOTH",
"44 92 OFFCURVE",
"107 -10 OFFCURVE",
"278 -10 CURVE SMOOTH"
);
},
{
closed = 1;
nodes = (
"1208 0 LINE",
"1208 81 LINE",
"1010 81 LINE",
"1010 0 LINE"
);
},
{
closed = 1;
nodes = (
"778 428 OFFCURVE",
"795 452 OFFCURVE",
"795 482 CURVE SMOOTH",
"795 511 OFFCURVE",
"763 536 OFFCURVE",
"733 536 CURVE SMOOTH",
"704 536 OFFCURVE",
"687 511 OFFCURVE",
"687 482 CURVE SMOOTH",
"687 452 OFFCURVE",
"718 428 OFFCURVE",
"748 428 CURVE SMOOTH"
);
}
);
width = 1169;
}
);
},
{
glyphname = u10ADF.medi;
lastChange = "2018-03-14 14:29:06 +0000";
layers = (
{
layerId = UUID0;
paths = (
{
closed = 1;
nodes = (
"28 0 LINE SMOOTH",
"161 0 OFFCURVE",
"202 65 OFFCURVE",
"202 141 CURVE SMOOTH",
"202 177 OFFCURVE",
"187 230 OFFCURVE",
"175 266 CURVE",
"150 269 LINE",
"216 239 OFFCURVE",
"310 230 OFFCURVE",
"378 230 CURVE SMOOTH",
"446 230 OFFCURVE",
"545 239 OFFCURVE",
"626 266 CURVE",
"653 214 OFFCURVE",
"688 129 OFFCURVE",
"688 108 CURVE SMOOTH",
"688 86 OFFCURVE",
"665 81 OFFCURVE",
"630 81 CURVE SMOOTH",
"416 81 LINE SMOOTH",
"387 81 OFFCURVE",
"356 86 OFFCURVE",
"324 104 CURVE SMOOTH",
"303 116 OFFCURVE",
"291 121 OFFCURVE",
"280 121 CURVE SMOOTH",
"258 121 OFFCURVE",
"248 103 OFFCURVE",
"248 79 CURVE SMOOTH",
"248 38 OFFCURVE",
"276 0 OFFCURVE",
"343 0 CURVE SMOOTH",
"652 0 LINE SMOOTH",
"738 0 OFFCURVE",
"790 7 OFFCURVE",
"790 61 CURVE SMOOTH",
"790 94 OFFCURVE",
"766 156 OFFCURVE",
"742 210 CURVE SMOOTH",
"728 242 OFFCURVE",
"713 278 OFFCURVE",
"705 308 CURVE",
"716 320 OFFCURVE",
"723 333 OFFCURVE",
"723 348 CURVE SMOOTH",
"723 370 OFFCURVE",
"709 391 OFFCURVE",
"675 391 CURVE SMOOTH",
"656 391 OFFCURVE",
"639 381 OFFCURVE",
"621 370 CURVE SMOOTH",
"590 351 OFFCURVE",
"521 313 OFFCURVE",
"372 313 CURVE SMOOTH",
"246 313 OFFCURVE",
"205 339 OFFCURVE",
"150 375 CURVE SMOOTH",
"124 392 OFFCURVE",
"102 405 OFFCURVE",
"76 405 CURVE SMOOTH",
"49 405 OFFCURVE",
"33 389 OFFCURVE",
"33 366 CURVE SMOOTH",
"33 344 OFFCURVE",
"54 317 OFFCURVE",
"74 295 CURVE",
"92 260 OFFCURVE",
"115 205 OFFCURVE",
"115 160 CURVE SMOOTH",
"115 117 OFFCURVE",
"96 81 OFFCURVE",
"37 81 CURVE SMOOTH",
"-39 81 LINE",
"-39 0 LINE"
);
},
{
closed = 1;
nodes = (
"363 428 OFFCURVE",
"380 452 OFFCURVE",
"380 482 CURVE SMOOTH",
"380 511 OFFCURVE",
"348 536 OFFCURVE",
"318 536 CURVE SMOOTH",
"289 536 OFFCURVE",
"272 511 OFFCURVE",
"272 482 CURVE SMOOTH",
"272 452 OFFCURVE",
"303 428 OFFCURVE",
"333 428 CURVE SMOOTH"
);
},
{
closed = 1;
nodes = (
"873 0 LINE",
"873 81 LINE",
"675 81 LINE",
"675 0 LINE"
);
}
);
width = 834;
}
);
},
{
glyphname = u10AE0.fina;
lastChange = "2018-03-14 14:29:06 +0000";
layers = (
{
layerId = UUID0;
paths = (
{
closed = 1;
nodes = (
"1208 0 LINE",
"1208 81 LINE",
"1010 81 LINE",
"1010 0 LINE"
);
},
{
closed = 1;
nodes = (
"460 -10 OFFCURVE",
"521 108 OFFCURVE",
"521 193 CURVE SMOOTH",
"521 218 OFFCURVE",
"515 256 OFFCURVE",
"497 288 CURVE",
"485 273 LINE",
"551 244 OFFCURVE",
"632 235 OFFCURVE",
"701 235 CURVE SMOOTH",
"768 235 OFFCURVE",
"880 244 OFFCURVE",
"961 271 CURVE",
"988 219 OFFCURVE",
"1023 130 OFFCURVE",
"1023 108 CURVE SMOOTH",
"1023 86 OFFCURVE",
"1000 81 OFFCURVE",
"965 81 CURVE SMOOTH",
"751 81 LINE SMOOTH",
"722 81 OFFCURVE",
"691 86 OFFCURVE",
"659 104 CURVE SMOOTH",
"638 116 OFFCURVE",
"626 121 OFFCURVE",
"615 121 CURVE SMOOTH",
"593 121 OFFCURVE",
"583 103 OFFCURVE",
"583 79 CURVE SMOOTH",
"583 38 OFFCURVE",
"611 0 OFFCURVE",
"678 0 CURVE SMOOTH",
"987 0 LINE SMOOTH",
"1073 0 OFFCURVE",
"1125 7 OFFCURVE",
"1125 61 CURVE SMOOTH",
"1125 94 OFFCURVE",
"1101 156 OFFCURVE",
"1077 210 CURVE SMOOTH",
"1063 242 OFFCURVE",
"1048 278 OFFCURVE",
"1040 308 CURVE",
"1051 320 OFFCURVE",
"1058 333 OFFCURVE",
"1058 348 CURVE SMOOTH",
"1058 370 OFFCURVE",
"1044 391 OFFCURVE",
"1010 391 CURVE SMOOTH",
"991 391 OFFCURVE",
"974 381 OFFCURVE",
"956 370 CURVE SMOOTH",
"925 351 OFFCURVE",
"860 316 OFFCURVE",
"711 316 CURVE SMOOTH",
"585 316 OFFCURVE",
"539 338 OFFCURVE",
"485 375 CURVE SMOOTH",
"460 392 OFFCURVE",
"437 405 OFFCURVE",
"411 405 CURVE SMOOTH",
"384 405 OFFCURVE",
"368 389 OFFCURVE",
"368 366 CURVE SMOOTH",
"368 344 OFFCURVE",
"382 323 OFFCURVE",
"401 301 CURVE",
"420 263 OFFCURVE",
"430 224 OFFCURVE",
"430 193 CURVE SMOOTH",
"430 126 OFFCURVE",
"384 78 OFFCURVE",
"281 78 CURVE SMOOTH",
"186 78 OFFCURVE",
"136 119 OFFCURVE",
"136 197 CURVE SMOOTH",
"136 251 OFFCURVE",
"158 288 OFFCURVE",
"176 311 CURVE SMOOTH",
"184 321 OFFCURVE",
"194 336 OFFCURVE",
"194 350 CURVE SMOOTH",
"194 380 OFFCURVE",
"144 396 OFFCURVE",
"127 396 CURVE SMOOTH",
"88 396 OFFCURVE",
"44 303 OFFCURVE",
"44 207 CURVE SMOOTH",
"44 92 OFFCURVE",
"107 -10 OFFCURVE",
"278 -10 CURVE SMOOTH"
);
},
{
closed = 1;
nodes = (
"675 430 OFFCURVE",
"692 454 OFFCURVE",
"692 484 CURVE SMOOTH",
"692 513 OFFCURVE",
"660 538 OFFCURVE",
"630 538 CURVE SMOOTH",
"601 538 OFFCURVE",
"583 513 OFFCURVE",
"583 484 CURVE SMOOTH",
"583 454 OFFCURVE",
"615 430 OFFCURVE",
"645 430 CURVE SMOOTH"
);
},
{
closed = 1;
nodes = (
"836 430 OFFCURVE",
"853 454 OFFCURVE",
"853 484 CURVE SMOOTH",
"853 513 OFFCURVE",
"821 538 OFFCURVE",
"791 538 CURVE SMOOTH",
"762 538 OFFCURVE",
"745 513 OFFCURVE",
"745 484 CURVE SMOOTH",
"745 454 OFFCURVE",
"776 430 OFFCURVE",
"806 430 CURVE SMOOTH"
);
}
);
width = 1169;
}
);
},
{
glyphname = u10AE0.medi;
lastChange = "2018-03-14 14:29:06 +0000";
layers = (
{
layerId = UUID0;
paths = (
{
closed = 1;
nodes = (
"28 0 LINE SMOOTH",
"161 0 OFFCURVE",
"202 65 OFFCURVE",
"202 141 CURVE SMOOTH",
"202 177 OFFCURVE",
"187 230 OFFCURVE",
"175 266 CURVE",
"150 269 LINE",
"216 239 OFFCURVE",
"310 230 OFFCURVE",
"378 230 CURVE SMOOTH",
"446 230 OFFCURVE",
"545 239 OFFCURVE",
"626 266 CURVE",
"653 214 OFFCURVE",
"688 129 OFFCURVE",
"688 108 CURVE SMOOTH",
"688 86 OFFCURVE",
"665 81 OFFCURVE",
"630 81 CURVE SMOOTH",
"416 81 LINE SMOOTH",
"387 81 OFFCURVE",
"356 86 OFFCURVE",
"324 104 CURVE SMOOTH",
"303 116 OFFCURVE",
"291 121 OFFCURVE",
"280 121 CURVE SMOOTH",
"258 121 OFFCURVE",
"248 103 OFFCURVE",
"248 79 CURVE SMOOTH",
"248 38 OFFCURVE",
"276 0 OFFCURVE",
"343 0 CURVE SMOOTH",
"652 0 LINE SMOOTH",
"738 0 OFFCURVE",
"790 7 OFFCURVE",
"790 61 CURVE SMOOTH",
"790 94 OFFCURVE",
"766 156 OFFCURVE",
"742 210 CURVE SMOOTH",
"728 242 OFFCURVE",
"713 278 OFFCURVE",
"705 308 CURVE",
"716 320 OFFCURVE",
"723 333 OFFCURVE",
"723 348 CURVE SMOOTH",
"723 370 OFFCURVE",
"709 391 OFFCURVE",
"675 391 CURVE SMOOTH",
"656 391 OFFCURVE",
"639 381 OFFCURVE",
"621 370 CURVE SMOOTH",
"590 351 OFFCURVE",
"521 313 OFFCURVE",
"372 313 CURVE SMOOTH",
"246 313 OFFCURVE",
"205 339 OFFCURVE",
"150 375 CURVE SMOOTH",
"124 392 OFFCURVE",
"102 405 OFFCURVE",
"76 405 CURVE SMOOTH",
"49 405 OFFCURVE",
"33 389 OFFCURVE",
"33 366 CURVE SMOOTH",
"33 344 OFFCURVE",
"54 317 OFFCURVE",
"74 295 CURVE",
"92 260 OFFCURVE",
"115 205 OFFCURVE",
"115 160 CURVE SMOOTH",
"115 117 OFFCURVE",
"96 81 OFFCURVE",
"37 81 CURVE SMOOTH",
"-39 81 LINE",
"-39 0 LINE"
);
},
{
closed = 1;
nodes = (
"301 430 OFFCURVE",
"318 454 OFFCURVE",
"318 484 CURVE SMOOTH",
"318 513 OFFCURVE",
"286 538 OFFCURVE",
"256 538 CURVE SMOOTH",
"227 538 OFFCURVE",
"209 513 OFFCURVE",
"209 484 CURVE SMOOTH",
"209 454 OFFCURVE",
"241 430 OFFCURVE",
"271 430 CURVE SMOOTH"
);
},
{
closed = 1;
nodes = (
"462 430 OFFCURVE",
"479 454 OFFCURVE",
"479 484 CURVE SMOOTH",
"479 513 OFFCURVE",
"447 538 OFFCURVE",
"417 538 CURVE SMOOTH",
"388 538 OFFCURVE",
"371 513 OFFCURVE",
"371 484 CURVE SMOOTH",
"371 454 OFFCURVE",
"402 430 OFFCURVE",
"432 430 CURVE SMOOTH"
);
},
{
closed = 1;
nodes = (
"873 0 LINE",
"873 81 LINE",
"675 81 LINE",
"675 0 LINE"
);
}
);
width = 834;
}
);
},
{
glyphname = u10AE1.fina;
lastChange = "2018-03-14 14:29:06 +0000";
layers = (
{
layerId = UUID0;
paths = (
{
closed = 1;
nodes = (
"306 -89 OFFCURVE",
"314 -78 OFFCURVE",
"314 -63 CURVE SMOOTH",
"314 -42 OFFCURVE",
"300 -25 OFFCURVE",
"280 -3 CURVE SMOOTH",
"258 22 OFFCURVE",
"241 48 OFFCURVE",
"241 70 CURVE SMOOTH",
"241 89 OFFCURVE",
"253 100 OFFCURVE",
"268 109 CURVE SMOOTH",
"279 115 OFFCURVE",
"301 130 OFFCURVE",
"301 156 CURVE SMOOTH",
"301 211 OFFCURVE",
"198 236 OFFCURVE",
"134 236 CURVE SMOOTH",
"67 236 OFFCURVE",
"44 208 OFFCURVE",
"44 171 CURVE SMOOTH",
"44 74 OFFCURVE",
"208 -89 OFFCURVE",
"286 -89 CURVE SMOOTH"
);
},
{
closed = 1;
nodes = (
"424 0 LINE",
"424 81 LINE",
"153 81 LINE",
"153 0 LINE"
);
},
{
closed = 1;
nodes = (
"150 289 OFFCURVE",
"167 313 OFFCURVE",
"167 343 CURVE SMOOTH",
"167 372 OFFCURVE",
"135 397 OFFCURVE",
"105 397 CURVE SMOOTH",
"76 397 OFFCURVE",
"59 372 OFFCURVE",
"59 343 CURVE SMOOTH",
"59 313 OFFCURVE",
"90 289 OFFCURVE",
"120 289 CURVE SMOOTH"
);
}
);
width = 385;
}
);
},
{
glyphname = u10AE4.fina;
lastChange = "2018-03-14 14:29:06 +0000";
layers = (
{
layerId = UUID0;
paths = (
{
closed = 1;
nodes = (
"328 -10 OFFCURVE",
"329 23 OFFCURVE",
"329 35 CURVE SMOOTH",
"329 65 OFFCURVE",
"325 80 OFFCURVE",
"312 113 CURVE",
"340 144 OFFCURVE",
"366 168 OFFCURVE",
"391 168 CURVE SMOOTH",
"415 168 OFFCURVE",
"427 147 OFFCURVE",
"462 83 CURVE SMOOTH",
"491 30 OFFCURVE",
"534 0 OFFCURVE",
"619 0 CURVE SMOOTH",
"671 0 LINE",
"671 81 LINE",
"631 81 LINE SMOOTH",
"566 81 OFFCURVE",
"537 107 OFFCURVE",
"505 184 CURVE SMOOTH",
"479 247 OFFCURVE",
"457 285 OFFCURVE",
"410 285 CURVE SMOOTH",
"370 285 OFFCURVE",
"336 251 OFFCURVE",
"278 189 CURVE",
"259 234 LINE SMOOTH",
"234 292 OFFCURVE",
"188 399 OFFCURVE",
"188 418 CURVE SMOOTH",
"188 425 OFFCURVE",
"195 438 OFFCURVE",
"198 442 CURVE SMOOTH",
"203 452 OFFCURVE",
"208 463 OFFCURVE",
"208 473 CURVE SMOOTH",
"208 507 OFFCURVE",
"141 522 OFFCURVE",
"103 522 CURVE SMOOTH",
"74 522 OFFCURVE",
"59 514 OFFCURVE",
"59 500 CURVE SMOOTH",
"59 488 OFFCURVE",
"67 468 OFFCURVE",
"88 419 CURVE SMOOTH",
"180 206 LINE SMOOTH",
"193 176 OFFCURVE",
"209 139 OFFCURVE",
"209 119 CURVE SMOOTH",
"209 101 OFFCURVE",
"196 84 OFFCURVE",
"188 76 CURVE SMOOTH",
"176 63 OFFCURVE",
"170 53 OFFCURVE",
"170 42 CURVE SMOOTH",
"170 4 OFFCURVE",
"253 -10 OFFCURVE",
"283 -10 CURVE SMOOTH"
);
}
);
width = 632;
}
);
},
{
glyphname = u10AC5.alt;
lastChange = "2018-03-14 14:29:06 +0000";
layers = (
{
layerId = UUID0;
paths = (
{
closed = 1;
nodes = (
"619 -260 OFFCURVE",
"647 -238 OFFCURVE",
"647 -188 CURVE SMOOTH",
"647 -151 OFFCURVE",
"619 -94 OFFCURVE",
"551 -43 CURVE SMOOTH",
"476 14 OFFCURVE",
"471 46 OFFCURVE",
"471 76 CURVE SMOOTH",
"471 103 OFFCURVE",
"497 126 OFFCURVE",
"522 142 CURVE SMOOTH",
"538 152 OFFCURVE",
"553 162 OFFCURVE",
"553 178 CURVE SMOOTH",
"553 201 OFFCURVE",
"512 249 OFFCURVE",
"428 249 CURVE SMOOTH",
"382 249 OFFCURVE",
"328 229 OFFCURVE",
"328 157 CURVE SMOOTH",
"328 68 OFFCURVE",
"389 5 OFFCURVE",
"470 -73 CURVE SMOOTH",
"518 -120 OFFCURVE",
"520 -162 OFFCURVE",
"520 -204 CURVE SMOOTH",
"520 -238 OFFCURVE",
"538 -260 OFFCURVE",
"579 -260 CURVE SMOOTH"
);
},
{
closed = 1;
nodes = (
"250 30 OFFCURVE",
"274 76 OFFCURVE",
"274 132 CURVE SMOOTH",
"274 189 OFFCURVE",
"213 236 OFFCURVE",
"157 236 CURVE SMOOTH",
"94 236 OFFCURVE",
"67 189 OFFCURVE",
"67 132 CURVE SMOOTH",
"67 76 OFFCURVE",
"128 30 OFFCURVE",
"185 30 CURVE SMOOTH"
);
}
);
width = 722;
}
);
},
{
glyphname = u10AC6.alt;
lastChange = "2018-03-14 14:29:06 +0000";
layers = (
{
layerId = UUID0;
paths = (
{
closed = 1;
nodes = (
"364 -142 OFFCURVE",
"384 -132 OFFCURVE",
"384 -75 CURVE SMOOTH",
"384 -33 OFFCURVE",
"374 21 OFFCURVE",
"365 65 CURVE SMOOTH",
"352 128 OFFCURVE",
"338 209 OFFCURVE",
"338 293 CURVE SMOOTH",
"338 310 OFFCURVE",
"339 329 OFFCURVE",
"340 344 CURVE",
"582 344 LINE",
"589 313 OFFCURVE",
"597 281 OFFCURVE",
"607 253 CURVE SMOOTH",
"621 215 OFFCURVE",
"632 182 OFFCURVE",
"632 148 CURVE SMOOTH",
"632 135 OFFCURVE",
"629 109 OFFCURVE",
"626 87 CURVE SMOOTH",
"623 68 OFFCURVE",
"622 48 OFFCURVE",
"622 42 CURVE SMOOTH",
"622 6 OFFCURVE",
"648 -9 OFFCURVE",
"684 -9 CURVE SMOOTH",
"729 -9 OFFCURVE",
"750 14 OFFCURVE",
"750 66 CURVE SMOOTH",
"750 105 OFFCURVE",
"737 146 OFFCURVE",
"722 185 CURVE SMOOTH",
"700 243 OFFCURVE",
"696 280 OFFCURVE",
"696 313 CURVE SMOOTH",
"696 324 OFFCURVE",
"698 337 OFFCURVE",
"703 359 CURVE SMOOTH",
"705 368 OFFCURVE",
"706 378 OFFCURVE",
"706 386 CURVE SMOOTH",
"706 440 OFFCURVE",
"671 449 OFFCURVE",
"640 449 CURVE SMOOTH",
"613 449 OFFCURVE",
"598 443 OFFCURVE",
"587 429 CURVE",
"313 429 LINE SMOOTH",
"255 429 OFFCURVE",
"209 429 OFFCURVE",
"152 458 CURVE SMOOTH",
"139 465 OFFCURVE",
"124 473 OFFCURVE",
"105 473 CURVE SMOOTH",
"74 473 OFFCURVE",
"55 453 OFFCURVE",
"55 420 CURVE SMOOTH",
"55 375 OFFCURVE",
"90 344 OFFCURVE",
"156 344 CURVE SMOOTH",
"235 344 LINE",
"238 270 OFFCURVE",
"243 223 OFFCURVE",
"252 167 CURVE SMOOTH",
"271 52 OFFCURVE",
"272 20 OFFCURVE",
"274 -68 CURVE SMOOTH",
"275 -122 OFFCURVE",
"289 -142 OFFCURVE",
"333 -142 CURVE SMOOTH"
);
}
);
width = 808;
}
);
},
{
glyphname = u10AD6.alt;
lastChange = "2018-03-14 14:29:06 +0000";
layers = (
{
layerId = UUID0;
paths = (
{
closed = 1;
nodes = (
"210 -273 OFFCURVE",
"241 -259 OFFCURVE",
"241 -202 CURVE SMOOTH",
"241 -149 OFFCURVE",
"227 -4 OFFCURVE",
"213 106 CURVE",
"193 113 LINE",
"245 43 OFFCURVE",
"313 -10 OFFCURVE",
"429 -10 CURVE SMOOTH",
"620 -10 OFFCURVE",
"643 85 OFFCURVE",
"643 148 CURVE SMOOTH",
"643 188 OFFCURVE",
"626 247 OFFCURVE",
"592 291 CURVE",
"598 296 LINE SMOOTH",
"608 305 OFFCURVE",
"626 323 OFFCURVE",
"626 348 CURVE SMOOTH",
"626 369 OFFCURVE",
"612 391 OFFCURVE",
"580 391 CURVE SMOOTH",
"555 391 OFFCURVE",
"535 377 OFFCURVE",
"513 359 CURVE SMOOTH",
"482 334 OFFCURVE",
"432 298 OFFCURVE",
"338 298 CURVE SMOOTH",
"249 298 OFFCURVE",
"203 334 OFFCURVE",
"170 365 CURVE SMOOTH",
"150 384 OFFCURVE",
"132 400 OFFCURVE",
"105 400 CURVE SMOOTH",
"71 400 OFFCURVE",
"58 378 OFFCURVE",
"58 358 CURVE SMOOTH",
"58 336 OFFCURVE",
"71 315 OFFCURVE",
"98 287 CURVE",
"111 265 OFFCURVE",
"134 140 OFFCURVE",
"134 34 CURVE SMOOTH",
"134 15 OFFCURVE",
"133 -23 OFFCURVE",
"130 -63 CURVE SMOOTH",
"127 -108 OFFCURVE",
"125 -157 OFFCURVE",
"125 -184 CURVE SMOOTH",
"125 -250 OFFCURVE",
"141 -273 OFFCURVE",
"188 -273 CURVE SMOOTH"
);
},
{
closed = 1;
nodes = (
"341 78 OFFCURVE",
"246 114 OFFCURVE",
"185 264 CURVE",
"189 240 LINE",
"227 227 OFFCURVE",
"283 215 OFFCURVE",
"351 215 CURVE SMOOTH",
"421 215 OFFCURVE",
"480 229 OFFCURVE",
"538 256 CURVE",
"502 265 LINE",
"531 239 OFFCURVE",
"552 187 OFFCURVE",
"552 157 CURVE SMOOTH",
"552 118 OFFCURVE",
"542 78 OFFCURVE",
"432 78 CURVE SMOOTH"
);
}
);
width = 682;
}
);
},
{
glyphname = u10AD6.alt.fina;
lastChange = "2018-03-14 14:29:06 +0000";
layers = (
{
layerId = UUID0;
paths = (
{
closed = 1;
nodes = (
"210 -273 OFFCURVE",
"241 -259 OFFCURVE",
"241 -202 CURVE SMOOTH",
"241 -149 OFFCURVE",
"227 -4 OFFCURVE",
"213 106 CURVE",
"193 113 LINE",
"245 43 OFFCURVE",
"313 -10 OFFCURVE",
"429 -10 CURVE SMOOTH",
"620 -10 OFFCURVE",
"643 85 OFFCURVE",
"643 148 CURVE SMOOTH",
"643 188 OFFCURVE",
"626 247 OFFCURVE",
"592 291 CURVE",
"598 296 LINE SMOOTH",
"608 305 OFFCURVE",
"626 323 OFFCURVE",
"626 348 CURVE SMOOTH",
"626 369 OFFCURVE",
"612 391 OFFCURVE",
"580 391 CURVE SMOOTH",
"555 391 OFFCURVE",
"535 377 OFFCURVE",
"513 359 CURVE SMOOTH",
"482 334 OFFCURVE",
"432 298 OFFCURVE",
"338 298 CURVE SMOOTH",
"249 298 OFFCURVE",
"203 334 OFFCURVE",
"170 365 CURVE SMOOTH",
"150 384 OFFCURVE",
"132 400 OFFCURVE",
"105 400 CURVE SMOOTH",
"71 400 OFFCURVE",
"58 378 OFFCURVE",
"58 358 CURVE SMOOTH",
"58 336 OFFCURVE",
"71 315 OFFCURVE",
"98 287 CURVE",
"111 265 OFFCURVE",
"134 140 OFFCURVE",
"134 34 CURVE SMOOTH",
"134 15 OFFCURVE",
"133 -23 OFFCURVE",
"130 -63 CURVE SMOOTH",
"127 -108 OFFCURVE",
"125 -157 OFFCURVE",
"125 -184 CURVE SMOOTH",
"125 -250 OFFCURVE",
"141 -273 OFFCURVE",
"188 -273 CURVE SMOOTH"
);
},
{
closed = 1;
nodes = (
"341 78 OFFCURVE",
"246 114 OFFCURVE",
"185 264 CURVE",
"189 240 LINE",
"227 227 OFFCURVE",
"283 215 OFFCURVE",
"351 215 CURVE SMOOTH",
"421 215 OFFCURVE",
"480 229 OFFCURVE",
"538 256 CURVE",
"502 265 LINE",
"531 239 OFFCURVE",
"552 187 OFFCURVE",
"552 157 CURVE SMOOTH",
"552 118 OFFCURVE",
"542 78 OFFCURVE",
"432 78 CURVE SMOOTH"
);
},
{
closed = 1;
nodes = (
"721 0 LINE",
"721 81 LINE",
"523 81 LINE",
"523 0 LINE"
);
}
);
width = 682;
}
);
},
{
glyphname = u10AD7.alt;
lastChange = "2018-03-14 14:29:06 +0000";
layers = (
{
layerId = UUID0;
paths = (
{
closed = 1;
nodes = (
"466 -171 OFFCURVE",
"493 -161 OFFCURVE",
"493 -149 CURVE SMOOTH",
"493 -83 OFFCURVE",
"460 -39 OFFCURVE",
"418 -6 CURVE",
"469 41 OFFCURVE",
"489 98 OFFCURVE",
"489 161 CURVE SMOOTH",
"489 254 OFFCURVE",
"417 339 OFFCURVE",
"297 339 CURVE SMOOTH",
"196 339 OFFCURVE",
"129 285 OFFCURVE",
"129 219 CURVE SMOOTH",
"129 171 OFFCURVE",
"150 158 OFFCURVE",
"171 158 CURVE SMOOTH",
"198 158 OFFCURVE",
"206 175 OFFCURVE",
"216 197 CURVE SMOOTH",
"227 221 OFFCURVE",
"248 246 OFFCURVE",
"295 246 CURVE SMOOTH",
"356 246 OFFCURVE",
"398 210 OFFCURVE",
"398 149 CURVE SMOOTH",
"398 107 OFFCURVE",
"385 65 OFFCURVE",
"336 38 CURVE",
"251 69 OFFCURVE",
"152 74 OFFCURVE",
"105 74 CURVE SMOOTH",
"62 74 OFFCURVE",
"44 55 OFFCURVE",
"44 31 CURVE SMOOTH",
"44 -10 OFFCURVE",
"79 -18 OFFCURVE",
"119 -18 CURVE SMOOTH",
"249 -18 OFFCURVE",
"375 -45 OFFCURVE",
"397 -152 CURVE SMOOTH",
"400 -168 OFFCURVE",
"421 -171 OFFCURVE",
"438 -171 CURVE SMOOTH"
);
}
);
width = 552;
}
);
},
{
glyphname = u10AE1.alt;
lastChange = "2018-03-14 14:29:06 +0000";
layers = (
{
layerId = UUID0;
paths = (
{
closed = 1;
nodes = (
"603 -89 OFFCURVE",
"611 -78 OFFCURVE",
"611 -63 CURVE SMOOTH",
"611 -42 OFFCURVE",
"596 -24 OFFCURVE",
"577 -3 CURVE SMOOTH",
"555 21 OFFCURVE",
"538 48 OFFCURVE",
"538 70 CURVE SMOOTH",
"538 89 OFFCURVE",
"551 102 OFFCURVE",
"564 109 CURVE SMOOTH",
"575 115 OFFCURVE",
"598 130 OFFCURVE",
"598 156 CURVE SMOOTH",
"598 211 OFFCURVE",
"495 236 OFFCURVE",
"431 236 CURVE SMOOTH",
"364 236 OFFCURVE",
"341 208 OFFCURVE",
"341 171 CURVE SMOOTH",
"341 74 OFFCURVE",
"505 -89 OFFCURVE",
"583 -89 CURVE SMOOTH"
);
},
{
closed = 1;
nodes = (
"250 30 OFFCURVE",
"274 76 OFFCURVE",
"274 132 CURVE SMOOTH",
"274 189 OFFCURVE",
"213 236 OFFCURVE",
"157 236 CURVE SMOOTH",
"94 236 OFFCURVE",
"67 189 OFFCURVE",
"67 132 CURVE SMOOTH",
"67 76 OFFCURVE",
"128 30 OFFCURVE",
"185 30 CURVE SMOOTH"
);
},
{
closed = 1;
nodes = (
"327 313 OFFCURVE",
"344 337 OFFCURVE",
"344 367 CURVE SMOOTH",
"344 396 OFFCURVE",
"313 421 OFFCURVE",
"283 421 CURVE SMOOTH",
"253 421 OFFCURVE",
"236 396 OFFCURVE",
"236 367 CURVE SMOOTH",
"236 337 OFFCURVE",
"268 313 OFFCURVE",
"297 313 CURVE SMOOTH"
);
}
);
width = 717;
}
);
},
{
glyphname = u10AEB.fina;
lastChange = "2018-03-14 14:29:06 +0000";
layers = (
{
layerId = UUID0;
paths = (
{
closed = 1;
nodes = (
"201 -273 OFFCURVE",
"225 -239 OFFCURVE",
"225 -177 CURVE SMOOTH",
"225 -122 OFFCURVE",
"212 301 OFFCURVE",
"206 346 CURVE SMOOTH",
"201 380 OFFCURVE",
"186 391 OFFCURVE",
"159 391 CURVE SMOOTH",
"123 391 OFFCURVE",
"108 372 OFFCURVE",
"108 343 CURVE SMOOTH",
"108 329 OFFCURVE",
"112 303 OFFCURVE",
"117 271 CURVE SMOOTH",
"127 205 OFFCURVE",
"138 118 OFFCURVE",
"138 25 CURVE SMOOTH",
"138 -26 OFFCURVE",
"138 -70 OFFCURVE",
"133 -106 CURVE",
"109 -153 OFFCURVE",
"100 -179 OFFCURVE",
"100 -213 CURVE SMOOTH",
"100 -254 OFFCURVE",
"124 -273 OFFCURVE",
"155 -273 CURVE SMOOTH"
);
},
{
closed = 1;
nodes = (
"362 0 LINE",
"362 81 LINE",
"164 81 LINE",
"164 0 LINE"
);
}
);
width = 323;
}
);
},
{
glyphname = u10AEB.medi;
lastChange = "2018-03-14 14:29:06 +0000";
layers = (
{
layerId = UUID0;
paths = (
{
closed = 1;
nodes = (
"29 0 LINE SMOOTH",
"169 0 OFFCURVE",
"225 53 OFFCURVE",
"225 152 CURVE SMOOTH",
"225 243 OFFCURVE",
"184 344 OFFCURVE",
"91 344 CURVE SMOOTH",
"40 344 OFFCURVE",
"12 315 OFFCURVE",
"12 271 CURVE SMOOTH",
"12 229 OFFCURVE",
"36 206 OFFCURVE",
"68 194 CURVE SMOOTH",
"103 181 OFFCURVE",
"127 162 OFFCURVE",
"127 133 CURVE SMOOTH",
"127 103 OFFCURVE",
"107 81 OFFCURVE",
"35 81 CURVE SMOOTH",
"-39 81 LINE",
"-39 0 LINE"
);
},
{
closed = 1;
nodes = (
"323 0 LINE",
"323 81 LINE",
"52 81 LINE",
"52 0 LINE"
);
}
);
width = 284;
}
);
},
{
glyphname = u10AEB.init;
lastChange = "2018-03-14 14:29:06 +0000";
layers = (
{
layerId = UUID0;
paths = (
{
closed = 1;
nodes = (
"29 0 LINE SMOOTH",
"169 0 OFFCURVE",
"225 53 OFFCURVE",
"225 152 CURVE SMOOTH",
"225 243 OFFCURVE",
"184 344 OFFCURVE",
"91 344 CURVE SMOOTH",
"40 344 OFFCURVE",
"12 315 OFFCURVE",
"12 271 CURVE SMOOTH",
"12 229 OFFCURVE",
"36 206 OFFCURVE",
"68 194 CURVE SMOOTH",
"103 181 OFFCURVE",
"127 162 OFFCURVE",
"127 133 CURVE SMOOTH",
"127 103 OFFCURVE",
"107 81 OFFCURVE",
"35 81 CURVE SMOOTH",
"-39 81 LINE",
"-39 0 LINE"
);
}
);
width = 284;
}
);
},
{
glyphname = u10AEC.fina;
lastChange = "2018-03-14 14:29:06 +0000";
layers = (
{
layerId = UUID0;
paths = (
{
closed = 1;
nodes = (
"801 0 LINE",
"801 81 LINE",
"718 81 LINE",
"463 221 LINE SMOOTH",
"421 244 OFFCURVE",
"396 263 OFFCURVE",
"396 284 CURVE SMOOTH",
"396 293 OFFCURVE",
"401 297 OFFCURVE",
"410 302 CURVE SMOOTH",
"418 306 OFFCURVE",
"426 311 OFFCURVE",
"426 323 CURVE SMOOTH",
"426 347 OFFCURVE",
"363 396 OFFCURVE",
"306 396 CURVE SMOOTH",
"260 396 OFFCURVE",
"241 369 OFFCURVE",
"241 331 CURVE SMOOTH",
"241 257 OFFCURVE",
"334 175 OFFCURVE",
"542 81 CURVE",
"249 81 LINE SMOOTH",
"208 81 OFFCURVE",
"187 85 OFFCURVE",
"157 106 CURVE SMOOTH",
"140 118 OFFCURVE",
"123 129 OFFCURVE",
"98 129 CURVE SMOOTH",
"64 129 OFFCURVE",
"44 107 OFFCURVE",
"44 72 CURVE SMOOTH",
"44 26 OFFCURVE",
"80 0 OFFCURVE",
"146 0 CURVE SMOOTH"
);
}
);
width = 762;
}
);
},
{
glyphname = u10AEC.medi;
lastChange = "2018-03-14 14:29:06 +0000";
layers = (
{
layerId = UUID0;
paths = (
{
closed = 1;
nodes = (
"552 0 LINE",
"552 81 LINE",
"469 81 LINE",
"217 220 LINE SMOOTH",
"173 244 OFFCURVE",
"147 263 OFFCURVE",
"147 284 CURVE SMOOTH",
"147 293 OFFCURVE",
"153 298 OFFCURVE",
"161 302 CURVE SMOOTH",
"169 306 OFFCURVE",
"178 311 OFFCURVE",
"178 323 CURVE SMOOTH",
"178 347 OFFCURVE",
"114 396 OFFCURVE",
"57 396 CURVE SMOOTH",
"12 396 OFFCURVE",
"-8 369 OFFCURVE",
"-8 331 CURVE SMOOTH",
"-8 257 OFFCURVE",
"86 175 OFFCURVE",
"293 81 CURVE",
"-39 81 LINE",
"-39 0 LINE"
);
}
);
width = 513;
}
);
},
{
glyphname = u10AEC.init;
lastChange = "2018-03-14 14:29:06 +0000";
layers = (
{
layerId = UUID0;
paths = (
{
closed = 1;
nodes = (
"512 -24 OFFCURVE",
"524 -10 OFFCURVE",
"524 16 CURVE SMOOTH",
"524 47 OFFCURVE",
"497 71 OFFCURVE",
"451 95 CURVE SMOOTH",
"214 221 LINE SMOOTH",
"171 244 OFFCURVE",
"146 263 OFFCURVE",
"146 284 CURVE SMOOTH",
"146 293 OFFCURVE",
"152 297 OFFCURVE",
"161 302 CURVE SMOOTH",
"169 306 OFFCURVE",
"177 311 OFFCURVE",
"177 323 CURVE SMOOTH",
"177 347 OFFCURVE",
"114 396 OFFCURVE",
"57 396 CURVE SMOOTH",
"11 396 OFFCURVE",
"-8 369 OFFCURVE",
"-8 331 CURVE SMOOTH",
"-8 257 OFFCURVE",
"85 175 OFFCURVE",
"293 81 CURVE",
"-39 81 LINE",
"-39 0 LINE",
"432 0 LINE",
"450 -15 OFFCURVE",
"463 -24 OFFCURVE",
"488 -24 CURVE SMOOTH"
);
}
);
width = 568;
}
);
},
{
glyphname = u10AED.fina;
lastChange = "2018-03-14 14:29:06 +0000";
layers = (
{
layerId = UUID0;
paths = (
{
closed = 1;
nodes = (
"293 -273 OFFCURVE",
"318 -264 OFFCURVE",
"318 -217 CURVE SMOOTH",
"318 -163 OFFCURVE",
"309 -117 OFFCURVE",
"299 -66 CURVE SMOOTH",
"287 -5 OFFCURVE",
"272 72 OFFCURVE",
"272 160 CURVE SMOOTH",
"272 181 OFFCURVE",
"273 201 OFFCURVE",
"274 217 CURVE",
"424 217 LINE",
"418 195 OFFCURVE",
"415 170 OFFCURVE",
"415 147 CURVE SMOOTH",
"415 65 OFFCURVE",
"461 0 OFFCURVE",
"578 0 CURVE SMOOTH",
"640 0 LINE",
"640 81 LINE",
"578 81 LINE SMOOTH",
"509 81 OFFCURVE",
"500 111 OFFCURVE",
"500 133 CURVE SMOOTH",
"500 159 OFFCURVE",
"516 174 OFFCURVE",
"537 183 CURVE SMOOTH",
"556 191 OFFCURVE",
"585 206 OFFCURVE",
"585 245 CURVE SMOOTH",
"585 284 OFFCURVE",
"562 309 OFFCURVE",
"523 309 CURVE SMOOTH",
"508 309 OFFCURVE",
"495 305 OFFCURVE",
"483 298 CURVE",
"249 298 LINE SMOOTH",
"189 298 OFFCURVE",
"161 314 OFFCURVE",
"140 327 CURVE SMOOTH",
"127 335 OFFCURVE",
"116 341 OFFCURVE",
"94 341 CURVE SMOOTH",
"62 341 OFFCURVE",
"42 322 OFFCURVE",
"42 286 CURVE SMOOTH",
"42 248 OFFCURVE",
"78 217 OFFCURVE",
"144 217 CURVE SMOOTH",
"173 217 LINE",
"175 152 OFFCURVE",
"182 96 OFFCURVE",
"191 36 CURVE SMOOTH",
"202 -34 OFFCURVE",
"212 -106 OFFCURVE",
"212 -200 CURVE SMOOTH",
"212 -253 OFFCURVE",
"229 -273 OFFCURVE",
"265 -273 CURVE SMOOTH"
);
}
);
width = 601;
}
);
},
{
glyphname = u10AED.medi;
lastChange = "2018-03-14 14:29:06 +0000";
layers = (
{
layerId = UUID0;
paths = (
{
closed = 1;
nodes = (
"153 -34 OFFCURVE",
"167 -3 OFFCURVE",
"167 27 CURVE SMOOTH",
"167 73 OFFCURVE",
"158 108 OFFCURVE",
"149 138 CURVE SMOOTH",
"143 159 OFFCURVE",
"137 188 OFFCURVE",
"136 217 CURVE",
"294 217 LINE",
"288 196 OFFCURVE",
"285 169 OFFCURVE",
"285 147 CURVE SMOOTH",
"285 65 OFFCURVE",
"332 0 OFFCURVE",
"448 0 CURVE SMOOTH",
"510 0 LINE",
"510 81 LINE",
"448 81 LINE SMOOTH",
"379 81 OFFCURVE",
"371 109 OFFCURVE",
"371 133 CURVE SMOOTH",
"371 159 OFFCURVE",
"386 174 OFFCURVE",
"407 183 CURVE SMOOTH",
"426 191 OFFCURVE",
"456 206 OFFCURVE",
"456 245 CURVE SMOOTH",
"456 284 OFFCURVE",
"432 309 OFFCURVE",
"393 309 CURVE SMOOTH",
"378 309 OFFCURVE",
"365 305 OFFCURVE",
"354 298 CURVE",
"-39 298 LINE",
"-39 217 LINE",
"53 217 LINE",
"60 171 OFFCURVE",
"61 104 OFFCURVE",
"61 30 CURVE SMOOTH",
"61 -13 OFFCURVE",
"79 -34 OFFCURVE",
"118 -34 CURVE SMOOTH"
);
}
);
width = 471;
}
);
},
{
glyphname = u10AED.init;
lastChange = "2018-03-14 14:29:06 +0000";
layers = (
{
layerId = UUID0;
paths = (
{
closed = 1;
nodes = (
"153 -29 OFFCURVE",
"167 2 OFFCURVE",
"167 32 CURVE SMOOTH",
"167 78 OFFCURVE",
"158 113 OFFCURVE",
"149 143 CURVE SMOOTH",
"142 166 OFFCURVE",
"137 188 OFFCURVE",
"136 217 CURVE",
"305 217 LINE",
"328 175 OFFCURVE",
"348 127 OFFCURVE",
"348 90 CURVE SMOOTH",
"348 79 OFFCURVE",
"347 68 OFFCURVE",
"344 57 CURVE SMOOTH",
"340 43 OFFCURVE",
"339 36 OFFCURVE",
"339 20 CURVE SMOOTH",
"339 -11 OFFCURVE",
"363 -27 OFFCURVE",
"400 -27 CURVE SMOOTH",
"431 -27 OFFCURVE",
"457 -13 OFFCURVE",
"457 23 CURVE SMOOTH",
"457 48 OFFCURVE",
"444 82 OFFCURVE",
"431 110 CURVE SMOOTH",
"418 139 OFFCURVE",
"407 165 OFFCURVE",
"407 190 CURVE SMOOTH",
"407 207 OFFCURVE",
"410 226 OFFCURVE",
"414 242 CURVE SMOOTH",
"416 251 OFFCURVE",
"417 262 OFFCURVE",
"417 268 CURVE SMOOTH",
"417 302 OFFCURVE",
"384 314 OFFCURVE",
"360 314 CURVE SMOOTH",
"337 314 OFFCURVE",
"321 308 OFFCURVE",
"311 298 CURVE",
"-39 298 LINE",
"-39 217 LINE",
"53 217 LINE",
"60 171 OFFCURVE",
"61 109 OFFCURVE",
"61 35 CURVE SMOOTH",
"61 -8 OFFCURVE",
"79 -29 OFFCURVE",
"118 -29 CURVE SMOOTH"
);
}
);
width = 516;
}
);
},
{
glyphname = u10AEE.fina;
lastChange = "2018-03-14 14:29:06 +0000";
layers = (
{
layerId = UUID0;
paths = (
{
closed = 1;
nodes = (
"741 0 LINE SMOOTH",
"767 0 OFFCURVE",
"780 9 OFFCURVE",
"780 29 CURVE SMOOTH",
"780 42 OFFCURVE",
"775 58 OFFCURVE",
"767 81 CURVE SMOOTH",
"721 208 OFFCURVE",
"647 340 OFFCURVE",
"518 340 CURVE SMOOTH",
"429 340 OFFCURVE",
"385 279 OFFCURVE",
"385 216 CURVE SMOOTH",
"385 164 OFFCURVE",
"410 114 OFFCURVE",
"475 81 CURVE",
"220 81 LINE SMOOTH",
"192 81 OFFCURVE",
"174 93 OFFCURVE",
"157 105 CURVE SMOOTH",
"141 117 OFFCURVE",
"124 129 OFFCURVE",
"98 129 CURVE SMOOTH",
"64 129 OFFCURVE",
"44 107 OFFCURVE",
"44 72 CURVE SMOOTH",
"44 29 OFFCURVE",
"80 0 OFFCURVE",
"146 0 CURVE SMOOTH"
);
},
{
closed = 1;
nodes = (
"572 81 OFFCURVE",
"476 141 OFFCURVE",
"476 206 CURVE SMOOTH",
"476 238 OFFCURVE",
"491 253 OFFCURVE",
"518 253 CURVE SMOOTH",
"585 253 OFFCURVE",
"666 141 OFFCURVE",
"666 81 CURVE"
);
},
{
closed = 1;
nodes = (
"864 0 LINE",
"864 81 LINE",
"666 81 LINE",
"666 0 LINE"
);
}
);
width = 824;
}
);
},
{
glyphname = u10AEE.medi;
lastChange = "2018-03-14 14:29:06 +0000";
layers = (
{
layerId = UUID0;
paths = (
{
closed = 1;
nodes = (
"397 0 LINE SMOOTH",
"422 0 OFFCURVE",
"436 9 OFFCURVE",
"436 29 CURVE SMOOTH",
"436 42 OFFCURVE",
"430 59 OFFCURVE",
"422 81 CURVE SMOOTH",
"376 208 OFFCURVE",
"303 340 OFFCURVE",
"173 340 CURVE SMOOTH",
"85 340 OFFCURVE",
"41 279 OFFCURVE",
"41 216 CURVE SMOOTH",
"41 164 OFFCURVE",
"66 115 OFFCURVE",
"111 81 CURVE",
"-39 81 LINE",
"-39 0 LINE"
);
},
{
closed = 1;
nodes = (
"228 81 OFFCURVE",
"131 143 OFFCURVE",
"131 206 CURVE SMOOTH",
"131 238 OFFCURVE",
"147 253 OFFCURVE",
"174 253 CURVE SMOOTH",
"241 253 OFFCURVE",
"321 143 OFFCURVE",
"321 81 CURVE"
);
},
{
closed = 1;
nodes = (
"519 0 LINE",
"519 81 LINE",
"321 81 LINE",
"321 0 LINE"
);
}
);
width = 480;
}
);
},
{
glyphname = u10AEE.init;
lastChange = "2018-03-14 14:29:06 +0000";
layers = (
{
layerId = UUID0;
paths = (
{
closed = 1;
nodes = (
"397 0 LINE SMOOTH",
"422 0 OFFCURVE",
"436 9 OFFCURVE",
"436 29 CURVE SMOOTH",
"436 42 OFFCURVE",
"430 59 OFFCURVE",
"422 81 CURVE SMOOTH",
"376 208 OFFCURVE",
"303 340 OFFCURVE",
"173 340 CURVE SMOOTH",
"85 340 OFFCURVE",
"41 279 OFFCURVE",
"41 216 CURVE SMOOTH",
"41 164 OFFCURVE",
"66 115 OFFCURVE",
"111 81 CURVE",
"-39 81 LINE",
"-39 0 LINE"
);
},
{
closed = 1;
nodes = (
"228 81 OFFCURVE",
"131 143 OFFCURVE",
"131 206 CURVE SMOOTH",
"131 238 OFFCURVE",
"147 253 OFFCURVE",
"174 253 CURVE SMOOTH",
"241 253 OFFCURVE",
"321 143 OFFCURVE",
"321 81 CURVE"
);
}
);
width = 480;
}
);
},
{
glyphname = u10AEF.fina;
lastChange = "2018-03-14 14:29:06 +0000";
layers = (
{
layerId = UUID0;
paths = (
{
closed = 1;
nodes = (
"221 -273 OFFCURVE",
"241 -259 OFFCURVE",
"241 -195 CURVE SMOOTH",
"241 -156 OFFCURVE",
"233 -48 OFFCURVE",
"221 57 CURVE",
"265 17 OFFCURVE",
"324 -10 OFFCURVE",
"405 -10 CURVE SMOOTH",
"553 -10 OFFCURVE",
"587 81 OFFCURVE",
"587 150 CURVE SMOOTH",
"587 198 OFFCURVE",
"571 246 OFFCURVE",
"548 280 CURVE",
"561 293 OFFCURVE",
"567 307 OFFCURVE",
"567 322 CURVE SMOOTH",
"567 344 OFFCURVE",
"554 366 OFFCURVE",
"520 366 CURVE SMOOTH",
"494 366 OFFCURVE",
"482 354 OFFCURVE",
"466 338 CURVE SMOOTH",
"443 316 OFFCURVE",
"413 288 OFFCURVE",
"326 288 CURVE SMOOTH",
"243 288 OFFCURVE",
"201 318 OFFCURVE",
"170 344 CURVE SMOOTH",
"150 361 OFFCURVE",
"132 376 OFFCURVE",
"105 376 CURVE SMOOTH",
"73 376 OFFCURVE",
"59 355 OFFCURVE",
"59 332 CURVE SMOOTH",
"59 310 OFFCURVE",
"72 289 OFFCURVE",
"93 271 CURVE",
"125 182 OFFCURVE",
"134 100 OFFCURVE",
"134 28 CURVE SMOOTH",
"134 -16 OFFCURVE",
"133 -73 OFFCURVE",
"129 -123 CURVE SMOOTH",
"126 -159 OFFCURVE",
"125 -190 OFFCURVE",
"125 -205 CURVE SMOOTH",
"125 -251 OFFCURVE",
"140 -273 OFFCURVE",
"185 -273 CURVE SMOOTH"
);
},
{
closed = 1;
nodes = (
"328 78 OFFCURVE",
"248 112 OFFCURVE",
"197 227 CURVE",
"240 213 OFFCURVE",
"280 203 OFFCURVE",
"328 203 CURVE SMOOTH",
"383 203 OFFCURVE",
"434 213 OFFCURVE",
"473 230 CURVE",
"488 201 OFFCURVE",
"497 176 OFFCURVE",
"497 148 CURVE SMOOTH",
"497 111 OFFCURVE",
"480 78 OFFCURVE",
"401 78 CURVE SMOOTH"
);
},
{
closed = 1;
nodes = (
"671 0 LINE",
"671 81 LINE",
"473 81 LINE",
"473 0 LINE"
);
}
);
width = 631;
}
);
},
{
glyphname = uni25CC;
lastChange = "2018-03-14 14:29:06 +0000";
layers = (
{
layerId = UUID0;
paths = (
{
closed = 1;
nodes = (
"199 522 OFFCURVE",
"187 510 OFFCURVE",
"187 496 CURVE SMOOTH",
"187 482 OFFCURVE",
"199 470 OFFCURVE",
"213 470 CURVE SMOOTH",
"227 470 OFFCURVE",
"239 482 OFFCURVE",
"239 496 CURVE SMOOTH",
"239 510 OFFCURVE",
"227 522 OFFCURVE",
"213 522 CURVE SMOOTH"
);
},
{
closed = 1;
nodes = (
"367 522 OFFCURVE",
"355 510 OFFCURVE",
"355 496 CURVE SMOOTH",
"355 482 OFFCURVE",
"367 470 OFFCURVE",
"381 470 CURVE SMOOTH",
"395 470 OFFCURVE",
"407 482 OFFCURVE",
"407 496 CURVE SMOOTH",
"407 510 OFFCURVE",
"395 522 OFFCURVE",
"381 522 CURVE SMOOTH"
);
},
{
closed = 1;
nodes = (
"199 112 OFFCURVE",
"187 100 OFFCURVE",
"187 86 CURVE SMOOTH",
"187 72 OFFCURVE",
"199 60 OFFCURVE",
"213 60 CURVE SMOOTH",
"227 60 OFFCURVE",
"239 72 OFFCURVE",
"239 86 CURVE SMOOTH",
"239 100 OFFCURVE",
"227 112 OFFCURVE",
"213 112 CURVE SMOOTH"
);
},
{
closed = 1;
nodes = (
"367 112 OFFCURVE",
"355 100 OFFCURVE",
"355 86 CURVE SMOOTH",
"355 72 OFFCURVE",
"367 60 OFFCURVE",
"381 60 CURVE SMOOTH",
"395 60 OFFCURVE",
"407 72 OFFCURVE",
"407 86 CURVE SMOOTH",
"407 100 OFFCURVE",
"395 112 OFFCURVE",
"381 112 CURVE SMOOTH"
);
},
{
closed = 1;
nodes = (
"283 540 OFFCURVE",
"271 528 OFFCURVE",
"271 514 CURVE SMOOTH",
"271 500 OFFCURVE",
"283 488 OFFCURVE",
"297 488 CURVE SMOOTH",
"311 488 OFFCURVE",
"323 500 OFFCURVE",
"323 514 CURVE SMOOTH",
"323 528 OFFCURVE",
"311 540 OFFCURVE",
"297 540 CURVE SMOOTH"
);
},
{
closed = 1;
nodes = (
"283 94 OFFCURVE",
"271 82 OFFCURVE",
"271 68 CURVE SMOOTH",
"271 54 OFFCURVE",
"283 42 OFFCURVE",
"297 42 CURVE SMOOTH",
"311 42 OFFCURVE",
"323 54 OFFCURVE",
"323 68 CURVE SMOOTH",
"323 82 OFFCURVE",
"311 94 OFFCURVE",
"297 94 CURVE SMOOTH"
);
},
{
closed = 1;
nodes = (
"48 277 OFFCURVE",
"60 265 OFFCURVE",
"74 265 CURVE SMOOTH",
"88 265 OFFCURVE",
"100 277 OFFCURVE",
"100 291 CURVE SMOOTH",
"100 305 OFFCURVE",
"88 317 OFFCURVE",
"74 317 CURVE SMOOTH",
"60 317 OFFCURVE",
"48 305 OFFCURVE",
"48 291 CURVE SMOOTH"
);
},
{
closed = 1;
nodes = (
"494 277 OFFCURVE",
"506 265 OFFCURVE",
"520 265 CURVE SMOOTH",
"534 265 OFFCURVE",
"546 277 OFFCURVE",
"546 291 CURVE SMOOTH",
"546 305 OFFCURVE",
"534 317 OFFCURVE",
"520 317 CURVE SMOOTH",
"506 317 OFFCURVE",
"494 305 OFFCURVE",
"494 291 CURVE SMOOTH"
);
},
{
closed = 1;
nodes = (
"113 119 OFFCURVE",
"125 107 OFFCURVE",
"139 107 CURVE SMOOTH",
"153 107 OFFCURVE",
"165 119 OFFCURVE",
"165 133 CURVE SMOOTH",
"165 147 OFFCURVE",
"153 159 OFFCURVE",
"139 159 CURVE SMOOTH",
"125 159 OFFCURVE",
"113 147 OFFCURVE",
"113 133 CURVE SMOOTH"
);
},
{
closed = 1;
nodes = (
"113 435 OFFCURVE",
"125 423 OFFCURVE",
"139 423 CURVE SMOOTH",
"153 423 OFFCURVE",
"165 435 OFFCURVE",
"165 449 CURVE SMOOTH",
"165 463 OFFCURVE",
"153 475 OFFCURVE",
"139 475 CURVE SMOOTH",
"125 475 OFFCURVE",
"113 463 OFFCURVE",
"113 449 CURVE SMOOTH"
);
},
{
closed = 1;
nodes = (
"429 119 OFFCURVE",
"441 107 OFFCURVE",
"455 107 CURVE SMOOTH",
"469 107 OFFCURVE",
"481 119 OFFCURVE",
"481 133 CURVE SMOOTH",
"481 147 OFFCURVE",
"469 159 OFFCURVE",
"455 159 CURVE SMOOTH",
"441 159 OFFCURVE",
"429 147 OFFCURVE",
"429 133 CURVE SMOOTH"
);
},
{
closed = 1;
nodes = (
"429 435 OFFCURVE",
"441 423 OFFCURVE",
"455 423 CURVE SMOOTH",
"469 423 OFFCURVE",
"481 435 OFFCURVE",
"481 449 CURVE SMOOTH",
"481 463 OFFCURVE",
"469 475 OFFCURVE",
"455 475 CURVE SMOOTH",
"441 475 OFFCURVE",
"429 463 OFFCURVE",
"429 449 CURVE SMOOTH"
);
},
{
closed = 1;
nodes = (
"66 193 OFFCURVE",
"78 181 OFFCURVE",
"92 181 CURVE SMOOTH",
"106 181 OFFCURVE",
"118 193 OFFCURVE",
"118 207 CURVE SMOOTH",
"118 221 OFFCURVE",
"106 233 OFFCURVE",
"92 233 CURVE SMOOTH",
"78 233 OFFCURVE",
"66 221 OFFCURVE",
"66 207 CURVE SMOOTH"
);
},
{
closed = 1;
nodes = (
"66 361 OFFCURVE",
"78 349 OFFCURVE",
"92 349 CURVE SMOOTH",
"106 349 OFFCURVE",
"118 361 OFFCURVE",
"118 375 CURVE SMOOTH",
"118 389 OFFCURVE",
"106 401 OFFCURVE",
"92 401 CURVE SMOOTH",
"78 401 OFFCURVE",
"66 389 OFFCURVE",
"66 375 CURVE SMOOTH"
);
},
{
closed = 1;
nodes = (
"476 193 OFFCURVE",
"488 181 OFFCURVE",
"502 181 CURVE SMOOTH",
"516 181 OFFCURVE",
"528 193 OFFCURVE",
"528 207 CURVE SMOOTH",
"528 221 OFFCURVE",
"516 233 OFFCURVE",
"502 233 CURVE SMOOTH",
"488 233 OFFCURVE",
"476 221 OFFCURVE",
"476 207 CURVE SMOOTH"
);
},
{
closed = 1;
nodes = (
"476 361 OFFCURVE",
"488 349 OFFCURVE",
"502 349 CURVE SMOOTH",
"516 349 OFFCURVE",
"528 361 OFFCURVE",
"528 375 CURVE SMOOTH",
"528 389 OFFCURVE",
"516 401 OFFCURVE",
"502 401 CURVE SMOOTH",
"488 401 OFFCURVE",
"476 389 OFFCURVE",
"476 375 CURVE SMOOTH"
);
}
);
width = 594;
}
);
unicode = 25CC;
},
{
export = 0;
glyphname = bar.left;
lastChange = "2018-03-14 14:29:06 +0000";
layers = (
{
layerId = UUID0;
paths = (
{
closed = 1;
nodes = (
"71 0 LINE",
"71 81 LINE",
"-39 81 LINE",
"-39 0 LINE"
);
}
);
width = 71;
}
);
},
{
export = 0;
glyphname = bar.right;
lastChange = "2018-03-14 14:29:06 +0000";
layers = (
{
layerId = UUID0;
paths = (
{
closed = 1;
nodes = (
"198 0 LINE",
"198 81 LINE",
"0 81 LINE",
"0 0 LINE"
);
}
);
width = 159;
}
);
},
{
export = 0;
glyphname = barlong.right;
lastChange = "2018-03-14 14:29:06 +0000";
layers = (
{
layerId = UUID0;
paths = (
{
closed = 1;
nodes = (
"271 0 LINE",
"271 81 LINE",
"0 81 LINE",
"0 0 LINE"
);
}
);
width = 232;
}
);
},
{
export = 0;
glyphname = dots;
lastChange = "2018-03-14 14:29:06 +0000";
layers = (
{
layerId = UUID0;
paths = (
{
closed = 1;
nodes = (
"-178 313 OFFCURVE",
"-161 337 OFFCURVE",
"-161 367 CURVE SMOOTH",
"-161 396 OFFCURVE",
"-193 421 OFFCURVE",
"-223 421 CURVE SMOOTH",
"-252 421 OFFCURVE",
"-270 396 OFFCURVE",
"-270 367 CURVE SMOOTH",
"-270 337 OFFCURVE",
"-238 313 OFFCURVE",
"-208 313 CURVE SMOOTH"
);
},
{
closed = 1;
nodes = (
"-17 313 OFFCURVE",
"0 337 OFFCURVE",
"0 367 CURVE SMOOTH",
"0 396 OFFCURVE",
"-32 421 OFFCURVE",
"-62 421 CURVE SMOOTH",
"-91 421 OFFCURVE",
"-108 396 OFFCURVE",
"-108 367 CURVE SMOOTH",
"-108 337 OFFCURVE",
"-77 313 OFFCURVE",
"-47 313 CURVE SMOOTH"
);
}
);
width = 0;
}
);
},
{
export = 0;
glyphname = dot1;
lastChange = "2018-03-14 14:29:06 +0000";
layers = (
{
layerId = UUID0;
paths = (
{
closed = 1;
nodes = (
"-17 313 OFFCURVE",
"0 337 OFFCURVE",
"0 367 CURVE SMOOTH",
"0 396 OFFCURVE",
"-32 421 OFFCURVE",
"-62 421 CURVE SMOOTH",
"-91 421 OFFCURVE",
"-108 396 OFFCURVE",
"-108 367 CURVE SMOOTH",
"-108 337 OFFCURVE",
"-77 313 OFFCURVE",
"-47 313 CURVE SMOOTH"
);
}
);
width = 0;
}
);
},
{
glyphname = u10AEB.fina.high;
lastChange = "2018-03-14 14:29:06 +0000";
layers = (
{
layerId = UUID0;
paths = (
{
closed = 1;
nodes = (
"201 -61 OFFCURVE",
"225 -27 OFFCURVE",
"225 35 CURVE SMOOTH",
"225 90 OFFCURVE",
"212 513 OFFCURVE",
"206 558 CURVE SMOOTH",
"201 592 OFFCURVE",
"186 603 OFFCURVE",
"159 603 CURVE SMOOTH",
"123 603 OFFCURVE",
"108 584 OFFCURVE",
"108 555 CURVE SMOOTH",
"108 541 OFFCURVE",
"112 515 OFFCURVE",
"117 483 CURVE SMOOTH",
"127 417 OFFCURVE",
"138 330 OFFCURVE",
"138 237 CURVE SMOOTH",
"138 186 OFFCURVE",
"138 142 OFFCURVE",
"133 106 CURVE",
"109 59 OFFCURVE",
"100 33 OFFCURVE",
"100 -1 CURVE SMOOTH",
"100 -42 OFFCURVE",
"124 -61 OFFCURVE",
"155 -61 CURVE SMOOTH"
);
},
{
closed = 1;
nodes = (
"362 217 LINE",
"362 298 LINE",
"164 298 LINE",
"164 217 LINE"
);
}
);
width = 323;
}
);
},
{
glyphname = u10AEB.medi.high;
lastChange = "2018-03-14 14:29:06 +0000";
layers = (
{
layerId = UUID0;
paths = (
{
closed = 1;
nodes = (
"29 212 LINE SMOOTH",
"169 212 OFFCURVE",
"225 265 OFFCURVE",
"225 364 CURVE SMOOTH",
"225 455 OFFCURVE",
"184 556 OFFCURVE",
"91 556 CURVE SMOOTH",
"40 556 OFFCURVE",
"12 527 OFFCURVE",
"12 483 CURVE SMOOTH",
"12 441 OFFCURVE",
"36 418 OFFCURVE",
"68 406 CURVE SMOOTH",
"103 393 OFFCURVE",
"127 374 OFFCURVE",
"127 345 CURVE SMOOTH",
"127 315 OFFCURVE",
"107 293 OFFCURVE",
"35 293 CURVE SMOOTH",
"-39 293 LINE",
"-39 212 LINE"
);
},
{
closed = 1;
nodes = (
"323 212 LINE",
"323 293 LINE",
"52 293 LINE",
"52 212 LINE"
);
}
);
width = 284;
}
);
},
